<svg width="1200" height="1080" viewBox="0 0 1200 1080" fill="none" xmlns="http://www.w3.org/2000/svg">
<g clip-path="url(#clip0_331_15198)">
<rect width="1200" height="1080" fill="white"/>
<path d="M1200 0H0V1080H1200V0Z" fill="#E9EFF3"/>
<path d="M529.569 475.2H600.569L597.239 459.8C620.039 461.15 628.239 452 631.069 443.46C634.189 433.78 629.069 420.46 625.449 410.16C625.449 410.16 631.899 404.43 630.449 399.86C629.309 396.11 619.729 395.59 619.729 395.59C619.319 393.92 609.729 357.81 587.259 350.32C576.539 346.05 559.159 347.09 541.989 355.62C513.159 369.99 511.599 393.82 514.309 412.76C515.829 423.38 523.429 456 529.569 475.2Z" fill="#FAA378"/>
<path d="M803.59 495L843.35 562.55C863.23 545.27 875.3 535.48 888.83 530.6C897.47 527.36 928.17 519.6 941.39 513.42C955.33 506.97 953.15 497.29 953.15 497.29C953.15 497.29 961.68 488.75 952.42 482.82C955.65 478.55 952.84 470.23 944.51 469.5C945.65 454.5 892.79 466.17 879.98 468.36C879.98 468.36 882.9 462.36 886.64 455.55C891.95 445.88 888.73 438.38 876.97 444.84C859.48 454.39 832.94 473.23 803.59 495Z" fill="#FAA378"/>
<path d="M465.67 517.35C468.16 533.49 491.67 590.2 503.03 612.17L520.2 672.11H636.14L653.14 590.63C653.14 590.63 665.94 598.11 693.83 612.07C722.15 626.22 744.52 631.01 766.58 621.33C786.58 612.59 812.38 589.33 836.52 568.45L796.87 499.87C766.06 522.67 739.42 543.27 739.42 543.27C739.42 543.27 696.96 513.27 669.06 498.41C637.06 481.24 602.67 484.47 602.67 484.47L600.58 475.2H529.58C530.93 479.47 532.07 483.11 532.91 485.72C523.22 486.24 489 487.48 465.67 517.35Z" fill="white"/>
<path d="M663.609 832.07C659.239 736.85 636.449 672.07 636.449 672.07L564.739 668.22C564.739 668.22 556.419 687.79 549.129 743.16C545.389 771.05 548.919 801.16 553.709 829.16C569.839 829.68 586.079 830.31 602.209 830.83C622.609 831.55 642.999 832 663.609 832.07Z" fill="#FAA378"/>
<path d="M521.82 365.2C536.63 348.37 532.98 320.94 513.64 303.92C494.3 286.9 466.64 286.75 451.84 303.58C437.04 320.41 440.68 347.84 460 364.86C479.32 381.88 507 382 521.82 365.2Z" fill="black"/>
<path d="M563.18 413.07L571.82 417.44" stroke="black" stroke-width="4" stroke-linecap="round" stroke-linejoin="round"/>
<path d="M898.719 506.84C904.029 505.84 951.999 497.37 951.999 497.37" stroke="#1A1919" stroke-width="4" stroke-linecap="round" stroke-linejoin="round"/>
<path d="M894.461 491.34L950.871 481.34" stroke="#1A1919" stroke-width="4" stroke-linecap="round" stroke-linejoin="round"/>
<path d="M888.219 477.81L942.339 468.44" stroke="#1A1919" stroke-width="4" stroke-linecap="round" stroke-linejoin="round"/>
<path d="M570.78 829.79C580.35 734.56 579.1 672.11 579.1 672.11L523.1 668.26C523.1 668.26 484.6 715.93 477.31 771.26C474.71 790.51 473.36 809.35 472.42 827.26C505.21 827.5 538.1 828.65 570.78 829.79Z" fill="#FAA378"/>
<path d="M879.889 468.44C869.479 502.78 856.999 511.11 851.789 513.2" stroke="#1A1919" stroke-width="4" stroke-linecap="round" stroke-linejoin="round"/>
<path d="M429.551 580C441.211 554.81 467.121 508 490.851 496.11C506.461 486.75 525.611 485.29 543.851 484.66C559.471 477.38 569.851 463.85 567.791 436.79C561.551 433.67 532.411 419.1 545.941 400.37C550.831 393.6 564.671 388.92 581.321 403.49C583.158 401.86 584.895 400.12 586.521 398.28L574.001 379.56L591.691 392.05C598.971 382.68 604.491 372.28 606.691 365.93C601.491 358.12 594.831 351.15 586.501 348.34C575.781 344.07 555.701 342.93 538.501 351.46C509.671 365.82 508.731 393.72 511.441 412.66C511.651 413.8 511.961 415.26 512.271 416.92C473.971 407.66 436.511 429.52 440.671 477.39C383.441 492 389.691 561.69 429.551 580Z" fill="black"/>
<path d="M570.05 428.16C568.998 427.452 567.71 427.187 566.464 427.421C565.218 427.655 564.114 428.369 563.39 429.41L555.17 441.69C554.773 442.319 554.523 443.03 554.44 443.77C554.29 445.025 554.644 446.288 555.423 447.284C556.203 448.279 557.345 448.925 558.6 449.08L571.92 450.64C572.663 450.689 573.409 450.584 574.11 450.33C574.701 450.116 575.244 449.787 575.707 449.361C576.169 448.935 576.542 448.421 576.804 447.849C577.065 447.278 577.21 446.66 577.23 446.031C577.25 445.403 577.145 444.777 576.92 444.19L571.72 430.35C571.373 429.481 570.796 428.724 570.05 428.16Z" fill="white"/>
<path d="M502.82 612.07C502.874 612.124 502.909 612.194 502.92 612.27L520.1 672.27H636L653 590.78C653 590.78 665.8 598.27 693.69 612.22C722 626.37 744.48 631.16 766.44 621.48C788.4 611.8 817.23 584.85 843.35 562.58L803.59 495C770.08 519.66 739.38 543.4 739.38 543.4C739.38 543.4 696.92 513.4 669.02 498.54C650.71 488.75 631.87 485.54 618.86 484.59L582.23 578.78L516.35 486.78C496.27 490.398 478.247 501.337 465.77 517.48V517.69" fill="#88CE27"/>
<path d="M658.3 573.55L655.08 590.63" stroke="#111111" stroke-width="4" stroke-linecap="round" stroke-linejoin="round"/>
<path d="M741.461 543.38L756.001 553.78" stroke="#111111" stroke-width="4" stroke-linecap="round" stroke-linejoin="round"/>
<path d="M663.51 832.07C659.03 736.43 636.34 670.35 636.34 670.35L522.91 668.78C522.91 668.78 484.4 716.45 477.11 771.78C474.62 790.78 473.26 809.45 472.33 827.25C515.62 827.46 559.02 829.43 602.21 830.79C622.61 831.537 643.043 831.964 663.51 832.07Z" fill="#88CE27"/>
<path d="M519.781 670.45H636.341" stroke="black" stroke-width="4" stroke-linecap="round" stroke-linejoin="round"/>
<path d="M582.23 670.35V578.76" stroke="black" stroke-width="4" stroke-linecap="round" stroke-linejoin="round"/>
<path d="M568.391 606.86H595.761" stroke="black" stroke-width="4" stroke-linecap="round" stroke-linejoin="round"/>
<path d="M568.391 627.47H595.761" stroke="black" stroke-width="4" stroke-linecap="round" stroke-linejoin="round"/>
<path opacity="0.2" d="M473.16 827.39L562.66 668.39L522.91 668.8C522.91 668.8 484.4 716.47 477.11 771.8C474.62 790.8 473.26 809.58 472.33 827.27C472.53 827.29 472.85 827.39 473.16 827.39Z" fill="#0F110C"/>
<path opacity="0.2" d="M517.18 582.2L502.92 612.27L520.1 672.27H559.64L517.18 582.2Z" fill="black"/>
<path d="M513.43 589.06L513.54 589.16L489.6 639.16C489.6 639.16 539.35 681.16 560.37 697.44C569.74 704.73 616.57 743.24 612.37 750.52C608.17 757.8 596.76 752.6 596.76 752.6C600.317 763.14 603.097 773.925 605.08 784.87C608.21 802.56 598.84 801.52 598.84 801.52C595.72 815.05 583.23 807.76 583.23 807.76C573.86 816.09 565.54 804.64 565.54 804.64C550.97 810.88 541.6 770.3 541.6 770.3C522.87 759.89 513.5 741.16 513.5 741.16C513.5 741.16 415.67 698.49 411.5 651.65C407.33 604.81 454.17 530.92 466.34 516.57" fill="#FAA378"/>
<path d="M466.6 516.83L466.39 516.53C454.22 530.88 407.39 604.77 411.55 651.72C414.46 683.88 461.61 714.16 490.75 729.88L533.52 675.76C512.29 658.27 489.6 639.12 489.6 639.12L513.54 589.12" fill="#88CE27"/>
<path d="M512.5 593.85L504 613.2" stroke="#111111" stroke-width="4" stroke-linecap="round" stroke-linejoin="round"/>
<path d="M557.25 769.21C562.45 783.79 564.53 799.4 565.58 804.6" stroke="black" stroke-width="4" stroke-linecap="round" stroke-linejoin="round"/>
<path d="M571.82 764C579.1 781.69 583.27 807.71 583.27 807.71" stroke="black" stroke-width="4" stroke-linecap="round" stroke-linejoin="round"/>
<path d="M586.391 757.77C586.391 757.77 591.591 773.38 598.881 802.52" stroke="black" stroke-width="4" stroke-linecap="round" stroke-linejoin="round"/>
<path d="M592.84 741.12C595.346 744.646 597.364 748.494 598.84 752.56" stroke="black" stroke-width="4" stroke-linecap="round" stroke-linejoin="round"/>
<path opacity="0.2" d="M658.51 560.76L653.1 590.76C653.1 590.76 665.9 598.25 693.79 612.2C702.131 616.515 710.83 620.102 719.79 622.92C719.79 622.92 692.54 600.4 658.51 560.76Z" fill="black"/>
<path opacity="0.2" d="M601.27 478.43L576.5 455.85C583.301 457.657 590.222 458.977 597.21 459.8L601.27 478.43Z" fill="black"/>
<path d="M676.999 705.81C668.349 705.81 660.999 702.49 656.369 696.46C651.449 690.08 650.069 681.46 652.489 672.29L687.199 542.83C692.149 524.36 711.199 509.33 729.589 509.33H937.589C946.319 509.33 953.689 512.67 958.329 518.73C963.219 525.11 964.559 533.67 962.099 542.85L927.379 672.41C922.379 690.82 903.379 705.81 884.979 705.81H676.999Z" fill="#0054B6"/>
<path opacity="0.3" d="M748.57 705.81L753.87 652.02H834.49L829.29 705.77H806.02L806.32 703.19C807.06 695.19 805.04 687.77 800.92 683.25C799.783 681.91 798.366 680.835 796.77 680.099C795.179 679.354 793.447 678.959 791.69 678.94C782.33 678.94 773.63 689.82 772.29 703.19C772.29 703.61 772.21 704.049 772.19 704.479C772.174 704.925 772.127 705.37 772.05 705.81H748.57Z" fill="black"/>
<path d="M779.68 747.13L754.18 652H834.9L860.29 747.09L779.68 747.13ZM797.21 680C795.742 680.721 794.467 681.78 793.49 683.09C790.01 687.61 789.19 695.09 791.3 703.19C794.9 716.56 805.46 727.45 814.83 727.45C816.466 727.474 818.084 727.107 819.55 726.38C821.017 725.653 822.288 724.587 823.26 723.27C826.73 718.74 827.5 711.27 825.34 703.2C821.74 689.82 811.23 678.94 801.92 678.94C800.288 678.912 798.673 679.276 797.21 680Z" fill="#30A8FF"/>
<path d="M837.871 577.86L842.931 558.86" stroke="black" stroke-width="4" stroke-linecap="round" stroke-linejoin="round"/>
<path d="M814.109 577.86L819.169 558.86" stroke="black" stroke-width="4" stroke-linecap="round" stroke-linejoin="round"/>
<path d="M790.35 577.86L795.41 558.86" stroke="black" stroke-width="4" stroke-linecap="round" stroke-linejoin="round"/>
<path d="M541.52 747.13C541.517 743.286 543.04 739.597 545.755 736.874C548.47 734.152 552.155 732.618 556 732.61H728.549C730.455 732.609 732.341 732.985 734.1 733.716C735.859 734.447 737.456 735.519 738.799 736.87C741.5 739.601 743.009 743.29 743 747.13H541.52Z" fill="#0054B6"/>
<path d="M541.52 747.13C541.517 743.286 543.04 739.597 545.755 736.874C548.47 734.152 552.155 732.618 556 732.61H595.26C597.164 732.612 599.05 732.99 600.81 733.72C603.457 734.821 605.717 736.683 607.303 739.071C608.89 741.458 609.731 744.264 609.719 747.13H541.52Z" fill="#30A8FF"/>
<path d="M269.26 326.94C269.26 347.908 277.589 368.017 292.416 382.844C307.243 397.67 327.352 406 348.32 406H416C417.501 406.001 418.988 405.706 420.375 405.133C421.763 404.559 423.023 403.717 424.085 402.655C425.147 401.593 425.988 400.333 426.562 398.945C427.136 397.558 427.431 396.071 427.43 394.57V326.94C427.43 305.972 419.1 285.863 404.274 271.036C389.447 256.209 369.338 247.88 348.37 247.88C327.402 247.88 307.293 256.209 292.466 271.036C277.639 285.863 269.31 305.972 269.31 326.94H269.26Z" fill="white"/>
<path d="M892.309 294.18L923.999 262.45L955.729 294.18" stroke="#010100" stroke-width="4" stroke-linecap="round" stroke-linejoin="round"/>
<path opacity="0.3" d="M864.35 405.11V295H974.48V405.11H864.35Z" fill="#101609"/>
<path d="M868.91 400.54V290.42H979V400.54H868.91Z" fill="#88CE27"/>
<path d="M888.309 381.14V309.82H959.639V381.14H888.309Z" fill="white"/>
<path d="M911.71 381.14C911.25 374.47 912.5 369.39 915.53 366.19C918.79 362.77 923.41 362.02 926.77 362.02C929.007 362.026 931.235 362.315 933.4 362.88C933.4 362.88 923.8 343.42 934.53 337.21C937.456 335.572 940.767 334.743 944.12 334.81C949.538 334.987 954.844 336.393 959.64 338.92V381.14H911.71Z" fill="#30A8FF"/>
<path d="M918.55 331.78C918.55 330.029 918.03 328.317 917.057 326.862C916.084 325.406 914.702 324.272 913.084 323.602C911.466 322.933 909.686 322.758 907.969 323.1C906.252 323.443 904.675 324.287 903.438 325.525C902.201 326.764 901.359 328.342 901.018 330.059C900.678 331.777 900.855 333.556 901.526 335.173C902.198 336.79 903.333 338.172 904.79 339.143C906.247 340.114 907.959 340.632 909.71 340.63C910.871 340.63 912.022 340.401 913.095 339.956C914.168 339.511 915.143 338.859 915.964 338.037C916.785 337.215 917.436 336.239 917.88 335.166C918.323 334.092 918.551 332.941 918.55 331.78Z" fill="#30A8FF"/>
<path d="M308.441 699.08V655C308.441 654.87 308.441 654.87 308.301 654.87H215.831C215.691 654.87 215.691 654.87 215.691 655V699.9C215.702 706.066 216.94 712.168 219.334 717.85C221.727 723.533 225.227 728.682 229.63 732.998C234.034 737.314 239.252 740.71 244.982 742.989C250.711 745.268 256.837 746.383 263.001 746.27C288.381 745.73 308.441 724.45 308.441 699.08Z" fill="#30A8FF"/>
<path d="M308.301 655.17C308.301 655.03 308.301 654.9 308.171 654.9H216.001C215.871 654.9 215.871 655.03 215.871 655.17C217.371 657.49 232.511 679.44 262.101 679.44C291.691 679.44 306.801 657.49 308.301 655.17Z" fill="#88CE27"/>
<path d="M181.59 691C181.58 687.624 182.573 684.321 184.443 681.509C186.312 678.698 188.975 676.504 192.092 675.208C195.21 673.911 198.642 673.569 201.954 674.226C205.266 674.882 208.309 676.507 210.696 678.894C213.084 681.282 214.708 684.324 215.365 687.636C216.021 690.948 215.679 694.381 214.382 697.498C213.086 700.616 210.893 703.278 208.081 705.148C205.27 707.017 201.966 708.01 198.59 708C194.086 707.984 189.771 706.188 186.587 703.004C183.402 699.819 181.606 695.504 181.59 691V691Z" stroke="#30A8FF" stroke-width="4" stroke-linecap="round" stroke-linejoin="round"/>
<path d="M366.241 359.83C367.991 358.819 369.961 358.25 371.981 358.17C373.999 358.093 376.005 358.515 377.821 359.4C379.154 359.971 380.638 360.084 382.042 359.722C383.446 359.361 384.69 358.544 385.581 357.4L385.651 357.25C386.577 356.123 387.084 354.709 387.084 353.25C387.084 351.791 386.577 350.377 385.651 349.25C384.572 347.87 383.761 346.299 383.261 344.62C382.62 342.374 382.612 339.994 383.239 337.744C383.865 335.494 385.102 333.461 386.811 331.87C388.098 330.683 389.598 329.75 391.231 329.12C392.582 328.632 393.727 327.699 394.477 326.474C395.228 325.249 395.539 323.805 395.361 322.38L395.291 322.16C395.067 320.73 394.377 319.415 393.328 318.418C392.279 317.422 390.93 316.8 389.491 316.65C388.216 316.468 386.973 316.104 385.801 315.57C384.254 314.884 382.859 313.9 381.693 312.674C380.528 311.448 379.616 310.003 379.011 308.424C378.405 306.844 378.117 305.161 378.163 303.47C378.21 301.779 378.589 300.114 379.281 298.57C379.888 297.257 380.033 295.777 379.692 294.372C379.35 292.966 378.543 291.718 377.401 290.83L377.251 290.75C376.121 289.831 374.708 289.329 373.251 289.329C371.794 289.329 370.381 289.831 369.251 290.75C367.868 291.83 366.294 292.641 364.611 293.14C362.401 293.77 360.063 293.79 357.843 293.199C355.623 292.607 353.604 291.426 352.001 289.78C350.818 288.486 349.885 286.984 349.251 285.35C348.765 284 347.833 282.857 346.609 282.108C345.386 281.359 343.944 281.049 342.521 281.23L342.301 281.3C340.87 281.515 339.551 282.201 338.553 283.25C337.555 284.298 336.935 285.65 336.791 287.09C336.608 288.368 336.244 289.614 335.711 290.79C334.326 293.901 331.763 296.335 328.585 297.557C325.407 298.78 321.874 298.691 318.761 297.31C317.426 296.709 315.928 296.574 314.508 296.928C313.088 297.282 311.828 298.103 310.931 299.26C310.928 299.289 310.92 299.317 310.906 299.343C310.892 299.369 310.874 299.391 310.851 299.41C309.969 300.557 309.49 301.963 309.49 303.41C309.49 304.857 309.969 306.263 310.851 307.41C311.93 308.795 312.744 310.368 313.251 312.05C313.876 314.28 313.883 316.639 313.27 318.873C312.657 321.106 311.447 323.131 309.771 324.73C308.481 325.91 306.982 326.839 305.351 327.47C304 327.958 302.855 328.891 302.105 330.116C301.354 331.341 301.042 332.784 301.221 334.21L301.291 334.43C301.515 335.859 302.205 337.175 303.254 338.171C304.303 339.168 305.652 339.79 307.091 339.94C308.364 340.085 309.608 340.422 310.781 340.94C313.883 342.335 316.308 344.899 317.529 348.073C318.75 351.247 318.668 354.776 317.301 357.89C316.709 359.226 316.575 360.72 316.921 362.14C317.277 363.562 318.101 364.823 319.261 365.72L319.401 365.79C320.528 366.716 321.942 367.223 323.401 367.223C324.86 367.223 326.274 366.716 327.401 365.79C328.786 364.712 330.359 363.901 332.041 363.4C334.27 362.77 336.629 362.76 338.864 363.371C341.098 363.983 343.123 365.192 344.721 366.87C345.899 368.167 346.831 369.669 347.471 371.3C347.96 372.65 348.895 373.793 350.121 374.54C351.341 375.3 352.787 375.611 354.211 375.42L354.431 375.36C355.859 375.134 357.172 374.443 358.166 373.394C359.161 372.345 359.781 370.997 359.931 369.56C360.17 367.556 360.871 365.635 361.981 363.95C363.081 362.261 364.565 360.856 366.311 359.85L366.241 359.83ZM361.751 325.78C362.203 327.814 362.148 329.929 361.592 331.938C361.036 333.946 359.995 335.787 358.561 337.3C356.845 339.227 354.624 340.635 352.15 341.366C349.675 342.097 347.046 342.12 344.558 341.435C342.071 340.749 339.825 339.382 338.074 337.486C336.323 335.591 335.137 333.244 334.651 330.71C334.248 328.674 334.326 326.572 334.88 324.572C335.434 322.571 336.448 320.728 337.841 319.19C339.553 317.256 341.774 315.84 344.25 315.105C346.727 314.37 349.36 314.344 351.851 315.03C354.341 315.717 356.589 317.088 358.339 318.988C360.089 320.888 361.271 323.241 361.751 325.78Z" fill="#0054B6"/>
<path d="M164.379 849.8H1035.62V746.54H164.379V849.8Z" fill="#D7E2EF"/>
</g>
<defs>
<clipPath id="clip0_331_15198">
<rect width="1200" height="1080" fill="white"/>
</clipPath>
</defs>
</svg>
