<svg width="1200" height="1080" viewBox="0 0 1200 1080" fill="none" xmlns="http://www.w3.org/2000/svg">
<g clip-path="url(#clip0_331_15195)">
<rect width="1200" height="1080" fill="white"/>
<g clip-path="url(#clip1_331_15195)">
<path d="M1200 0H0V1080H1200V0Z" fill="#EFF3E9"/>
<path d="M622.73 754.43L634.79 757.29L624.55 764.23L628.07 776.12L616.92 770.74L608.42 779.74L607.51 767.38L595.44 764.52L605.69 757.52L602.17 745.68L613.32 751L621.82 742L622.73 754.43Z" fill="#0054B6"/>
<path d="M223.439 469.64C226.139 469.64 228.779 468.839 231.024 467.339C233.269 465.838 235.018 463.706 236.051 461.211C237.084 458.716 237.354 455.971 236.826 453.323C236.299 450.675 234.998 448.243 233.088 446.334C231.178 444.426 228.744 443.126 226.096 442.601C223.447 442.075 220.703 442.347 218.209 443.382C215.714 444.416 213.583 446.168 212.085 448.414C210.586 450.66 209.787 453.3 209.789 456C209.792 459.618 211.231 463.088 213.791 465.645C216.35 468.203 219.821 469.64 223.439 469.64V469.64Z" stroke="#0054B6" stroke-width="4" stroke-linecap="round" stroke-linejoin="round"/>
<path d="M1005.28 324.33V331.33" stroke="#0054B6" stroke-width="4" stroke-linecap="round" stroke-linejoin="round"/>
<path d="M1005.28 351.219V358.219" stroke="#0054B6" stroke-width="4" stroke-linecap="round" stroke-linejoin="round"/>
<path d="M1022.24 341.281H1015.24" stroke="#0054B6" stroke-width="4" stroke-linecap="round" stroke-linejoin="round"/>
<path d="M995.34 341.281H988.34" stroke="#0054B6" stroke-width="4" stroke-linecap="round" stroke-linejoin="round"/>
<path d="M993.31 329.301L998.24 334.231" stroke="#0054B6" stroke-width="4" stroke-linecap="round" stroke-linejoin="round"/>
<path d="M1012.33 348.32L1017.26 353.26" stroke="#0054B6" stroke-width="4" stroke-linecap="round" stroke-linejoin="round"/>
<path d="M1017.26 329.301L1012.33 334.231" stroke="#0054B6" stroke-width="4" stroke-linecap="round" stroke-linejoin="round"/>
<path d="M998.24 348.32L993.31 353.26" stroke="#0054B6" stroke-width="4" stroke-linecap="round" stroke-linejoin="round"/>
<path d="M482.38 241.141V251.271" stroke="#88CE27" stroke-width="4" stroke-linecap="round" stroke-linejoin="round"/>
<path d="M482.38 280V290.13" stroke="#88CE27" stroke-width="4" stroke-linecap="round" stroke-linejoin="round"/>
<path d="M506.88 265.641H496.75" stroke="#88CE27" stroke-width="4" stroke-linecap="round" stroke-linejoin="round"/>
<path d="M468 265.641H457.89" stroke="#88CE27" stroke-width="4" stroke-linecap="round" stroke-linejoin="round"/>
<path d="M465.07 248.32L472.2 255.46" stroke="#88CE27" stroke-width="4" stroke-linecap="round" stroke-linejoin="round"/>
<path d="M492.56 275.809L499.69 282.949" stroke="#88CE27" stroke-width="4" stroke-linecap="round" stroke-linejoin="round"/>
<path d="M499.69 248.32L492.56 255.46" stroke="#88CE27" stroke-width="4" stroke-linecap="round" stroke-linejoin="round"/>
<path d="M472.2 275.809L465.07 282.999" stroke="#88CE27" stroke-width="4" stroke-linecap="round" stroke-linejoin="round"/>
<path d="M411.6 340.26L828.25 342C842.32 342 846.18 343.48 846.18 357.55L853.72 378.04V685.7C853.722 689.045 853.064 692.358 851.784 695.45C850.505 698.541 848.629 701.35 846.264 703.716C843.899 706.082 841.09 707.959 838 709.24C834.909 710.521 831.596 711.18 828.25 711.18H411.6C408.253 711.181 404.939 710.523 401.847 709.243C398.754 707.963 395.944 706.087 393.577 703.72C391.21 701.354 389.332 698.545 388.051 695.453C386.77 692.361 386.11 689.047 386.11 685.7V378.06L393 357.57C393 343.5 397.52 340.26 411.6 340.26Z" fill="#2C425B"/>
<path d="M411.6 332.09H828.25C831.596 332.09 834.909 332.749 838 334.03C841.09 335.31 843.899 337.187 846.264 339.553C848.629 341.92 850.505 344.729 851.784 347.82C853.064 350.911 853.722 354.224 853.72 357.57V378.06H386.11V357.57C386.11 354.223 386.77 350.909 388.051 347.817C389.332 344.725 391.21 341.915 393.577 339.549C395.944 337.183 398.754 335.306 401.847 334.027C404.939 332.747 408.253 332.089 411.6 332.09Z" fill="#16191D"/>
<path d="M422 363.581C423.568 363.569 425.097 363.093 426.395 362.214C427.693 361.334 428.701 360.09 429.293 358.638C429.884 357.186 430.033 355.592 429.72 354.055C429.407 352.519 428.646 351.11 427.533 350.006C426.42 348.901 425.006 348.151 423.467 347.849C421.929 347.548 420.335 347.709 418.888 348.311C417.44 348.914 416.204 349.932 415.334 351.236C414.464 352.54 414 354.073 414 355.641C414 356.689 414.207 357.726 414.61 358.693C415.013 359.661 415.603 360.539 416.347 361.277C417.09 362.015 417.973 362.598 418.943 362.994C419.913 363.389 420.952 363.589 422 363.581Z" fill="#909192"/>
<path d="M447.86 363.579C449.43 363.577 450.964 363.11 452.269 362.236C453.573 361.363 454.589 360.122 455.189 358.671C455.788 357.22 455.944 355.624 455.636 354.084C455.329 352.545 454.572 351.131 453.461 350.021C452.35 348.912 450.935 348.157 449.396 347.851C447.856 347.545 446.26 347.703 444.809 348.305C443.359 348.906 442.12 349.924 441.248 351.229C440.376 352.535 439.91 354.069 439.91 355.639C439.91 356.683 440.116 357.716 440.516 358.68C440.915 359.644 441.501 360.52 442.239 361.257C442.978 361.995 443.854 362.579 444.819 362.978C445.783 363.376 446.817 363.581 447.86 363.579Z" fill="#2D435C"/>
<path d="M473.68 363.579C475.251 363.579 476.786 363.114 478.091 362.241C479.397 361.369 480.415 360.129 481.016 358.678C481.617 357.227 481.774 355.63 481.468 354.09C481.161 352.55 480.405 351.135 479.295 350.025C478.184 348.914 476.769 348.158 475.229 347.852C473.689 347.545 472.093 347.703 470.642 348.304C469.191 348.905 467.951 349.922 467.078 351.228C466.206 352.534 465.74 354.069 465.74 355.639C465.743 357.744 466.58 359.762 468.069 361.251C469.557 362.739 471.575 363.577 473.68 363.579Z" fill="#2D435C"/>
<path d="M561.24 355.48H678.65" stroke="#2D435C" stroke-width="4" stroke-linecap="round" stroke-linejoin="round"/>
<path d="M500.06 489.35H749.06C750.317 489.35 751.523 489.849 752.412 490.738C753.301 491.627 753.8 492.832 753.8 494.09C753.8 495.347 753.301 496.552 752.412 497.441C751.523 498.33 750.317 498.83 749.06 498.83H500.06C498.803 498.83 497.598 498.33 496.709 497.441C495.82 496.552 495.32 495.347 495.32 494.09C495.32 492.832 495.82 491.627 496.709 490.738C497.598 489.849 498.803 489.35 500.06 489.35Z" fill="#0054B6"/>
<path d="M689.22 515.671C693.52 515.673 697.725 514.4 701.301 512.012C704.878 509.625 707.666 506.23 709.312 502.258C710.959 498.286 711.391 493.914 710.554 489.696C709.716 485.478 707.646 481.604 704.606 478.562C701.566 475.521 697.693 473.45 693.475 472.61C689.258 471.77 684.886 472.2 680.913 473.845C676.94 475.49 673.544 478.277 671.155 481.852C668.766 485.428 667.49 489.631 667.49 493.931C667.493 499.695 669.783 505.221 673.857 509.297C677.931 513.374 683.457 515.666 689.22 515.671Z" fill="#9ED2FF"/>
<path d="M499.75 587.749H748.75C749.392 587.72 750.032 587.821 750.634 588.046C751.235 588.271 751.784 588.616 752.249 589.059C752.713 589.503 753.083 590.036 753.335 590.626C753.588 591.217 753.718 591.852 753.718 592.494C753.718 593.136 753.588 593.772 753.335 594.362C753.083 594.953 752.713 595.486 752.249 595.929C751.784 596.373 751.235 596.717 750.634 596.943C750.032 597.168 749.392 597.269 748.75 597.239H499.75C499.109 597.269 498.468 597.168 497.867 596.943C497.265 596.717 496.716 596.373 496.251 595.929C495.787 595.486 495.417 594.953 495.165 594.362C494.912 593.772 494.782 593.136 494.782 592.494C494.782 591.852 494.912 591.217 495.165 590.626C495.417 590.036 495.787 589.503 496.251 589.059C496.716 588.616 497.265 588.271 497.867 588.046C498.468 587.821 499.109 587.72 499.75 587.749Z" fill="#0054B6"/>
<path opacity="0.2" d="M618.79 622.22C623.09 622.22 627.294 620.945 630.869 618.556C634.444 616.166 637.231 612.771 638.876 608.798C640.521 604.824 640.951 600.453 640.111 596.235C639.272 592.018 637.2 588.144 634.159 585.104C631.117 582.064 627.243 579.994 623.025 579.157C618.807 578.319 614.436 578.751 610.463 580.398C606.491 582.045 603.096 584.833 600.709 588.409C598.321 591.986 597.048 596.19 597.05 600.49C597.052 606.254 599.344 611.781 603.421 615.856C607.498 619.931 613.026 622.22 618.79 622.22Z" fill="#939393"/>
<path d="M618.79 614.48C623.089 614.48 627.292 613.205 630.867 610.817C634.442 608.428 637.228 605.034 638.874 601.062C640.52 597.09 640.951 592.719 640.113 588.502C639.275 584.286 637.205 580.412 634.166 577.371C631.126 574.33 627.254 572.259 623.037 571.419C618.821 570.579 614.45 571.008 610.477 572.652C606.505 574.296 603.109 577.081 600.719 580.655C598.328 584.228 597.052 588.431 597.05 592.73C597.05 598.497 599.34 604.027 603.417 608.106C607.493 612.185 613.023 614.477 618.79 614.48Z" fill="white"/>
<path d="M598.42 229.52H742.11C745.84 229.516 749.535 230.248 752.982 231.674C756.428 233.1 759.56 235.192 762.197 237.83C764.834 240.468 766.925 243.6 768.35 247.048C769.775 250.495 770.505 254.19 770.5 257.92V393.32C770.505 397.05 769.775 400.744 768.35 404.192C766.925 407.639 764.834 410.772 762.197 413.41C759.56 416.048 756.428 418.14 752.982 419.566C749.535 420.992 745.84 421.724 742.11 421.72H598.42C594.687 421.728 590.99 420.999 587.54 419.574C584.089 418.15 580.954 416.059 578.314 413.42C575.673 410.782 573.58 407.648 572.153 404.199C570.727 400.749 569.995 397.052 570 393.32V257.92C569.988 254.185 570.715 250.485 572.14 247.033C573.564 243.581 575.657 240.444 578.299 237.804C580.941 235.164 584.078 233.073 587.532 231.652C590.985 230.23 594.686 229.505 598.42 229.52Z" fill="white"/>
<path d="M670.48 385C680.713 385 690.717 381.965 699.225 376.28C707.734 370.595 714.366 362.514 718.282 353.06C722.198 343.605 723.222 333.202 721.226 323.166C719.23 313.129 714.302 303.91 707.066 296.674C699.83 289.438 690.611 284.51 680.574 282.514C670.538 280.517 660.134 281.542 650.68 285.458C641.226 289.374 633.145 296.006 627.46 304.514C621.775 313.023 618.74 323.026 618.74 333.26C618.739 340.055 620.076 346.783 622.676 353.061C625.276 359.339 629.087 365.043 633.892 369.848C638.696 374.653 644.401 378.464 650.679 381.064C656.957 383.663 663.685 385.001 670.48 385Z" fill="#88CE27"/>
<path d="M690.39 364.36V359.58C690.39 359.53 688.9 356.37 688.9 356.33C679.2 356.33 672.02 357.63 662.32 357.63C662.32 357.68 661.32 359.53 661.32 359.58V364.86H651.6C644.25 364.86 638.29 369.19 635.6 371.54C640.607 376.176 646.488 379.77 652.898 382.11C659.309 384.45 666.121 385.491 672.938 385.172C679.755 384.853 686.441 383.18 692.604 380.25C698.768 377.321 704.287 373.194 708.84 368.11C709.1 367.79 709.24 367.65 709.51 367.34C706.672 365.5 703.38 364.483 700 364.4L690.39 364.36Z" fill="#2C425B"/>
<path d="M683.53 364.359H690.39" stroke="black" stroke-width="4" stroke-linecap="round" stroke-linejoin="round"/>
<path d="M646.29 335.871C647.29 330.641 647.29 324.181 648.18 318.361C648.82 314.361 649.85 310.731 652.02 308.021C657.34 301.381 671.66 298.811 683.12 307.211C694.58 315.611 694 327.431 693.56 332.761L690.34 350.691V359.581H661.28V354.751C661.28 354.751 654.91 356.101 651.17 353.531C646.06 350.051 644.53 344.681 646.29 335.871Z" fill="#E6A27A"/>
<path d="M652 308C657.32 301.36 672.5 297.21 684 305.61C695.5 314.01 694 327.41 693.58 332.74L690.36 350.67C690.36 350.67 681.75 347.96 678.09 341.09C678.09 341.09 690.59 335.5 684.91 327.46C679.44 319.74 669.91 329.26 669.91 329.26C664.44 327.46 658.98 319.69 658.98 319.69C650.81 320.15 648.19 318.29 648.19 318.29C648.82 314.39 649.85 310.73 652 308Z" fill="#221F1F"/>
<path d="M678.07 332.49L674.91 334.74" stroke="#734C35" stroke-width="4" stroke-linecap="round" stroke-linejoin="round"/>
<path d="M791.19 518.77H981.36C989.154 518.77 996.629 521.864 1002.14 527.373C1007.65 532.883 1010.75 540.356 1010.76 548.15V746.289C1010.75 754.084 1007.65 761.558 1002.14 767.069C996.63 772.58 989.155 775.677 981.36 775.68H791.19C783.396 775.677 775.922 772.58 770.411 767.068C764.9 761.557 761.802 754.083 761.8 746.289V548.21C761.8 540.41 764.895 532.93 770.405 527.41C775.915 521.89 783.391 518.783 791.19 518.77Z" fill="white"/>
<path d="M897 602.92C897.76 587.37 894.5 577.81 886.69 566.13C878.88 554.45 866.29 547.32 848.76 556.57C836.32 563.09 831.99 579.48 830.86 593.67C830.86 593.68 830.858 593.69 830.854 593.699C830.85 593.708 830.844 593.716 830.836 593.723C830.829 593.73 830.82 593.735 830.81 593.738C830.8 593.74 830.79 593.741 830.78 593.74C830.25 593.9 824.78 595.86 824.64 598.37C824.5 600.88 828.51 604.28 828.89 604.66V604.74C825.17 614.37 825.32 627.5 835.71 632.05C840.79 634.32 848.99 634.63 854.6 632.96C854.68 632.96 854.68 632.96 854.68 633.03L854.53 636.6C854.53 636.68 854.53 636.68 854.6 636.68L877.43 639.49H885.93C885.94 639.49 885.95 639.488 885.96 639.484C885.969 639.479 885.977 639.473 885.984 639.466C885.99 639.458 885.995 639.449 885.998 639.44C886.001 639.43 886.002 639.42 886 639.41C886.46 638.5 897.23 637.74 897.31 636.68C897.46 634.25 897.61 631.36 897.84 628.26C898.38 619.69 896.71 609.44 897 602.92Z" fill="#F49E73"/>
<path d="M899.44 602.47C900.2 586.91 901.65 573.18 893.83 561.58C886.01 549.98 864 543 846.57 552.25H846.5C843.247 549.287 839.171 547.383 834.81 546.79C828.29 546.03 820.02 550.27 820.81 559.22C821.95 573.22 845.55 592 859.2 595.79H859.27C860.03 595.18 875.58 582.89 884.68 592C892.68 602.09 876.49 616.27 875.58 617V617.07C877.93 622.38 891.14 628.3 897.89 628.15C897.96 628.15 897.96 628.15 897.96 628.08C898.31 623.78 899.29 606.33 899.44 602.47Z" fill="#A66241"/>
<path d="M895.12 503.7C910.98 483.45 932.89 474.2 944.12 483C955.35 491.8 951.71 515.31 935.86 535.57C920.01 555.83 898.53 563.94 887.3 555.14C876.07 546.34 879.34 523.88 895.12 503.7Z" fill="#A66241"/>
<path d="M1008.68 639.41C1008.91 638.88 1011.26 635.08 1008.68 631.59C1006.25 628.41 997.75 635.39 995.17 637.59C995.1 637.66 995.02 637.59 995.1 637.51C998.1 633.87 1010.42 618.17 1005.57 616.19C1000.33 613.92 979.7 638.57 977.8 640.84C977.73 640.92 977.65 640.84 977.65 640.77C977.65 639.18 977.73 629.4 975.65 627.95C973.29 626.36 966.77 637.13 959.79 651.09C956 658.67 950.91 671.27 947.2 680.75V680.82L961.08 704.82C961.08 704.82 961.15 704.9 961.15 704.82L983.46 697.62C983.471 697.62 983.481 697.618 983.491 697.614C983.5 697.61 983.509 697.604 983.517 697.597C983.524 697.59 983.53 697.581 983.534 697.571C983.538 697.561 983.54 697.551 983.54 697.54C984.83 688.29 985.81 681.08 986.87 679.79C990.74 675.09 989.98 676.68 1000.87 666.6C1011.19 657.04 1008.23 651.6 1007.87 651.12V651C1013 645.86 1009.06 639.93 1008.68 639.41Z" fill="#F49E73"/>
<path d="M706.69 757.37C688.86 765.94 663.23 783.76 660.11 789.98C657.3 795.67 662.11 796.81 663.11 796.98C663.19 796.98 663.19 797.06 663.11 797.13C657.34 803.05 666.37 805.4 667.05 805.55C667.071 805.55 667.092 805.558 667.107 805.573C667.122 805.588 667.13 805.609 667.13 805.63C669.33 817.01 690.5 802.75 693.83 800.47C693.91 800.4 693.98 800.55 693.91 800.55C691.71 803.28 680.03 817.99 685.72 818.68C691.87 819.44 705.52 802.07 705.9 801.61C706.05 801.53 708.02 800.7 716.82 798.5C722.616 796.933 727.95 793.993 732.37 789.93H732.44C733.05 789.93 742.08 790 753.23 789.55C753.31 789.55 753.31 789.55 753.31 789.47L753.76 762.24V762.16L742.76 745.1C742.76 745.1 742.69 745.02 742.69 745.1C728.92 749.18 714.27 753.72 706.69 757.37Z" fill="#F49E73"/>
<path d="M807.81 751.38C780.04 762.68 760.62 753.88 756.15 741.14L756.08 741.06C751.75 742.35 747.51 743.56 742.65 744.93C742.629 744.93 742.609 744.938 742.594 744.953C742.579 744.968 742.57 744.988 742.57 745.01L753.19 789.38L753.27 789.46C766.61 788.77 783.16 787.18 794.91 783.32L794.99 783.24C792.87 772.09 806.29 753.65 807.88 751.53C808 751.45 807.88 751.38 807.81 751.38Z" fill="#0054B6"/>
<path d="M944.581 745.68C958.681 735.74 969.76 712.54 969.99 690.91C969.991 690.9 969.988 690.89 969.984 690.88C969.98 690.871 969.974 690.863 969.967 690.856C969.959 690.85 969.95 690.845 969.94 690.842C969.931 690.839 969.92 690.838 969.91 690.84L947.24 680.75C947.16 680.75 947.16 680.75 947.16 680.82C946.55 682.49 945.951 684.01 945.341 685.46C943.521 690.15 942.34 693.46 942 694.33C942 694.41 941.85 694.41 941.85 694.33C941.31 692.89 937.911 683.56 933.271 673.77L933.201 673.7C924.02 676.979 915.34 681.519 907.41 687.19C907.33 687.27 907.261 687.19 907.331 687.12C911.661 676.95 913.09 665.81 914.391 649.34C914.391 649.329 914.388 649.319 914.384 649.309C914.38 649.299 914.374 649.291 914.367 649.283C914.36 649.276 914.351 649.27 914.341 649.266C914.331 649.262 914.321 649.26 914.31 649.26C908.923 646.139 903.088 643.862 897.01 642.51L896.94 642.44L897.391 636.75C897.391 636.68 897.39 636.68 897.32 636.68H854.69C854.61 636.68 854.61 636.68 854.61 636.75L854.391 641.6C854.391 641.68 854.39 641.68 854.31 641.68C839.31 641.98 825.18 646.84 813.87 661.86C810.24 666.72 805.68 674.99 800.98 684.47V684.54C817.52 695.92 847.481 694.54 882.151 668.68C882.231 668.61 882.3 668.68 882.23 668.76C879.34 673.54 846.951 729.76 902.331 733.54C902.401 733.54 902.401 733.62 902.331 733.69C899.441 735.37 868.871 753.49 864.781 772.76C864.781 772.84 864.78 772.84 864.85 772.84H917C917.08 772.84 917.081 772.84 917.081 772.76L920.081 748.26C920.081 748.19 920.15 748.19 920.23 748.26C921.59 750.53 935.23 772.26 958.081 762.67C965.751 759.41 971.08 750.31 974.92 739.16C974.92 739.09 974.92 739.09 974.85 739.09C962.18 738.4 947.991 744.24 944.581 745.76C944.581 745.83 944.501 745.76 944.581 745.68Z" fill="#0054B6"/>
<path opacity="0.2" d="M945.19 685.76C943.74 689.48 942.07 694.11 941.92 694.49V694.57L946.78 705.86C946.78 705.94 946.93 705.94 946.93 705.86L945.34 685.86C945.34 685.68 945.26 685.68 945.19 685.76Z" fill="black"/>
<path opacity="0.2" d="M920.23 748.12C923.246 753.059 927.279 757.3 932.06 760.56C932.14 760.63 932.211 760.56 932.211 760.48C931.211 758.66 925.54 747.36 923.11 724.98C923.11 724.9 922.961 724.9 922.961 724.98L920.23 748.12Z" fill="black"/>
<path d="M904 733.241C848.55 729.381 881.1 671.651 884 666.791C884.08 666.721 883.93 666.641 883.93 666.721C849.25 692.661 817.7 695.921 801.17 684.621H801.09C790.39 706.391 779.47 733.771 779.09 734.911L779 735.001C778.32 735.151 768.76 737.581 756.32 741.141C756.311 741.141 756.302 741.143 756.293 741.146C756.285 741.15 756.277 741.155 756.271 741.161C756.264 741.168 756.259 741.176 756.255 741.184C756.252 741.193 756.25 741.202 756.25 741.211C760.64 753.961 776.65 765.801 804.34 754.491C804.41 754.491 804.49 754.571 804.41 754.571C803.12 756.571 792.96 772.241 795.08 783.241C795.08 783.251 795.082 783.262 795.086 783.272C795.09 783.281 795.096 783.29 795.103 783.297C795.111 783.305 795.12 783.311 795.129 783.315C795.139 783.319 795.149 783.321 795.16 783.321C797.314 782.637 799.397 781.746 801.38 780.661C819.82 771.031 831.95 743.871 833.09 741.291C833.09 741.211 833.24 741.211 833.24 741.291L837.19 757.221L841 772.841L841.08 772.921H867.5C867.521 772.921 867.542 772.912 867.557 772.897C867.572 772.882 867.58 772.862 867.58 772.841C871.76 753.571 901.34 734.991 904.07 733.321C904.07 733.301 904.063 733.282 904.05 733.268C904.037 733.253 904.019 733.243 904 733.241Z" fill="#0679FF"/>
<path opacity="0.2" d="M833.07 741.06L836.94 756.84C836.94 756.92 837.09 756.92 837.09 756.84L842.47 721.57C842.47 721.49 842.4 721.42 842.32 721.49L833.07 741.06Z" fill="black"/>
<path d="M933.2 673.701C933.209 673.701 933.218 673.699 933.227 673.695C933.235 673.692 933.243 673.687 933.249 673.68C933.256 673.674 933.261 673.666 933.264 673.657C933.268 673.649 933.27 673.64 933.27 673.631C930.976 668.827 928.418 664.153 925.61 659.631C922.729 655.406 918.914 651.902 914.46 649.391C914.39 649.391 914.39 649.391 914.39 649.461C913.02 665.931 906.5 684.361 902.18 694.681C902.18 694.751 902.25 694.831 902.33 694.751C904.3 692.591 918.56 678.931 933.2 673.701Z" fill="#0679FF"/>
<path d="M970 691C969.7 712.7 955.82 737.43 941.7 747.44C941.63 747.51 941.7 747.59 941.78 747.59C945.58 745.84 962.19 738.59 974.93 739.4C974.951 739.4 974.971 739.391 974.986 739.376C975.001 739.361 975.01 739.341 975.01 739.32C979.56 725.82 981.91 709.81 983.58 697.67C983.58 697.661 983.578 697.651 983.574 697.643C983.571 697.635 983.566 697.627 983.559 697.62C983.553 697.614 983.545 697.609 983.536 697.605C983.528 697.602 983.519 697.6 983.51 697.6L970.14 691C970.06 690.84 970 690.91 970 691Z" fill="#0679FF"/>
<path d="M663.07 797L685.83 779.17" stroke="#171717" stroke-width="4" stroke-linecap="round" stroke-linejoin="round"/>
<path d="M667.09 805.61L692.09 789.23" stroke="#171717" stroke-width="4" stroke-linecap="round" stroke-linejoin="round"/>
<path d="M973.41 647.68L977.65 640.68" stroke="#171717" stroke-width="4" stroke-linecap="round" stroke-linejoin="round"/>
<path d="M1008.68 639.42C1004.56 643.101 1000.26 646.565 995.78 649.8" stroke="#171717" stroke-width="4" stroke-linecap="round" stroke-linejoin="round"/>
<path d="M1007.77 651.09C1003.89 655 999 659 999 659" stroke="#171717" stroke-width="4" stroke-linecap="round" stroke-linejoin="round"/>
<path d="M868.8 605.341L874.19 599.891" stroke="#171717" stroke-width="4" stroke-linecap="round" stroke-linejoin="round"/>
<path d="M941.92 694.49L946.86 705.79" stroke="black" stroke-width="4" stroke-linecap="round" stroke-linejoin="round"/>
<path d="M833.14 741.06L842.4 721.57" stroke="black" stroke-width="4" stroke-linecap="round" stroke-linejoin="round"/>
<path d="M920.23 748.11L923 725.05" stroke="black" stroke-width="4" stroke-linecap="round" stroke-linejoin="round"/>
<path d="M894 561.81C891.12 557.42 886.26 553.7 880.5 551.27" stroke="#171717" stroke-width="4" stroke-linecap="round" stroke-linejoin="round"/>
<path d="M917.27 772.92H841" stroke="black" stroke-width="4" stroke-linecap="round" stroke-linejoin="round"/>
<path d="M240.281 818.57L274.461 835.07H274.521L301.521 814.98C305.161 806.89 306.641 803.92 311.461 794.1V794C310.731 793.68 298.551 780.46 288.911 776.32C273.341 769.59 257.511 770.7 256.281 770.2H256.221C250.902 781.983 246.421 794.126 242.811 806.54C241.693 810.481 240.824 814.489 240.211 818.54L240.281 818.57Z" fill="#FAA378"/>
<path d="M430.06 802.5L397.62 797.07L369.13 802.44L369.07 802.5C369.413 815.626 370.777 828.706 373.15 841.62L409 843.78H409.06C409.74 843.16 429.52 824.69 430.2 824.07V824C429.95 814.73 429.95 810.83 430.13 802.49C430.12 802.56 430.06 802.56 430.06 802.5Z" fill="#FAA378"/>
<path d="M459.6 858.74C453.24 848.23 430.31 845.51 430.19 824.13H414C413.143 824.126 412.296 824.31 411.518 824.669C410.74 825.028 410.05 825.552 409.497 826.206C408.943 826.86 408.539 827.627 408.313 828.453C408.088 829.28 408.046 830.146 408.19 830.99L409.55 839.52L373.08 841.68C373.752 847.419 374.754 853.115 376.08 858.74L379.85 862.38L450.49 863.62L459.6 858.74Z" fill="#9ED2FF"/>
<path d="M376.109 858.8C377.169 863.43 378.339 867.63 379.109 870.6C379.109 870.616 379.116 870.631 379.127 870.643C379.138 870.654 379.153 870.66 379.169 870.66H462.599C462.659 870.66 462.659 870.66 462.659 870.6C462.815 866.448 461.74 862.343 459.569 858.8H376.169C376.169 858.74 376.109 858.8 376.109 858.8Z" fill="#000203"/>
<path d="M426.54 843.72L434.27 838.16" stroke="#000101" stroke-width="4" stroke-linecap="round" stroke-linejoin="round"/>
<path d="M434.14 851L440.57 844.63" stroke="#000101" stroke-width="4" stroke-linecap="round" stroke-linejoin="round"/>
<path d="M404.79 564.83C404.79 564.83 368.39 550.83 368.33 550.83C358.87 548.83 331.87 560.91 330.13 562.76C326.31 568.08 325.88 579.02 325.88 579.14C306.88 615.66 310.61 676.59 291.64 708.85C283.05 723.19 268.64 744.69 256.23 770.15V770.21C258.15 771.02 309.62 793.21 311.41 794.01H311.47C314.47 788.26 317.41 782.69 320.47 777.14C332.59 754.82 337.16 747.41 345.81 730.54C348.04 726.15 350.14 721.7 352.05 717.31C358.035 703.973 363.048 690.22 367.05 676.16C367.05 676.09 367.17 676.09 367.17 676.16C374.71 694.7 381.17 713.11 379.47 728.25C376.38 756.37 367.98 773.12 369.02 802.47C369.02 802.53 369.02 802.53 369.09 802.53H430.02C430.08 802.53 430.08 802.53 430.08 802.47C430.2 796.85 430.39 790.92 430.7 783.81C431.56 769.96 432.93 748.15 432.93 727.39C433 645.1 404.79 564.83 404.79 564.83Z" fill="#0054B6"/>
<path d="M408.43 413.241C408.25 412.501 406.7 400.581 406.7 400.511C407.94 383.831 396.07 380.921 396.01 380.861C366.84 369.861 345.01 382.781 349.01 412.861C349.44 421.271 347.46 433.381 348.14 444.071C348.26 446.071 348.39 448.331 348.51 450.191C348.51 450.251 355.44 455.811 355.44 455.811L383.24 455.131C383.31 455.131 387.19 451.421 387.19 451.361L386.95 446.361C386.95 446.345 386.956 446.33 386.967 446.318C386.978 446.307 386.994 446.301 387.01 446.301C395.6 448.401 403.39 447.471 407.71 441.971C411.24 437.461 410.99 428.971 409.57 421.971V421.911C409.94 421.661 414.14 418.911 413.33 416.341C412.76 414.301 408.86 413.371 408.43 413.241Z" fill="#FAA378"/>
<path opacity="0.15" d="M386.93 446.311C382.946 445.037 379.145 443.252 375.62 441.001C375.56 440.941 375.5 441.061 375.56 441.121L387.11 451.441C387.17 451.511 387.23 451.441 387.23 451.381L387.11 449.471L386.93 446.321V446.311Z" fill="black"/>
<path d="M520.34 618.591C527.58 622.181 532.21 616.59 529.34 613.16C519.7 601.72 509.44 593.57 498.62 584.48L481.17 593L473 612.29V612.35C473.68 616.13 479.55 625.89 488.58 630.951C493.7 646.831 496.58 653.821 500.31 652.641C503.4 651.641 499.21 638.25 498.52 634.23C498.52 634.16 498.58 634.1 498.64 634.16C501.73 637.56 512.42 662.1 518.73 650.91C524.85 651.97 525.28 646.4 524.73 645.16C538.27 648.75 521.15 620.001 520.34 618.591Z" fill="#FAA378"/>
<path d="M524.67 645.101C524.67 645.101 517.67 629.711 512 620.381" stroke="black" stroke-width="4" stroke-linecap="round" stroke-linejoin="round"/>
<path d="M520.53 618.649C520.53 618.649 517.69 614.649 515.77 612.109" stroke="black" stroke-width="4" stroke-linecap="round" stroke-linejoin="round"/>
<path d="M518.61 650.849C518.61 650.849 510.77 635.849 504.61 626.559" stroke="black" stroke-width="4" stroke-linecap="round" stroke-linejoin="round"/>
<path d="M412.261 374.5C403.491 368.44 396.071 375.86 395.581 376.35H395.521C385.571 372.58 372.591 371.41 362.761 376.35C346.151 384.7 345.281 399.21 346.081 412.93C346.451 420.11 347.441 434.69 348.181 444.08C348.181 444.14 348.181 444.14 348.241 444.14C349.171 444.08 361.961 442.91 368.881 433.39V433.33C365.051 430.8 353.311 416.89 363.571 409.54C371.361 403.73 383.571 415.96 384.211 416.65H384.271C385.011 416.21 398.361 408.73 406.771 400.58C415.421 392.05 419.741 380.68 412.261 374.5Z" fill="black"/>
<path d="M375.379 424.369L370.859 420.719" stroke="black" stroke-width="4" stroke-linecap="round" stroke-linejoin="round"/>
<path d="M314.5 858.49C312.89 846.31 293.06 834.64 301.5 815.04C301.5 815.024 301.494 815.009 301.482 814.998C301.471 814.987 301.456 814.98 301.44 814.98L286.66 808.5C285.873 808.153 285.018 807.982 284.158 808.001C283.297 808.02 282.451 808.227 281.68 808.609C280.908 808.99 280.23 809.537 279.692 810.209C279.155 810.882 278.772 811.664 278.57 812.5L276.41 820.78C276.41 820.796 276.404 820.812 276.392 820.823C276.381 820.834 276.366 820.84 276.35 820.84L242.85 806.69C242.79 806.69 242.79 806.69 242.79 806.75C241.18 811.94 239.46 819.11 238.22 824.99C238.16 825.11 238.22 824.86 238.22 824.99L241.8 830.99C241.8 830.99 306.13 861.27 306.13 861.21L314.5 858.49Z" fill="#9ED2FF"/>
<path opacity="0.15" d="M350.34 680.88C351.64 696.59 352.08 714.56 352.08 717.04C352.08 717.1 352.14 717.1 352.2 717.04C358.105 703.734 363.08 690.035 367.09 676.04V675.98C361.16 661.34 354.48 646.5 350.59 633.16C350.59 633.1 350.53 633.1 350.47 633.16C345 640.59 348.18 655.73 350.34 680.88Z" fill="black"/>
<path d="M367.09 676.119C367.09 676.119 353.81 648.629 350.59 633.119" stroke="black" stroke-width="4" stroke-linecap="round" stroke-linejoin="round"/>
<path d="M238.19 824.87C237.19 829.51 236.46 833.87 236.02 836.98C236.02 836.996 236.026 837.012 236.037 837.023C236.048 837.034 236.064 837.04 236.08 837.04C238 837.91 310.24 869.61 312.53 870.6C312.59 870.6 312.59 870.6 312.59 870.54C314.386 866.813 315.08 862.649 314.59 858.54C314.59 858.54 314.59 858.47 314.53 858.47L238.34 824.86C238.317 824.872 238.291 824.879 238.266 824.881C238.24 824.883 238.214 824.879 238.19 824.87Z" fill="#000203"/>
<path d="M289.23 829.45L300.17 827.4" stroke="#000101" stroke-width="4" stroke-linecap="round" stroke-linejoin="round"/>
<path d="M293.061 839L302.891 834.86" stroke="#000101" stroke-width="4" stroke-linecap="round" stroke-linejoin="round"/>
<path d="M450.7 544.249C450.7 544.249 430.93 482.389 415.97 464.349C407.5 454.029 388.23 454.349 387.48 454.349L387.23 451.449L387.11 449.449L348.55 450.309C348.67 452.309 348.67 453.899 348.8 455.629C335.8 459.389 325.56 467.359 315.06 487.829C306.71 504.069 295.29 535.529 293.99 551.039C292.5 569.579 306.59 578.599 318.89 579.529C321.231 579.761 323.594 579.616 325.89 579.099L335.83 565.099C355.11 565.099 385.33 564.729 404.74 564.789C404.8 564.789 404.8 564.789 404.8 564.729C404.86 563.729 405.42 550.269 405.48 549.219C417.22 574.679 441.63 598.099 472.9 612.219H473C473.43 611.729 479.86 604.859 486.22 598.069C492.58 591.279 498.52 584.599 498.64 584.469C473.26 562.239 450.76 544.309 450.7 544.249Z" fill="#88CE27"/>
<path d="M385.81 565.27C385.81 565.27 404.54 670.75 404.41 713.76C404.29 745.15 398.92 767.27 397.62 802.44" stroke="black" stroke-width="4" stroke-linecap="round" stroke-linejoin="round"/>
<path d="M332.36 546.67L325 549.13" stroke="black" stroke-width="4" stroke-linecap="round" stroke-linejoin="round"/>
<path d="M335.449 565.27L330.449 531.52" stroke="black" stroke-width="4" stroke-linecap="round" stroke-linejoin="round"/>
<path d="M405.47 549.131L397.68 530.531" stroke="black" stroke-width="4" stroke-linecap="round" stroke-linejoin="round"/>
<path opacity="0.15" d="M319.001 579.54C321.296 579.78 323.614 579.635 325.861 579.11L335.811 565.11L330.431 531.56C330.371 531.56 330.371 531.56 330.371 531.49C322.091 534.77 325.241 556.7 323.941 566.1C323.205 570.873 321.482 575.441 318.881 579.51C318.891 579.48 318.891 579.54 319.001 579.54Z" fill="black"/>
<path opacity="0.15" d="M405.47 549.129L397.74 530.529C397.74 530.469 397.68 530.469 397.62 530.529L379.14 564.339C379.113 564.404 379.102 564.473 379.107 564.543C379.112 564.612 379.133 564.679 379.169 564.739C379.205 564.799 379.255 564.849 379.314 564.885C379.374 564.922 379.441 564.944 379.51 564.949L404.73 564.829L404.79 564.769L405.47 549.129Z" fill="black"/>
<path d="M319.939 594.371L328.939 594.431" stroke="black" stroke-width="4" stroke-linecap="round" stroke-linejoin="round"/>
<path d="M350.66 594.43H374.2" stroke="black" stroke-width="4" stroke-linecap="round" stroke-linejoin="round"/>
</g>
</g>
<defs>
<clipPath id="clip0_331_15195">
<rect width="1200" height="1080" fill="white"/>
</clipPath>
<clipPath id="clip1_331_15195">
<rect width="1200" height="1080" fill="white"/>
</clipPath>
</defs>
</svg>
