<svg width="1200" height="1080" viewBox="0 0 1200 1080" fill="none" xmlns="http://www.w3.org/2000/svg">
<g clip-path="url(#clip0_331_15197)">
<rect width="1200" height="1080" fill="white"/>
<path d="M1200 0H0V1080H1200V0Z" fill="#EFF3E9"/>
<path opacity="0.2" d="M471.55 256.75H846.2C849.818 256.751 853.4 257.467 856.742 258.855C860.083 260.243 863.117 262.277 865.671 264.84C868.225 267.403 870.247 270.445 871.624 273.791C873 277.137 873.702 280.722 873.69 284.34V569.88C873.693 573.491 872.983 577.067 871.603 580.403C870.222 583.74 868.197 586.771 865.644 589.324C863.091 591.877 860.06 593.902 856.723 595.283C853.387 596.663 849.811 597.373 846.2 597.37H471.55C464.254 597.37 457.255 594.476 452.09 589.322C446.925 584.168 444.016 577.176 444 569.88V284.34C444.008 277.032 446.912 270.025 452.076 264.854C457.239 259.683 464.242 256.769 471.55 256.75Z" fill="black"/>
<path d="M457.94 243.14H832.59C836.208 243.141 839.79 243.856 843.131 245.244C846.472 246.633 849.507 248.667 852.06 251.23C854.614 253.793 856.637 256.834 858.013 260.181C859.389 263.527 860.091 267.112 860.08 270.73V556.27C860.082 559.88 859.373 563.456 857.992 566.793C856.612 570.129 854.587 573.161 852.034 575.714C849.481 578.267 846.449 580.292 843.113 581.672C839.776 583.053 836.2 583.762 832.59 583.76H457.94C450.637 583.768 443.63 580.877 438.457 575.723C433.284 570.569 430.368 563.572 430.35 556.27V270.73C430.363 263.416 433.274 256.406 438.445 251.235C443.616 246.064 450.626 243.153 457.94 243.14Z" fill="#0054B6"/>
<path d="M491.329 278.44H609.739C613.105 278.448 616.33 279.789 618.71 282.169C621.09 284.549 622.431 287.775 622.439 291.14V291.69C622.428 295.055 621.087 298.28 618.708 300.659C616.328 303.038 613.104 304.38 609.739 304.39H491.329C487.964 304.38 484.74 303.038 482.36 300.659C479.981 298.28 478.639 295.055 478.629 291.69V291.14C478.637 287.775 479.977 284.549 482.357 282.169C484.737 279.789 487.963 278.448 491.329 278.44Z" fill="#2C475B"/>
<path d="M783.68 278.44H860.081V304.39H783.68C780.315 304.38 777.091 303.038 774.712 300.659C772.332 298.28 770.991 295.055 770.98 291.69V291.14C770.988 287.775 772.329 284.549 774.709 282.169C777.089 279.789 780.315 278.448 783.68 278.44Z" fill="#2C475B"/>
<path d="M590.69 399.57H630.24C633.615 399.565 636.855 400.899 639.247 403.281C641.64 405.662 642.989 408.895 643 412.27V412.81C642.989 416.178 641.647 419.405 639.266 421.786C636.884 424.167 633.658 425.51 630.29 425.52H590.69C587.326 425.504 584.104 424.16 581.727 421.779C579.35 419.398 578.011 416.175 578 412.81V412.27C577.997 410.603 578.324 408.951 578.96 407.409C579.597 405.868 580.532 404.467 581.71 403.288C582.889 402.108 584.289 401.172 585.83 400.535C587.371 399.897 589.022 399.569 590.69 399.57Z" fill="#88CE27"/>
<path d="M551.67 520.7H591.23C594.596 520.713 597.82 522.057 600.199 524.438C602.578 526.819 603.919 530.044 603.93 533.41V533.94C603.919 537.306 602.578 540.531 600.199 542.912C597.82 545.293 594.596 546.637 591.23 546.65H551.67C548.308 546.632 545.091 545.285 542.717 542.905C540.344 540.524 539.008 537.302 539 533.94V533.41C538.996 531.743 539.321 530.092 539.956 528.551C540.591 527.01 541.523 525.609 542.7 524.428C543.877 523.248 545.275 522.311 546.814 521.671C548.353 521.031 550.003 520.702 551.67 520.7Z" fill="#2C475B"/>
<path d="M638.05 520.7H714.72C718.087 520.711 721.312 522.054 723.692 524.435C726.072 526.817 727.412 530.044 727.42 533.41V533.94C727.412 537.307 726.072 540.534 723.692 542.915C721.312 545.297 718.087 546.64 714.72 546.65H638.05C634.682 546.64 631.456 545.297 629.074 542.916C626.693 540.535 625.351 537.308 625.34 533.94V533.41C625.329 531.738 625.651 530.081 626.286 528.534C626.921 526.987 627.857 525.582 629.039 524.399C630.221 523.217 631.627 522.281 633.174 521.646C634.72 521.011 636.378 520.69 638.05 520.7Z" fill="#2C475B"/>
<path d="M590.69 460.09H725.79C729.155 460.1 732.379 461.442 734.759 463.821C737.138 466.201 738.479 469.425 738.49 472.79V473.33C738.469 476.689 737.123 479.904 734.745 482.276C732.367 484.649 729.149 485.987 725.79 486H590.69C587.333 485.984 584.117 484.645 581.741 482.273C579.365 479.901 578.021 476.687 578 473.33V472.79C578.013 469.427 579.354 466.206 581.731 463.828C584.107 461.449 587.328 460.106 590.69 460.09Z" fill="#E9EEF3"/>
<path d="M491.329 339H609.739C613.105 339.008 616.33 340.348 618.71 342.728C621.09 345.108 622.431 348.334 622.439 351.7V352.24C622.431 355.606 621.09 358.832 618.71 361.212C616.33 363.592 613.105 364.932 609.739 364.94H491.329C487.963 364.932 484.737 363.592 482.357 361.212C479.977 358.832 478.637 355.606 478.629 352.24V351.7C478.637 348.334 479.977 345.108 482.357 342.728C484.737 340.348 487.963 339.008 491.329 339Z" fill="#32A0FF"/>
<path d="M672.34 338.77H732.34C735.699 338.793 738.913 340.142 741.283 342.521C743.654 344.901 744.989 348.121 745 351.48V352C744.989 355.365 743.648 358.589 741.268 360.968C738.889 363.348 735.665 364.689 732.3 364.7H672.3C668.935 364.689 665.71 363.348 663.331 360.968C660.952 358.589 659.61 355.365 659.6 352V351.45C659.601 349.78 659.932 348.127 660.573 346.585C661.215 345.043 662.154 343.643 663.338 342.465C664.521 341.287 665.926 340.354 667.47 339.72C669.015 339.086 670.67 338.763 672.34 338.77Z" fill="#32A0FF"/>
<path d="M457.94 243.14H509.29V583.76H457.94C450.637 583.768 443.63 580.877 438.457 575.723C433.284 570.569 430.368 563.572 430.35 556.27V270.73C430.348 267.106 431.061 263.518 432.447 260.17C433.833 256.822 435.865 253.78 438.428 251.218C440.99 248.655 444.032 246.623 447.38 245.237C450.728 243.851 454.316 243.138 457.94 243.14Z" fill="#0054B6"/>
<path opacity="0.2" d="M457.94 243.14H509.29V583.76H457.94C450.637 583.768 443.63 580.877 438.457 575.723C433.284 570.569 430.368 563.572 430.35 556.27V270.73C430.348 267.106 431.061 263.518 432.447 260.17C433.833 256.822 435.865 253.78 438.428 251.218C440.99 248.655 444.032 246.623 447.38 245.237C450.728 243.851 454.316 243.138 457.94 243.14Z" fill="#E9EEF3"/>
<path d="M860.079 321.18H510.199" stroke="#FEFEFE" stroke-width="4" stroke-linejoin="round"/>
<path d="M860.079 382.42H510.199" stroke="#FEFEFE" stroke-width="4" stroke-linejoin="round"/>
<path d="M860.079 444.57H510.199" stroke="#FEFEFE" stroke-width="4" stroke-linejoin="round"/>
<path d="M860.079 503H510.199" stroke="#FEFEFE" stroke-width="4" stroke-linejoin="round"/>
<path d="M509.289 243.14V583.76" stroke="#2F2F2F" stroke-width="4" stroke-linejoin="round"/>
<path d="M461 291.41H478.61" stroke="#2F2F2F" stroke-width="4" stroke-linecap="round" stroke-linejoin="round"/>
<path d="M461 351.75H478.61" stroke="#2F2F2F" stroke-width="4" stroke-linecap="round" stroke-linejoin="round"/>
<path d="M461 412.09H478.61" stroke="#2F2F2F" stroke-width="4" stroke-linecap="round" stroke-linejoin="round"/>
<path d="M461 473.33H478.61" stroke="#2F2F2F" stroke-width="4" stroke-linecap="round" stroke-linejoin="round"/>
<path d="M461 533.67H478.61" stroke="#2F2F2F" stroke-width="4" stroke-linecap="round" stroke-linejoin="round"/>
<path opacity="0.2" d="M958.301 513.72H742.301C734.079 513.72 726.194 516.986 720.38 522.799C714.567 528.613 711.301 536.498 711.301 544.72V759.72C711.301 767.941 714.567 775.826 720.38 781.64C726.194 787.454 734.079 790.72 742.301 790.72H958.301C966.522 790.72 974.408 787.454 980.221 781.64C986.035 775.826 989.301 767.941 989.301 759.72V544.62C989.274 536.415 985.997 528.556 980.186 522.764C974.375 516.972 966.505 513.72 958.301 513.72Z" fill="#272727"/>
<path d="M944.441 499.85H728.441C720.22 499.85 712.335 503.116 706.521 508.929C700.707 514.743 697.441 522.628 697.441 530.85V745.85C697.441 754.071 700.707 761.956 706.521 767.77C712.335 773.584 720.22 776.85 728.441 776.85H944.441C952.663 776.85 960.548 773.584 966.362 767.77C972.175 761.956 975.441 754.071 975.441 745.85V530.76C975.418 522.554 972.141 514.692 966.33 508.897C960.519 503.103 952.648 499.85 944.441 499.85Z" fill="white"/>
<path d="M397.67 583.05L471.55 859.88" stroke="#1F2123" stroke-width="4" stroke-linecap="round" stroke-linejoin="round"/>
<path d="M611.109 859.88L537.109 582.49" stroke="#1F2123" stroke-width="4" stroke-linecap="round" stroke-linejoin="round"/>
<path d="M339.17 859.88L404.17 554.14C412.38 515.65 450.26 484.4 488.75 484.4C527.24 484.4 551.87 515.65 543.66 554.14L478.66 860.14" stroke="#1F2123" stroke-width="4" stroke-linecap="round" stroke-linejoin="round"/>
<path d="M364.141 744.88H502.251" stroke="#1F2123" stroke-width="4" stroke-linecap="round" stroke-linejoin="round"/>
<path d="M347 826.08H485.1" stroke="#1F2123" stroke-width="4" stroke-linecap="round" stroke-linejoin="round"/>
<path d="M381.25 663.76H519.36" stroke="#1F2123" stroke-width="4" stroke-linecap="round" stroke-linejoin="round"/>
<path d="M398.43 582.63H536.53" stroke="#1F2123" stroke-width="4" stroke-linecap="round" stroke-linejoin="round"/>
<path d="M615.29 358.51C614.292 357.784 613.123 357.328 611.897 357.186C610.67 357.044 609.428 357.221 608.29 357.7C608.22 357.7 608.14 357.7 608.22 357.63C609.61 354.03 606.53 351.91 602.64 352.63C591.13 354.69 579.97 367.16 565.22 370.17C565.203 370.171 565.185 370.166 565.17 370.157C565.155 370.148 565.143 370.134 565.136 370.118C565.129 370.102 565.126 370.084 565.128 370.067C565.131 370.049 565.139 370.033 565.15 370.02C573.74 359.09 576.74 351.82 566.55 355.49C541.97 364.37 484.66 432.49 482.84 434.66H482.76C480.76 432.97 477.55 429.66 473.44 425.78H473.37L456.82 445.6V445.67L453.73 479.42V479.49C469.21 489.26 491.81 498.72 510.23 485.29C531.43 469.88 546.23 439.8 561.15 407.52L561.22 407.45C573.77 403.05 585.87 398.87 594.09 392.04C612.73 376.71 618.3 368 615.36 365V364.92C616.17 364.3 617.56 360.63 615.29 358.51Z" fill="#A66241"/>
<path d="M404.139 806.57C404.209 798.06 405.599 787.711 407.509 776.641V776.56L405.459 772.56L405.379 772.48L339.719 774.48H339.649L338.329 776.48C338.109 780.95 338.109 793.58 338.539 802.82C339.066 812.311 340.269 821.751 342.139 831.07C342.369 832.46 347.279 833.78 347.569 834.88C347.569 834.899 347.576 834.917 347.589 834.93C347.602 834.943 347.62 834.951 347.639 834.951L397.639 850.07C397.709 850.07 397.709 850.07 397.709 850L404.539 816.24C404.199 813.029 404.065 809.799 404.139 806.57Z" fill="#A66241"/>
<path d="M296.001 251.1C308.771 235.91 335.841 237.75 356.531 255.21C377.221 272.67 383.611 299.01 370.841 314.21C358.071 329.41 331.001 327.57 310.311 310.11C302.198 303.448 295.952 294.796 292.181 285C287.631 272.52 288.591 259.9 296.001 251.1Z" fill="#2F201E"/>
<path opacity="0.2" d="M314.85 299.74C306.05 295.99 298.78 290.64 292.4 285.13C292.32 285.06 292.25 285.13 292.25 285.21C295.293 293.167 300.052 300.354 306.19 306.26C318.88 318.74 335.1 325.26 349.19 324.31C356.3 323.87 362.61 321.67 367.74 317.2C372.114 313.221 375.141 307.978 376.4 302.2C376.401 302.19 376.401 302.18 376.398 302.17C376.395 302.161 376.39 302.152 376.383 302.144C376.377 302.137 376.369 302.131 376.359 302.126C376.35 302.122 376.34 302.12 376.33 302.12C359.68 309.42 336.64 309.2 314.85 299.74Z" fill="black"/>
<path d="M420.129 320.65C416.249 313.1 409.419 305.65 399.739 302.38C392.179 299.52 378.739 299.451 366.939 305.541C347.939 315.301 347.569 332.101 349.039 346.541C349.549 351.381 351.529 370.68 353.039 382.27C353.039 382.35 353.039 382.35 353.109 382.35H399.299L404.299 382.201C404.318 382.201 404.336 382.193 404.349 382.18C404.362 382.167 404.369 382.149 404.369 382.13L403.849 376.26C403.849 376.239 403.858 376.219 403.873 376.204C403.888 376.189 403.908 376.18 403.929 376.18C416.769 378.18 427.699 375.45 431.219 368.11C435.219 359.97 431.439 349.4 428.869 342.58V342.5C429.319 342.14 433.349 338.621 432.389 335.761C431.589 333.481 425.499 332.971 424.909 332.891C424.891 332.891 424.873 332.883 424.86 332.87C424.847 332.857 424.839 332.839 424.839 332.82C423.662 328.623 422.085 324.547 420.129 320.65Z" fill="#A66241"/>
<path opacity="0.2" d="M403.769 376.18C403.109 376.04 395.919 374.35 392.179 373.1C392.099 373.1 392.029 373.18 392.099 373.25L404.209 382.2C404.289 382.27 404.359 382.2 404.359 382.13L403.769 376.18Z" fill="#171717"/>
<path d="M426.44 394.45C417.44 391.66 406.19 391.74 405.24 391.74C405.17 391.74 405.17 391.74 405.17 391.66L404.36 382.35C404.36 382.27 404.36 382.27 404.29 382.27H352.93C352.909 382.27 352.888 382.278 352.873 382.293C352.858 382.308 352.85 382.328 352.85 382.35C353.44 386.82 353.85 390.2 354.03 390.86C354.03 390.87 354.028 390.88 354.024 390.889C354.02 390.898 354.014 390.906 354.006 390.913C353.999 390.92 353.99 390.925 353.98 390.927C353.97 390.93 353.96 390.931 353.95 390.93C345.3 394.31 329.52 403.48 320.13 419.25C309.27 437.45 278.38 504.25 309.27 520.94C309.35 520.94 309.35 521.02 309.42 521.02C315.95 524.46 329.96 525.64 330.77 525.71H330.85L341 514.34L420.24 514.19C420.259 514.19 420.276 514.182 420.289 514.169C420.303 514.156 420.31 514.138 420.31 514.12L435.79 465.84C435.79 465.77 435.87 465.77 435.94 465.84C441.385 470.955 447.278 475.57 453.55 479.63H453.62L473.28 426.07V426C462.47 415.21 445.23 399.81 426.44 394.45Z" fill="#88CE27"/>
<path opacity="0.2" d="M430.921 481L435.831 465.74V465.67L422.701 454C422.631 453.92 422.551 454 422.551 454.07L430.921 481Z" fill="black"/>
<path opacity="0.2" d="M309.49 521.09C316.02 524.54 330.11 525.71 330.91 525.71H331L341.42 515.44V515.37L333.28 471.64C333.28 471.57 333.12 471.57 333.12 471.64C332.24 500.4 311 519.7 309.49 521C309.42 521 309.42 521 309.49 521.09Z" fill="black"/>
<path opacity="0.2" d="M488.879 427.69C485.359 431.69 483.149 434.37 482.879 434.74V434.81L491.459 442.44L488.879 427.69Z" fill="#171717"/>
<path d="M206.049 734.07C206.038 734.07 206.028 734.072 206.018 734.076C206.008 734.08 206 734.086 205.992 734.094C205.985 734.101 205.979 734.11 205.975 734.12C205.971 734.129 205.969 734.14 205.969 734.15C202.599 740.9 199.369 748.68 196.279 756.75C192.769 765.85 189.899 774.06 187.479 781.47C186.899 783.31 186.309 785.14 185.719 786.98C184.249 791.45 183.889 791.98 182.719 796.44V796.51L231.209 833H231.359L242.509 805.93C243.319 802.99 248.369 800.93 249.509 798.14C250.311 796.163 251.219 794.23 252.229 792.35C257.607 782.283 263.56 772.533 270.059 763.15V763.07L237.699 743.34L206.049 734.07Z" fill="#A66241"/>
<path d="M420.211 513.999C411.211 513.999 351.751 513.709 341.121 513.859H341.001C289.391 555.999 290.791 610.999 253.221 661.659C216.171 709.939 208.611 728.859 206.051 733.999V734.069C208.321 735.069 268.191 762.069 270.101 762.979H270.171C294.601 728.859 317.491 695.039 336.271 658.509C341.411 648.889 346.391 639.359 351.171 630.109C351.171 630.039 351.311 630.039 351.311 630.109C355.931 650.219 359.831 671.199 353.511 693.869C343.681 729.449 339.351 753.739 338.331 776.629C338.331 776.699 338.331 776.699 338.401 776.699H407.401C407.41 776.699 407.419 776.698 407.428 776.694C407.436 776.691 407.444 776.685 407.45 776.679C407.457 776.672 407.462 776.665 407.465 776.656C407.469 776.648 407.471 776.639 407.471 776.629C408.131 772.889 408.941 768.919 409.741 764.739C414.151 741.919 419.871 716.739 422.291 695.189C433.521 596.659 420.681 516.539 420.241 514.039C420.281 513.999 420.281 514.119 420.211 513.999Z" fill="#32A0FF"/>
<path d="M246.621 806.79C247.378 803.834 248.357 800.939 249.551 798.13C249.551 798.06 249.551 798.06 249.481 798.06C244.131 796.59 234.581 794.39 230.041 795.2C229.961 795.2 226.371 795.93 226.371 804.59C226.371 814.13 227.471 824.59 222.701 822.79C217.561 820.79 217.561 811.34 213.381 809.29C209.931 807.67 190.571 799.68 182.721 796.45C182.641 796.45 182.641 796.45 182.641 796.52C179.851 806.28 178.241 813.91 177.211 819.34C177.211 819.35 177.213 819.36 177.217 819.37C177.221 819.379 177.227 819.387 177.235 819.394C177.242 819.4 177.251 819.405 177.261 819.408C177.271 819.411 177.281 819.412 177.291 819.41L216.291 839.14L266.621 854.63C266.691 854.63 266.691 854.63 266.691 854.55C266.031 840.69 251.951 832.62 246.301 817.65C245.441 814.57 245.591 811 246.621 806.79Z" fill="#0054B6"/>
<path d="M303.26 560.72C305.02 562.99 307.74 564.31 312.5 564.31C318.3 564.31 326.15 558.81 328.06 552.06L331.87 538.63H318.22" stroke="#030609" stroke-width="4" stroke-linecap="round" stroke-linejoin="round"/>
<path d="M340.681 418.89C340.681 418.89 351.751 408.33 358.141 400.18C358.211 400.11 358.281 400.18 358.281 400.26C357.621 411.34 354.911 417.86 354.541 418.75C354.541 418.82 354.541 418.82 354.621 418.82H370.681C371.411 418.01 389.981 395.93 385.871 358.95C385.871 358.931 385.864 358.913 385.85 358.9C385.837 358.887 385.819 358.88 385.801 358.88C384.851 358.43 365.181 349.88 372.881 335.88C379.411 324.29 397.751 337.21 398.711 337.94H398.781L405.241 333.24C405.241 333.24 405.311 333.17 405.241 333.17C405.021 332.65 402.671 328.03 395.991 319.89C395.921 319.81 395.991 319.74 396.071 319.74C402.821 321.79 409.271 328.33 409.861 328.91H409.941L420.001 320.65V320.58C416.261 313.1 409.951 304.29 400.401 301.14C392.851 298.27 379.401 298.27 367.611 304.44C348.611 314.27 347.211 329.38 341.711 349.19C330.781 386.61 293.581 377 287.711 418.75C287.711 418.82 287.711 418.82 287.791 418.82L340.681 418.89Z" fill="#2F201E"/>
<path d="M333.109 471.57L341.109 513.9" stroke="black" stroke-width="4" stroke-linecap="round" stroke-linejoin="round"/>
<path d="M328.059 494.24L335.999 491" stroke="black" stroke-width="4" stroke-linecap="round" stroke-linejoin="round"/>
<path d="M422.699 454L435.829 465.74" stroke="black" stroke-width="4" stroke-linecap="round" stroke-linejoin="round"/>
<path d="M384.4 342.73L391.08 347.65" stroke="#171717" stroke-width="4" stroke-linecap="round" stroke-linejoin="round"/>
<path d="M382.789 552.27L386.599 538.92H360.599L356.789 552.27C354.879 559.02 359.129 564.45 366.319 564.45C373.509 564.45 380.999 558.94 382.789 552.27Z" stroke="#030609" stroke-width="4" stroke-linecap="round" stroke-linejoin="round"/>
<path d="M342.211 831.22C343.761 841.42 345.301 849.05 346.691 854.63L346.771 854.7L366.651 854.92L443.761 854.7C443.77 854.7 443.779 854.698 443.788 854.694C443.796 854.691 443.804 854.686 443.81 854.679C443.817 854.673 443.822 854.665 443.826 854.656C443.829 854.648 443.831 854.639 443.831 854.63C437.671 841.78 421.081 839.74 409.571 827.85C408.241 826.421 407.195 824.751 406.491 822.93C405.36 819.786 404.644 816.508 404.361 813.18C404.361 813.1 404.361 813.1 404.291 813.1C391.811 813.1 383.451 813.25 383.451 821.17C383.451 829.9 394.301 840.76 388.581 842.08C382.861 843.4 374.201 831.29 364.081 831.29L342.211 831.22Z" fill="#0054B6"/>
<path d="M380.219 776.13C382.639 742.74 395.109 708.69 403.039 664.82C411.109 620.14 409.639 543.47 405.529 514.49" stroke="#030609" stroke-width="4" stroke-linecap="round" stroke-linejoin="round"/>
<path d="M482.871 434.73L491.451 442.51" stroke="#171717" stroke-width="4" stroke-linecap="round" stroke-linejoin="round"/>
<path d="M343.32 585.66C343.83 596.66 347.2 611.66 351.32 629.9" stroke="#030609" stroke-width="4" stroke-linecap="round" stroke-linejoin="round"/>
<path d="M608.32 357.7C600.47 365.04 591.81 373.47 574.57 380.07" stroke="#171717" stroke-width="4" stroke-linecap="round" stroke-linejoin="round"/>
<path d="M615.221 365C612.071 368.67 600.401 381.58 583.961 388.91" stroke="#171717" stroke-width="4" stroke-linecap="round" stroke-linejoin="round"/>
<path d="M376.701 301C373.551 301.81 356.451 306.5 349.191 324.33" stroke="black" stroke-width="4" stroke-linecap="round" stroke-linejoin="round"/>
<path d="M177.36 819.41L266.72 854.63L266.79 854.7C266.878 858.026 266.331 861.339 265.18 864.46C265.18 864.53 265.1 864.53 265.1 864.53L176 829.31L175.93 829.24C176 828.8 176.22 825.65 177.33 819.48C177.21 819.41 177.29 819.41 177.36 819.41Z" fill="black"/>
<path d="M346.771 854.7H443.831C443.85 854.7 443.868 854.708 443.881 854.721C443.894 854.734 443.901 854.752 443.901 854.77C445.388 857.82 446.239 861.141 446.401 864.53C446.401 864.6 446.401 864.6 446.321 864.6H349.481C349.463 864.6 349.445 864.593 349.432 864.58C349.419 864.567 349.411 864.549 349.411 864.53C349.261 864.09 348.231 861.01 346.691 854.77L346.771 854.7Z" fill="black"/>
<path opacity="0.2" d="M336.489 658.21C341.629 648.68 346.609 639.14 351.389 629.89V629.82C347.939 614.82 343.979 600.25 343.459 585.65C343.459 585.58 343.319 585.58 343.319 585.65C335.469 615.37 336.269 654.54 336.319 658.14C336.339 658.21 336.419 658.29 336.489 658.21Z" fill="#030609"/>
<path d="M239.06 651.53C239.602 648.195 239.143 644.775 237.74 641.702C236.338 638.629 234.057 636.04 231.183 634.264C228.31 632.487 224.975 631.602 221.599 631.722C218.223 631.841 214.958 632.958 212.217 634.933C209.477 636.907 207.383 639.65 206.201 642.815C205.019 645.979 204.802 649.423 205.577 652.711C206.352 655.999 208.085 658.983 210.556 661.286C213.027 663.589 216.126 665.107 219.46 665.65C221.674 666.01 223.938 665.93 226.121 665.415C228.304 664.9 230.365 663.96 232.185 662.649C234.005 661.338 235.549 659.681 236.728 657.773C237.908 655.865 238.7 653.744 239.06 651.53Z" fill="#2C475B"/>
<path d="M588.75 866.54C589.388 862.54 588.826 858.441 587.135 854.76C585.444 851.079 582.7 847.982 579.25 845.86C575.8 843.738 571.799 842.686 567.751 842.838C563.703 842.989 559.791 844.336 556.509 846.709C553.227 849.083 550.722 852.376 549.31 856.172C547.898 859.969 547.644 864.098 548.578 868.039C549.512 871.981 551.594 875.557 554.559 878.315C557.525 881.074 561.241 882.892 565.24 883.54C567.9 883.971 570.619 883.872 573.242 883.251C575.864 882.629 578.338 881.496 580.522 879.917C582.705 878.338 584.556 876.344 585.968 874.048C587.38 871.753 588.325 869.201 588.75 866.54Z" fill="#88CE27"/>
<path d="M996.15 285.89C996.644 282.842 996.223 279.717 994.941 276.908C993.659 274.1 991.573 271.735 988.946 270.112C986.32 268.489 983.271 267.681 980.186 267.791C977.101 267.901 974.117 268.923 971.613 270.728C969.109 272.533 967.196 275.041 966.116 277.933C965.037 280.826 964.839 283.973 965.548 286.978C966.258 289.982 967.842 292.709 970.101 294.813C972.36 296.918 975.192 298.305 978.24 298.8C980.263 299.128 982.332 299.055 984.327 298.584C986.323 298.113 988.206 297.253 989.869 296.054C991.532 294.856 992.943 293.341 994.02 291.597C995.098 289.853 995.822 287.913 996.15 285.89Z" fill="#0054B6"/>
<path d="M986.92 379.63L954.92 391.36" stroke="#1F2123" stroke-width="4" stroke-linecap="round" stroke-linejoin="round"/>
<path d="M961.81 347.08L938.68 378.78" stroke="#1F2123" stroke-width="4" stroke-linecap="round" stroke-linejoin="round"/>
<path d="M828.9 628.31L829.79 611.87C819.28 613.87 808.93 611.07 804.2 604.01C799.63 596.79 800.43 587.73 802.2 577.62C802.762 573.664 803.056 569.675 803.08 565.68C803.48 556.38 803.97 543.68 808.86 536.41C816.95 524.22 830.02 524.54 849.35 524.54C859.21 524.54 863.78 527.27 870.6 533.92C877.25 540.5 885.75 546.27 885.92 555.18C886.32 574.18 881.19 626.62 881.19 629.18C881.19 629.18 891.61 629.58 893.62 629.9L882.47 687L831.07 699.75L813.18 629.83C818.48 629.11 828.9 628.31 828.9 628.31Z" fill="#EAA58B"/>
<path opacity="0.2" d="M842.38 607.7C838.532 609.576 834.458 610.948 830.26 611.78C830.13 611.811 830.013 611.883 829.928 611.986C829.844 612.089 829.795 612.217 829.789 612.35L829.299 621.35C829.277 621.475 829.299 621.603 829.36 621.713C829.422 621.824 829.519 621.91 829.637 621.957C829.754 622.004 829.884 622.009 830.005 621.971C830.126 621.934 830.23 621.856 830.299 621.75L843 608.58C843.086 608.488 843.137 608.369 843.146 608.243C843.154 608.117 843.119 607.992 843.047 607.888C842.974 607.785 842.868 607.71 842.747 607.676C842.625 607.642 842.495 607.65 842.38 607.7Z" fill="#282625"/>
<path d="M854.24 585.49L861.78 580.43" stroke="#282625" stroke-width="4" stroke-linecap="round" stroke-linejoin="round"/>
<path d="M893.721 517.41C897.269 513.852 899.683 509.323 900.658 504.394C901.633 499.465 901.125 494.357 899.199 489.717C897.273 485.076 894.015 481.11 889.836 478.32C885.657 475.53 880.745 474.041 875.721 474.041C870.696 474.041 865.784 475.53 861.606 478.32C857.427 481.11 854.169 485.076 852.243 489.717C850.317 494.357 849.809 499.465 850.784 504.394C851.759 509.323 854.173 513.852 857.721 517.41C860.082 519.778 862.888 521.657 865.976 522.939C869.065 524.221 872.377 524.881 875.721 524.881C879.065 524.881 882.376 524.221 885.465 522.939C888.554 521.657 891.359 519.778 893.721 517.41Z" fill="#30242A"/>
<path d="M702.201 621.89C685.121 591.18 670.761 573.77 665.401 576.34C659.701 578.99 665.311 593.59 665.311 593.59C659.221 591.82 650.561 589.41 642.461 589.41H642.381C637.971 589.5 635.381 590.41 633.641 591.5C626.421 596.71 631.881 603.21 631.881 603.21C631.881 603.21 622.651 604.73 627.881 614.83C627.881 614.83 620.431 620.21 627.411 626.14C627.411 626.14 622.111 629.59 627.321 636.14C632.531 642.69 640.801 645.52 644.321 644.07C645.01 643.691 645.589 643.139 646.001 642.47C650.095 644.925 654.529 646.762 659.161 647.92L665.491 653.05L703.101 627.47L702.201 621.89Z" fill="#EAA58B"/>
<path d="M665.309 593.59L668.309 602C668.309 602 664.619 615.48 667.309 629.59" stroke="#282625" stroke-width="4" stroke-linecap="round" stroke-linejoin="round"/>
<path d="M919.001 638.89C911.951 633.44 900.241 629.75 892.381 629.75L838.931 690L814.001 629.67C807.661 630.47 800.201 631.76 794.431 633.84C769.241 644.59 732.001 677.31 732.001 677.31C722.941 659.1 712.431 639.37 702.331 621.97L659.191 647.97C659.191 647.97 678.601 743.97 730.241 743.97C762.161 743.97 793.511 717.27 793.511 717.27L799.761 755.92L785.971 783.67H891.051V783.83C895.301 783.83 900.351 783.74 905.721 783.67L916.721 783.34C933.801 782.7 952.571 781.02 964.271 776.34C1017.59 751.08 943.811 655.89 919.001 638.89ZM905.131 733.89C906.131 726.59 907.131 718.89 908.261 711.03L922.531 731.03C916.311 732.15 910.701 733 905.081 733.84L905.131 733.89Z" fill="#88CE27"/>
<path d="M799.15 756.45L871 756.29" stroke="#111110" stroke-width="4" stroke-linecap="round"/>
<path d="M838.929 690L836.359 754.87" stroke="#111110" stroke-width="4" stroke-linecap="round"/>
<path d="M789.93 697.43L793.46 717.24" stroke="#111110" stroke-width="4" stroke-linecap="round"/>
<path opacity="0.2" d="M897.38 695.83L883 738.4L901 734.72L905.17 733.84C906.85 717.72 908.06 710.58 908.06 710.58L897.38 695.83Z" fill="#010101"/>
<path opacity="0.2" d="M776.45 729C782.338 725.541 787.966 721.658 793.29 717.38C793.38 717.295 793.44 717.183 793.46 717.06L790.65 701.58C790.629 701.505 790.586 701.438 790.527 701.387C790.468 701.337 790.394 701.305 790.317 701.296C790.239 701.288 790.161 701.303 790.092 701.339C790.023 701.375 789.967 701.431 789.93 701.5L776 728.62C775.74 728.86 776.14 729.19 776.45 729Z" fill="#010101"/>
<path d="M732 677.22V692.46" stroke="#111110" stroke-width="4" stroke-linecap="round"/>
<path d="M646.789 639.85C646.771 638.391 646.326 636.969 645.509 635.76C645.509 635.76 649.679 636.49 651.439 632.76C653.609 628.27 649.759 624.1 649.759 624.1C649.759 624.1 654.969 625.1 656.569 620.73C657.859 616.08 653.919 612.31 653.919 612.31C653.919 612.31 658.169 609.9 654.969 603.31C652.239 598.02 642.379 595.21 642.379 595.21" stroke="#282625" stroke-width="4" stroke-linecap="round"/>
<path d="M627.301 626.3C633.214 630.207 639.534 633.46 646.151 636" stroke="#282625" stroke-width="4" stroke-linecap="round"/>
<path d="M627.859 614.76C636.199 619.97 640.129 621.49 649.759 624.14" stroke="#282625" stroke-width="4" stroke-linecap="round"/>
<path d="M631.879 603.21C639.809 607.94 644.939 610.5 653.879 612.43" stroke="#282625" stroke-width="4" stroke-linecap="round"/>
<path d="M882.999 738.4C862.229 743.78 841.539 751.96 834.159 756.4C827.349 760.17 805.939 773.08 806.819 778.21C808.659 785.51 833.279 770.67 833.279 770.67C833.279 770.67 813.159 787.75 814.279 795.53C814.609 801.53 822.389 800.18 822.389 800.18C823.989 809.08 834.099 804.91 834.099 804.91C843.949 817.1 868.809 788.39 868.809 788.39C876.029 787.99 887.019 786.47 891.669 783.26L884.529 746.46L882.999 738.4Z" fill="#EAA58B"/>
<path d="M834 804.88L858.13 782.75" stroke="#282625" stroke-width="4" stroke-linecap="round"/>
<path d="M822.33 800.15L849.19 773.15" stroke="#282625" stroke-width="4" stroke-linecap="round"/>
<path d="M833.23 770.64L839.57 765.35" stroke="#282625" stroke-width="4" stroke-linecap="round"/>
<path d="M908 710.58L897.41 695.83" stroke="#111110" stroke-width="4" stroke-linecap="round"/>
<path d="M922.4 731.19L938.6 736" stroke="#111110" stroke-width="4" stroke-linecap="round"/>
<path d="M933.55 642.1C933.71 597.75 896.42 594.63 890.17 565.92C886.08 543.92 882.87 534.08 876.17 527.59C869.497 520.897 860.526 516.996 851.08 516.68C826.46 515.68 811.3 523.9 804.57 537.37C800.95 544.59 799.57 554.85 799.75 557.82L846.34 558.7L849.34 571.29C849.34 571.29 868.66 560.29 874.52 571.53C882.78 587.81 856.52 600.16 856.52 600.16L861.52 642.02L933.55 642.1Z" fill="#30242A"/>
<path d="M872.999 524.7C868.511 521.099 863.239 518.602 857.609 517.41" stroke="#191416" stroke-width="4" stroke-linecap="round" stroke-linejoin="round"/>
<path d="M883 738.4L922.53 731.11" stroke="#111110" stroke-width="4" stroke-linecap="round"/>
</g>
<defs>
<clipPath id="clip0_331_15197">
<rect width="1200" height="1080" fill="white"/>
</clipPath>
</defs>
</svg>
