<svg width="1200" height="1080" viewBox="0 0 1200 1080" fill="none" xmlns="http://www.w3.org/2000/svg">
<g clip-path="url(#clip0_331_15202)">
<path d="M1200 0H0V1080H1200V0Z" fill="#EFF3E9"/>
<path d="M308.121 785.91V558.91H391.551L391.601 785.97L308.121 785.91Z" fill="#CDCDCE"/>
<path opacity="0.3" d="M308.121 785.91V558.91L391.761 785.91H308.121Z" fill="#7E7EC4"/>
<path d="M349.89 758.901C353.017 758.901 356.074 757.974 358.674 756.237C361.274 754.5 363.3 752.03 364.497 749.141C365.693 746.253 366.006 743.074 365.396 740.007C364.786 736.94 363.281 734.123 361.069 731.912C358.858 729.701 356.041 728.195 352.974 727.585C349.908 726.975 346.729 727.288 343.84 728.485C340.951 729.681 338.482 731.708 336.745 734.308C335.007 736.908 334.08 739.964 334.08 743.091C334.08 747.284 335.746 751.306 338.711 754.271C341.676 757.236 345.697 758.901 349.89 758.901Z" fill="black"/>
<path d="M225.449 785.91V558.91H308.889L308.939 785.97L225.449 785.91Z" fill="#88CE27"/>
<path opacity="0.3" d="M225.449 785.91V558.91L308.949 785.91H225.449Z" fill="#383D30"/>
<path d="M267.22 758.901C270.347 758.901 273.404 757.974 276.004 756.237C278.604 754.5 280.63 752.03 281.827 749.141C283.023 746.253 283.336 743.074 282.726 740.007C282.116 736.94 280.611 734.123 278.4 731.912C276.188 729.701 273.371 728.195 270.305 727.585C267.238 726.975 264.059 727.288 261.17 728.485C258.281 729.681 255.812 731.708 254.075 734.308C252.337 736.908 251.41 739.964 251.41 743.091C251.41 747.284 253.076 751.306 256.041 754.271C259.006 757.236 263.027 758.901 267.22 758.901Z" fill="black"/>
<path d="M308.121 560.34V785.88" stroke="black" stroke-width="4" stroke-linecap="round" stroke-linejoin="round"/>
<path d="M557.601 624.371H643.831C648.027 624.366 652.183 625.188 656.06 626.792C659.938 628.395 663.461 630.747 666.428 633.714C669.395 636.681 671.747 640.204 673.35 644.082C674.954 647.96 675.776 652.115 675.771 656.311V753.621C675.775 757.817 674.951 761.972 673.348 765.849C671.744 769.726 669.391 773.248 666.425 776.215C663.458 779.182 659.935 781.534 656.059 783.138C652.182 784.742 648.026 785.565 643.831 785.561H481.141C478.176 785.561 475.332 784.383 473.236 782.287C471.139 780.19 469.961 777.346 469.961 774.381C469.961 771.416 471.139 768.572 473.236 766.476C475.332 764.379 478.176 763.201 481.141 763.201H526.001V656.311C525.955 652.132 526.738 647.986 528.305 644.112C529.873 640.239 532.193 636.714 535.132 633.743C538.071 630.773 541.571 628.415 545.428 626.806C549.284 625.197 553.422 624.37 557.601 624.371Z" fill="#0054B6"/>
<path opacity="0.2" d="M557.6 622.68H643.83C648.026 622.676 652.181 623.499 656.058 625.103C659.934 626.707 663.457 629.059 666.424 632.026C669.39 634.993 671.743 638.515 673.347 642.392C674.95 646.269 675.774 650.424 675.77 654.62V738.41L526 702V654.62C525.954 650.441 526.737 646.295 528.304 642.421C529.872 638.547 532.192 635.023 535.131 632.052C538.07 629.081 541.57 626.723 545.427 625.115C549.283 623.506 553.421 622.678 557.6 622.68Z" fill="black"/>
<path d="M863.449 302H444.509C417.079 302 390.779 324.17 386.079 351.79L334.609 643.35C329.729 670.78 348.129 693.13 375.559 693.13H794.499C821.929 693.13 848.229 670.96 852.929 643.35L904.399 351.78C909.279 324.16 890.869 302 863.449 302Z" fill="#0054B6"/>
<path d="M834.51 346.33H457.85C443.19 346.33 429.48 358.17 426.85 372.63L386.08 603.9H815.54L856.31 372.63C858.75 358.17 849.17 346.33 834.51 346.33Z" fill="white"/>
<path d="M677.131 693.26H524.711" stroke="black" stroke-width="4" stroke-linecap="round" stroke-linejoin="round"/>
<path d="M652.661 329.35C655.281 326.96 655.731 323.24 653.661 321.03C651.591 318.82 647.881 318.94 645.261 321.33C642.641 323.72 642.201 327.43 644.261 329.65C646.321 331.87 650.071 331.73 652.661 329.35Z" fill="black"/>
<path d="M509.38 390H613.65C620.28 390 624.7 395.4 623.49 402C622.28 408.6 615.9 414 609.27 414H505C498.37 414 493.95 408.6 495.16 402C496.37 395.4 502.75 390 509.38 390Z" fill="#61AAFF"/>
<path d="M500.34 439.76H561.29C567.92 439.76 572.34 445.16 571.13 451.76C569.92 458.36 563.54 463.76 556.91 463.76H496C489.37 463.76 485 458.36 486.15 451.76C487.3 445.16 493.71 439.76 500.34 439.76Z" fill="#AFC4DD"/>
<path d="M601.399 439.76H620.639C627.269 439.76 631.689 445.16 630.479 451.76C629.269 458.36 622.889 463.76 616.259 463.76H596.999C590.369 463.76 585.999 458.36 587.159 451.76C588.319 445.16 594.759 439.76 601.399 439.76Z" fill="#88CE27"/>
<path d="M491.279 489.49H506.279C512.909 489.49 517.279 494.89 516.129 501.49C514.979 508.09 508.539 513.49 501.909 513.49H486.909C480.279 513.49 475.909 508.09 477.069 501.49C478.229 494.89 484.649 489.49 491.279 489.49Z" fill="#AFC4DD"/>
<path d="M546.36 489.49H636.19C642.82 489.49 647.191 494.89 646.031 501.49C644.87 508.09 638.44 513.49 631.81 513.49H542C535.37 513.49 530.95 508.09 532.16 501.49C533.37 494.89 539.73 489.49 546.36 489.49Z" fill="#88CE27"/>
<path d="M676.289 489.49H753.289C759.919 489.49 764.339 494.89 763.129 501.49C761.919 508.09 755.539 513.49 748.909 513.49H671.909C665.279 513.49 660.909 508.09 662.069 501.49C663.229 494.89 669.659 489.49 676.289 489.49Z" fill="#DAE4EF"/>
<path d="M482.24 539.211H530.36C536.99 539.211 541.36 544.611 540.2 551.211C539.04 557.811 532.61 563.211 525.98 563.211H477.86C471.23 563.211 466.81 557.811 468.02 551.211C469.23 544.611 475.61 539.211 482.24 539.211Z" fill="#3A3A3A"/>
<path d="M570.461 539.211H581.161C587.791 539.211 592.211 544.611 591.001 551.211C589.791 557.811 583.411 563.211 576.781 563.211H566.081C559.451 563.211 555.081 557.811 556.241 551.211C557.401 544.611 563.831 539.211 570.461 539.211Z" fill="#AFC4DD"/>
<path d="M621.26 539.211H684.89C691.52 539.211 695.94 544.611 694.73 551.211C693.52 557.811 687.14 563.211 680.51 563.211H616.88C610.25 563.211 605.88 557.811 607.04 551.211C608.2 544.611 614.63 539.211 621.26 539.211Z" fill="#61AAFF"/>
<path d="M887.599 401.811C901.98 401.809 916.037 397.542 927.993 389.551C939.949 381.56 949.267 370.203 954.768 356.916C960.269 343.63 961.707 329.01 958.9 314.906C956.092 300.802 949.166 287.847 938.996 277.68C928.825 267.513 915.869 260.589 901.764 257.786C887.659 254.982 873.04 256.424 859.755 261.929C846.47 267.434 835.115 276.755 827.127 288.713C819.139 300.672 814.877 314.73 814.879 329.111C814.879 338.659 816.76 348.115 820.415 356.936C824.07 365.758 829.426 373.773 836.179 380.524C842.932 387.275 850.949 392.63 859.772 396.282C868.594 399.935 878.05 401.813 887.599 401.811Z" fill="#88CE27"/>
<path d="M859.621 328.15L882.201 350.73L915.691 307.49" stroke="black" stroke-width="4" stroke-linecap="round" stroke-linejoin="round"/>
<path d="M1003.93 669.64H956.74V716.49H1003.93C1007.05 716.554 1010.15 715.996 1013.04 714.848C1015.94 713.699 1018.58 711.984 1020.81 709.802C1023.04 707.621 1024.81 705.017 1026.01 702.143C1027.22 699.269 1027.84 696.182 1027.84 693.065C1027.84 689.947 1027.22 686.861 1026.01 683.987C1024.81 681.113 1023.04 678.509 1020.81 676.327C1018.58 674.145 1015.94 672.43 1013.04 671.282C1010.15 670.134 1007.05 669.575 1003.93 669.64V669.64Z" stroke="#1A4271" stroke-width="4" stroke-linecap="round" stroke-linejoin="round"/>
<path d="M932.811 786.779C946.327 786.744 959.279 781.36 968.836 771.803C978.393 762.246 983.777 749.294 983.811 735.779V629.469H839.941V735.739C839.976 749.254 845.36 762.206 854.917 771.763C864.474 781.32 877.426 786.704 890.941 786.739L932.811 786.779Z" fill="#61AAFF"/>
<path opacity="0.2" d="M919.421 786.779C905.915 786.716 892.979 781.322 883.429 771.771C873.878 762.221 868.485 749.285 868.421 735.779V629.469H839.941V735.739C839.976 749.254 845.36 762.206 854.917 771.763C864.474 781.32 877.426 786.704 890.941 786.739L919.421 786.779Z" fill="#1A4271"/>
<path d="M911.89 668C940.68 668 958.75 657.46 968.79 648.76C977.79 640.9 981.01 632.86 981.84 630.35C982.01 630.01 981.68 629.51 981.17 629.51H840.94C840.78 629.51 840.6 629.68 840.78 629.85C842.45 633.33 859.51 668 911.89 668Z" fill="#1A4271"/>
<path d="M163.941 785.3C161.196 785.313 158.568 786.408 156.626 788.348C154.684 790.288 153.586 792.915 153.571 795.66C153.559 797.023 153.819 798.376 154.336 799.638C154.853 800.9 155.617 802.046 156.583 803.009C157.549 803.972 158.697 804.732 159.96 805.246C161.224 805.759 162.577 806.016 163.941 806H1036.06C1038.81 806 1041.45 804.907 1043.39 802.962C1045.34 801.018 1046.43 798.38 1046.43 795.63C1046.43 792.879 1045.34 790.242 1043.39 788.297C1041.45 786.352 1038.81 785.26 1036.06 785.26L163.941 785.3Z" fill="white"/>
</g>
<defs>
<clipPath id="clip0_331_15202">
<rect width="1200" height="1080" fill="white"/>
</clipPath>
</defs>
</svg>
