<svg width="1200" height="1080" viewBox="0 0 1200 1080" fill="none" xmlns="http://www.w3.org/2000/svg">
<g clip-path="url(#clip0_331_15201)">
<rect width="1200" height="1080" fill="white"/>
<path d="M1200 0H0V1080H1200V0Z" fill="#EFF3E9"/>
<path d="M605.91 513.321L605.77 505.271C602.083 506.25 598.272 506.678 594.46 506.541C581.32 506.541 570.29 500.891 564.07 490.991C556.15 478.261 559.54 463.851 562.94 449.851C563.22 448.591 563.5 447.311 563.79 446.041C564.933 439.87 565.735 433.64 566.19 427.381C567.61 411.691 569.44 392.181 577.64 381.021C590.5 363.771 606.76 375.501 634.04 375.501C636.16 375.501 645.04 373.811 647.18 373.951C678.57 375.651 695.25 383.561 694.26 413.671C693.69 431.761 700.05 457.201 697.26 501.731L696.12 515.441L659.12 528.311L605.91 513.321Z" fill="#F9B298"/>
<path d="M658.64 479.681L658.35 479.401L658.64 479.251C658.92 479.121 688.89 461.161 683.37 444.631C681.11 437.701 675.31 434.311 666.27 434.311C659.878 434.401 653.555 435.651 647.61 438.001L647.33 438.141L647.18 437.301C645.18 427.541 646.76 420.901 649.58 413.551C649.677 413.314 649.71 413.055 649.676 412.801C649.641 412.547 649.54 412.306 649.383 412.103C649.226 411.901 649.018 411.743 648.781 411.646C648.543 411.549 648.284 411.516 648.03 411.551L641.67 411.981C628.67 411.981 623.58 407.171 621.6 403.211C619.62 399.251 619.91 393.881 622.45 388.791C622.574 388.522 622.618 388.223 622.576 387.93C622.534 387.636 622.409 387.361 622.214 387.137C622.02 386.914 621.766 386.751 621.481 386.668C621.196 386.585 620.894 386.586 620.61 386.671C609.44 390.061 599.69 391.901 591.61 391.901C578.47 391.901 574.08 387.381 574.08 387.381C575.088 385.186 576.321 383.102 577.76 381.161C590.63 363.911 612.81 354.441 640.1 354.441C642.21 354.441 644.34 354.441 646.46 354.581C677.84 356.281 702.72 382.011 701.73 412.111C701.44 428.651 699.61 459.041 697.06 501.591C697.08 501.451 674.32 496.511 658.64 479.681Z" fill="black"/>
<path d="M650.859 459.33L661.999 454.8" stroke="black" stroke-width="4" stroke-linecap="round" stroke-linejoin="round"/>
<path d="M383.281 595.74C381.021 589.51 379.601 586.26 377.761 581.6C374.761 574.53 370.841 564.92 360.661 537.78C356.001 528.45 351.661 520.39 347.661 513.32C339.601 498.76 334.801 490 337.481 487.18C337.825 486.813 338.242 486.522 338.705 486.325C339.169 486.129 339.668 486.032 340.171 486.04C344.171 486.04 346.241 488.31 356.001 498.48C357.411 500.04 361.511 504.28 364.051 506.82C364.341 507.1 364.761 506.82 364.621 506.4C363.061 503.01 360.241 497.07 358.971 494.4C353.461 482.81 348.361 472.35 352.041 464.72C352.523 463.75 353.219 462.903 354.077 462.241C354.934 461.579 355.931 461.121 356.991 460.9C357.131 454.54 360.091 450.72 365.041 450.72C367.254 450.849 369.418 451.427 371.401 452.42C373.079 451.309 375.048 450.717 377.061 450.72C388.791 450.72 400.951 470.51 411.691 487.9C416.781 496.1 421.451 503.9 425.401 507.83C425.831 488.04 429.641 476.31 435.581 476.31C436.219 476.301 436.85 476.445 437.421 476.73C441.941 478.43 444.351 490.44 447.031 504.44C447.591 507.44 448.301 510.51 448.871 513.63C449.991 519.14 450.981 523.95 451.871 528.18C454.701 541.05 456.541 549.67 455.131 561.26C459.651 572.71 464.031 584.59 467.991 594.91L468.691 596.91L383.281 595.74Z" fill="#F9B298"/>
<path d="M425.4 507.81V521.38C425.4 521.38 410.84 536.22 413.4 557.15" stroke="black" stroke-width="4" stroke-linecap="round" stroke-linejoin="round"/>
<path d="M372.391 452.68C387.661 473.18 400.241 498.76 400.241 498.76" stroke="black" stroke-width="4" stroke-linecap="round" stroke-linejoin="round"/>
<path d="M357.129 460.88C363.909 469.36 384.999 507 384.999 507" stroke="black" stroke-width="4" stroke-linecap="round" stroke-linejoin="round"/>
<path d="M364.48 506.82L370.56 516.43" stroke="black" stroke-width="4" stroke-linecap="round" stroke-linejoin="round"/>
<path opacity="0.3" d="M606.469 515.16V505L609.159 504.3C615.647 502.327 621.978 499.87 628.099 496.95L628.519 497.79L619.759 521.26L606.469 515.16Z" fill="black"/>
<path d="M748.11 760.83C728.89 760.83 706.83 758.29 681.96 752.63L681.11 751.36L683.11 723.94H586L569.72 664C566.72 668.53 544.14 700.48 506.25 714.47C496.336 718.365 485.81 720.471 475.16 720.69C423 720.69 399.4 657.79 381.58 591.35L458.2 569.72L479.26 620.33C481.1 617.79 492.12 602.8 511.49 578.48C547.96 529.72 601.49 524.92 605.91 524.63V513.32H696.37L695.81 521.95C710.829 524.198 725.245 529.431 738.208 537.34C751.172 545.249 762.42 555.674 771.29 568C772 569 847.2 669.63 819.77 730.55C811.43 749.81 785.15 760.83 748.11 760.83Z" fill="#88CE27"/>
<path d="M569.72 664L564.35 640.83" stroke="#424242" stroke-width="4" stroke-linecap="round" stroke-linejoin="round"/>
<path opacity="0.3" d="M553.18 683.09C553.18 682.95 557 671.64 557 649.3C557 636.3 557 627.82 561.52 627.82H561.81L570.43 663.44V663.58C565.549 670.681 560.011 677.307 553.89 683.37L553.18 683.09Z" fill="#424242"/>
<path d="M716.449 650.29L729.589 683.09" stroke="#424242" stroke-width="4" stroke-linecap="round" stroke-linejoin="round"/>
<path d="M573.12 792.78H572.83C572.17 792.718 571.54 792.474 571.01 792.075C570.48 791.676 570.072 791.138 569.83 790.52C568 786 572.23 775.39 580.72 763.23C579.16 764.23 577.61 765.36 576.05 766.49C566.44 773.28 554.43 781.75 545.05 781.75C543.191 781.801 541.346 781.404 539.672 780.593C537.998 779.782 536.543 778.581 535.43 777.09C532.04 777.09 529.5 775.96 527.95 773.98C526.24 771.72 526.11 768.33 527.38 764.51C525.68 761.51 525.68 757.72 527.23 753.2C530.35 744.15 540.23 731.86 554.23 719.56C567.09 708.39 580.94 699.06 590.69 695.38C616.14 685.78 656.57 683.23 685.97 682.95H686.25L682 752.63C682 752.63 664.47 748.53 654 745.71C652.58 746.42 635.76 754.9 609 759.14C593.89 779.64 577.64 792.78 573.12 792.78Z" fill="#F9B298"/>
<path opacity="0.3" d="M706.689 683.51L706.829 683.09C711.499 672.34 704.579 665.56 704.709 655.24C704.849 643.65 706.549 640.83 712.779 639.84L729.589 683.09L706.689 683.51Z" fill="#424242"/>
<path d="M527.74 763.23C536.74 753.06 557 735.11 571.74 724.93" stroke="black" stroke-width="4" stroke-linecap="round" stroke-linejoin="round"/>
<path d="M535.65 776.67C542.44 769.88 564.91 750.8 583.01 738.36" stroke="black" stroke-width="4" stroke-linecap="round" stroke-linejoin="round"/>
<path d="M581.32 762.39L594.32 751.93" stroke="black" stroke-width="4" stroke-linecap="round" stroke-linejoin="round"/>
<path d="M479.539 621L478.129 638" stroke="#424242" stroke-width="4" stroke-linecap="round" stroke-linejoin="round"/>
<path d="M685.77 683C700.47 683 726.199 683.14 744.289 684.27" stroke="#424242" stroke-width="4" stroke-linecap="round" stroke-linejoin="round"/>
<path d="M316.281 705.07C297.951 705.07 279.021 690.16 274.071 671.83L239.511 542.83C237.071 533.69 238.391 525.16 243.261 518.83C247.891 512.83 255.261 509.47 263.921 509.47H471.001C489.341 509.47 508.271 524.47 513.191 542.82L547.761 671.71C550.161 680.87 548.761 689.41 543.891 695.77C539.261 701.77 531.971 705.07 523.351 705.07H316.281Z" fill="#0054B6"/>
<path opacity="0.3" d="M428.709 705.07C428.632 704.634 428.585 704.193 428.569 703.75C428.569 703.32 428.519 702.88 428.469 702.47C427.139 689.16 418.469 678.33 409.159 678.33C407.409 678.34 405.682 678.732 404.099 679.48C402.514 680.215 401.105 681.282 399.969 682.61C395.859 687.11 393.849 694.53 394.589 702.47L394.899 705.04H371.719L366.539 651.53H446.809L452.089 705.08L428.709 705.07Z" fill="black"/>
<path d="M340.859 746.21L366.139 651.55H446.509L421.119 746.24L340.859 746.21ZM398.999 678.33C389.729 678.33 379.259 689.16 375.679 702.48C373.519 710.48 374.299 717.95 377.749 722.48C378.716 723.79 379.982 724.852 381.441 725.575C382.9 726.299 384.511 726.664 386.139 726.64C395.469 726.64 405.979 715.8 409.559 702.48C411.659 694.48 410.849 686.97 407.379 682.48C406.41 681.176 405.145 680.122 403.688 679.403C402.231 678.685 400.624 678.324 398.999 678.35V678.33Z" fill="#30A8FF"/>
<path d="M358.141 558.77L363.141 577.7" stroke="black" stroke-width="4" stroke-linecap="round" stroke-linejoin="round"/>
<path d="M381.801 558.77L386.801 577.7" stroke="black" stroke-width="4" stroke-linecap="round" stroke-linejoin="round"/>
<path d="M405.461 558.77L410.461 577.7" stroke="black" stroke-width="4" stroke-linecap="round" stroke-linejoin="round"/>
<path d="M457.609 746.21C457.606 744.317 457.973 742.442 458.689 740.69C459.41 738.936 460.47 737.342 461.809 736C463.146 734.656 464.736 733.589 466.486 732.861C468.237 732.134 470.114 731.759 472.009 731.76H643.789C647.616 731.765 651.284 733.287 653.991 735.991C656.697 738.696 658.221 742.363 658.229 746.19L457.609 746.21Z" fill="#0054B6"/>
<path d="M590.309 746.21C590.302 743.357 591.141 740.566 592.72 738.19C594.298 735.814 596.546 733.959 599.179 732.86C600.933 732.137 602.811 731.763 604.709 731.76H643.789C647.615 731.765 651.283 733.287 653.99 735.991C656.697 738.696 658.221 742.363 658.229 746.19L590.309 746.21Z" fill="#30A8FF"/>
<path d="M850.559 249.17C829.687 249.175 809.671 257.47 794.912 272.23C780.154 286.99 771.862 307.007 771.859 327.88V395.21C771.858 396.704 772.151 398.183 772.722 399.564C773.293 400.945 774.13 402.199 775.186 403.256C776.242 404.313 777.496 405.151 778.876 405.723C780.256 406.295 781.735 406.59 783.229 406.59H850.559C871.435 406.59 891.455 398.297 906.216 383.536C920.977 368.775 929.269 348.755 929.269 327.88C929.269 307.005 920.977 286.985 906.216 272.224C891.455 257.463 871.435 249.17 850.559 249.17Z" fill="white"/>
<path d="M280.65 223.24V322.66" stroke="#263215" stroke-width="4" stroke-linecap="round" stroke-linejoin="round"/>
<path d="M298.42 401.07C300.264 397.567 301.026 393.595 300.61 389.658C300.195 385.722 298.62 381.997 296.086 378.956C293.552 375.914 290.173 373.693 286.376 372.574C282.579 371.455 278.535 371.487 274.756 372.668C270.978 373.848 267.635 376.124 265.15 379.205C262.666 382.287 261.152 386.037 260.8 389.98C260.448 393.923 261.274 397.882 263.174 401.355C265.073 404.828 267.961 407.659 271.47 409.49C276.163 411.938 281.634 412.426 286.685 410.848C291.736 409.27 295.956 405.754 298.42 401.07Z" fill="white"/>
<path d="M327.69 367.389L314.95 360.389C310.593 358.029 306.797 354.757 303.82 350.797C300.843 346.836 298.756 342.28 297.7 337.439L295.75 328.599C295.006 325.174 293.112 322.106 290.383 319.907C287.655 317.707 284.255 316.508 280.75 316.508C277.245 316.508 273.846 317.707 271.117 319.907C268.388 322.106 266.494 325.174 265.75 328.599L263.8 337.439C262.732 342.275 260.64 346.825 257.664 350.784C254.688 354.743 250.899 358.018 246.55 360.389L233.82 367.389C229.223 369.87 225.282 373.411 222.326 377.718C219.37 382.026 217.482 386.976 216.82 392.159H344.79C344.079 386.979 342.161 382.039 339.191 377.737C336.22 373.434 332.281 369.89 327.69 367.389Z" fill="#88CE27"/>
<path d="M226.941 372.26H334.201" stroke="#263215" stroke-width="4" stroke-linecap="round" stroke-linejoin="round"/>
<path opacity="0.3" d="M277.38 316.88C274.519 317.51 271.898 318.945 269.827 321.017C267.755 323.088 266.32 325.709 265.69 328.57L263.74 337.41C262.672 342.253 260.58 346.81 257.605 350.778C254.63 354.745 250.84 358.029 246.49 360.41L233.76 367.36C229.164 369.843 225.225 373.385 222.268 377.692C219.312 381.999 217.424 386.948 216.76 392.13H253.56C253.56 367.99 281.11 366.74 281.11 344.89C281.11 329.51 280.76 316.5 280.76 316.5C279.626 316.555 278.497 316.682 277.38 316.88Z" fill="#263215"/>
<path d="M977.08 721.13H941.51C939.962 721.119 938.48 720.499 937.385 719.405C936.29 718.31 935.671 716.828 935.66 715.28V689.28C935.671 687.731 936.29 686.25 937.385 685.155C938.48 684.06 939.962 683.44 941.51 683.43H977.08C982.085 683.43 986.884 685.418 990.423 688.957C993.962 692.495 995.95 697.295 995.95 702.3C995.95 707.304 993.962 712.104 990.423 715.643C986.884 719.182 982.085 721.17 977.08 721.17V721.13ZM945.44 711.35H977C979.4 711.339 981.698 710.375 983.388 708.671C985.077 706.966 986.021 704.66 986.01 702.26C986 699.859 985.036 697.562 983.331 695.872C981.627 694.182 979.32 693.239 976.92 693.25H945.36L945.44 711.35Z" fill="#88CE27"/>
<path d="M904.751 734.5L887.121 657.92C887.121 657.84 887.201 657.84 887.291 657.84C889.121 660.73 903.291 681.31 930.781 681.31H931.181C939.758 681.336 948.202 679.2 955.734 675.097C963.266 670.995 969.642 665.059 974.271 657.84C974.361 657.76 974.441 657.84 974.361 657.92L956.811 734.5C956.126 737.489 954.446 740.156 952.045 742.064C949.645 743.972 946.667 745.007 943.601 745H917.891C914.84 744.979 911.885 743.931 909.502 742.027C907.118 740.122 905.445 737.471 904.751 734.5Z" fill="#30A8FF"/>
<path d="M930.781 681.39C901.941 681.39 887.781 658.719 887.051 657.599V657.52L974.201 657.84C974.201 657.84 974.271 657.839 974.201 657.919C967.551 674.179 948.801 681.39 931.101 681.39H930.781Z" fill="#88CE27"/>
<path d="M850.54 332.5L809.47 306.07C808.563 308.314 808.095 310.71 808.09 313.13L808 342.13C807.992 344.607 808.472 347.061 809.413 349.352C810.353 351.644 811.736 353.727 813.482 355.484C815.227 357.241 817.302 358.637 819.587 359.592C821.872 360.547 824.323 361.042 826.8 361.05L874.12 361.18C879.114 361.188 883.907 359.214 887.447 355.691C890.987 352.168 892.984 347.384 893 342.39L893.1 313.39C893.102 310.976 892.644 308.583 891.75 306.34L850.54 332.5Z" fill="#0054B6"/>
<path d="M891.79 306.27C890.421 302.756 888.014 299.743 884.89 297.631C881.765 295.519 878.071 294.41 874.3 294.45L827 294.32C823.244 294.276 819.562 295.368 816.436 297.452C813.31 299.536 810.886 302.515 809.48 306L850.48 332.46L888.031 308.61L891.79 306.27Z" fill="#0054B6"/>
<path d="M858.76 327.781L891.49 349.701" stroke="black" stroke-width="4" stroke-linecap="round" stroke-linejoin="round"/>
<path d="M842.369 327.74L809.449 349.43" stroke="black" stroke-width="4" stroke-linecap="round" stroke-linejoin="round"/>
<path d="M844.77 311.08H856.419" stroke="#B2B2B2" stroke-width="4" stroke-linecap="round"/>
<path d="M809.51 306.09L850.51 332.56L891.62 306.36" stroke="black" stroke-width="4" stroke-linecap="round" stroke-linejoin="round"/>
<path d="M1033.69 745.62H166.309V848.43H1033.69V745.62Z" fill="#D7E2EF"/>
<path d="M1200 0H0V1080H1200V0Z" fill="#E9EFF3"/>
<path d="M713.691 806V574.53C713.694 567.585 716.454 560.925 721.365 556.014C726.276 551.103 732.936 548.342 739.881 548.34H914.161C921.107 548.342 927.769 551.102 932.681 556.013C937.594 560.924 940.356 567.584 940.361 574.53V806C940.356 812.946 937.594 819.606 932.681 824.517C927.769 829.427 921.107 832.187 914.161 832.19H739.881C732.94 832.174 726.288 829.41 721.38 824.501C716.472 819.593 713.707 812.941 713.691 806Z" fill="#88CE27"/>
<path d="M875 444.74V547.05" stroke="#2C455B" stroke-width="4" stroke-linecap="round" stroke-linejoin="round"/>
<path d="M875.359 535.73C876.909 535.732 878.424 535.274 879.713 534.415C881.002 533.555 882.007 532.333 882.601 530.901C883.195 529.47 883.351 527.895 883.049 526.375C882.747 524.855 882.001 523.459 880.906 522.364C879.81 521.268 878.414 520.522 876.894 520.22C875.374 519.918 873.799 520.074 872.368 520.668C870.937 521.262 869.714 522.267 868.854 523.556C867.995 524.846 867.537 526.361 867.539 527.91C867.542 529.983 868.367 531.971 869.832 533.437C871.298 534.903 873.286 535.728 875.359 535.73Z" fill="#88CE27"/>
<path d="M541.09 716.48H730.63" stroke="#2C455B" stroke-width="4" stroke-linecap="round" stroke-linejoin="round"/>
<path d="M714.659 740.35C719.443 740.35 724.12 738.931 728.098 736.273C732.076 733.615 735.177 729.837 737.007 725.417C738.838 720.997 739.317 716.133 738.384 711.44C737.451 706.748 735.147 702.438 731.764 699.055C728.381 695.672 724.07 693.368 719.378 692.435C714.686 691.501 709.822 691.98 705.402 693.811C700.982 695.642 697.204 698.742 694.546 702.72C691.888 706.699 690.469 711.375 690.469 716.16C690.471 722.574 693.021 728.726 697.557 733.262C702.093 737.798 708.244 740.347 714.659 740.35Z" fill="#2C455B"/>
<path d="M594.891 716.48V767.05C594.888 769.464 595.361 771.854 596.284 774.083C597.206 776.313 598.559 778.34 600.265 780.046C601.972 781.752 603.998 783.105 606.228 784.028C608.458 784.95 610.848 785.423 613.261 785.42H713.171" stroke="#2C455B" stroke-width="4" stroke-linecap="round" stroke-linejoin="round"/>
<path d="M595.211 724C596.76 724.002 598.275 723.544 599.565 722.684C600.854 721.825 601.859 720.602 602.453 719.171C603.047 717.74 603.202 716.165 602.901 714.645C602.599 713.125 601.853 711.729 600.757 710.633C599.662 709.538 598.266 708.792 596.746 708.49C595.226 708.188 593.651 708.344 592.22 708.938C590.788 709.532 589.566 710.537 588.706 711.826C587.846 713.115 587.389 714.63 587.391 716.18C587.393 718.253 588.218 720.241 589.684 721.706C591.15 723.172 593.137 723.997 595.211 724Z" fill="#88CE27"/>
<path d="M848.999 432.78V497.12C849 499.533 848.526 501.922 847.603 504.152C846.681 506.381 845.327 508.407 843.621 510.113C841.915 511.819 839.89 513.172 837.66 514.095C835.431 515.017 833.042 515.492 830.629 515.49H730.629" stroke="#2C455B" stroke-width="4" stroke-linecap="round" stroke-linejoin="round"/>
<path d="M483.001 719.65V784C483.002 786.412 482.528 788.8 481.606 791.028C480.684 793.256 479.331 795.281 477.626 796.986C475.921 798.691 473.896 800.043 471.668 800.965C469.44 801.888 467.052 802.362 464.641 802.36H364.641" stroke="#2C455B" stroke-width="4" stroke-linecap="round" stroke-linejoin="round"/>
<path d="M312.539 560.82V625.17C312.538 627.583 313.012 629.972 313.935 632.202C314.857 634.431 316.21 636.457 317.917 638.163C319.623 639.869 321.648 641.222 323.878 642.145C326.107 643.067 328.496 643.542 330.909 643.54H430.819" stroke="#2C455B" stroke-width="4" stroke-linecap="round" stroke-linejoin="round"/>
<path d="M375.21 560.82H513.41C520.353 560.826 527.01 563.585 531.92 568.494C536.83 573.402 539.592 580.058 539.6 587V725.2C539.597 732.146 536.837 738.806 531.926 743.717C527.015 748.628 520.355 751.388 513.41 751.39H375.21C368.263 751.393 361.599 748.637 356.684 743.727C351.769 738.818 349.005 732.157 349 725.21V587C348.996 583.559 349.672 580.15 350.988 576.97C352.304 573.79 354.235 570.901 356.67 568.469C359.105 566.037 361.996 564.109 365.177 562.797C368.359 561.484 371.768 560.812 375.21 560.82Z" fill="#88CE27"/>
<path d="M871.289 644.57C871.287 636.629 869.147 628.834 865.094 622.005C861.041 615.175 855.225 609.563 848.255 605.756C841.286 601.949 833.42 600.089 825.484 600.369C817.547 600.65 809.833 603.062 803.15 607.352C796.467 611.642 791.062 617.652 787.502 624.751C783.942 631.85 782.359 639.776 782.918 647.698C783.478 655.62 786.159 663.245 790.681 669.773C795.203 676.301 801.399 681.492 808.619 684.8V766.41L826.409 784.52L845.489 766.41V753.09L833.719 741.19L845.489 729.93V723L833.719 711.11L845.489 699.85V684.8C853.192 681.272 859.719 675.604 864.293 668.472C868.867 661.34 871.295 653.043 871.289 644.57ZM827.289 619.57C829.989 619.57 832.628 620.371 834.873 621.871C837.118 623.372 838.868 625.504 839.901 627.999C840.933 630.494 841.203 633.239 840.676 635.887C840.148 638.535 838.847 640.967 836.937 642.876C835.027 644.784 832.594 646.083 829.945 646.609C827.297 647.135 824.552 646.863 822.058 645.828C819.564 644.793 817.433 643.042 815.934 640.796C814.435 638.55 813.637 635.91 813.639 633.21C813.649 629.605 815.087 626.15 817.637 623.602C820.188 621.053 823.643 619.618 827.249 619.61L827.289 619.57Z" fill="white"/>
<path d="M474.23 688.07L486.59 617L415.48 629.36L432 645.85L402 675.72L427.82 701.53L457.68 671.67L474.23 688.07Z" fill="white"/>
<path d="M919.27 595.1H989C1003.42 595.1 1003 607 1003 621.48L1015.22 676.19V691C1015.21 697.949 1012.45 704.612 1007.53 709.523C1002.62 714.435 995.95 717.192 989 717.19H919.27C912.325 717.187 905.665 714.427 900.754 709.516C895.843 704.605 893.083 697.945 893.08 691V676.19L899.81 619.61C899.87 605.19 904.85 595.1 919.27 595.1Z" fill="#2C455B"/>
<path d="M919.27 580.29H989C995.945 580.293 1002.61 583.053 1007.52 587.964C1012.43 592.875 1015.19 599.535 1015.19 606.48V676.19C1015.19 683.136 1012.43 689.797 1007.52 694.71C1002.61 699.622 995.946 702.385 989 702.39H919.27C912.324 702.385 905.664 699.622 900.753 694.71C895.843 689.797 893.083 683.136 893.08 676.19V606.42C893.106 599.488 895.876 592.848 900.784 587.951C905.691 583.055 912.338 580.301 919.27 580.29Z" fill="#0054B6"/>
<path d="M458.83 474.17H532.94" stroke="#2C455B" stroke-width="4" stroke-linecap="round" stroke-linejoin="round"/>
<path d="M947.389 641.19H919.559C919.567 650.37 923.22 659.172 929.716 665.658C936.212 672.145 945.019 675.786 954.199 675.78V648C953.303 648.006 952.415 647.833 951.586 647.493C950.758 647.153 950.005 646.651 949.371 646.018C948.738 645.384 948.237 644.631 947.896 643.803C947.556 642.974 947.383 642.086 947.389 641.19Z" fill="white"/>
<path d="M954.151 634.43V606.6C944.979 606.615 936.188 610.266 929.702 616.751C923.217 623.237 919.567 632.028 919.551 641.2H947.381C947.378 640.31 947.551 639.428 947.891 638.606C948.23 637.783 948.729 637.036 949.358 636.407C949.987 635.777 950.734 635.279 951.557 634.94C952.379 634.6 953.261 634.427 954.151 634.43Z" fill="#61AAFF"/>
<path d="M960.91 641.19C960.91 642.984 960.198 644.705 958.931 645.974C957.664 647.243 955.944 647.958 954.15 647.96V675.79C954.15 675.79 954.15 675.79 954.2 675.79C958.746 675.788 963.247 674.89 967.446 673.147C971.645 671.405 975.459 668.852 978.671 665.636C981.883 662.419 984.43 658.601 986.166 654.4C987.903 650.198 988.794 645.696 988.79 641.15L960.91 641.19Z" fill="#CECECE"/>
<path d="M957.64 635.42L971.53 611.32V611.27C966.268 608.208 960.288 606.596 954.2 606.6C954.15 606.6 954.15 606.6 954.15 606.6V634.44C955.386 634.406 956.603 634.748 957.64 635.42Z" fill="#88CE27"/>
<path d="M960.91 641.19H988.75C988.751 635.147 987.165 629.209 984.15 623.972C981.135 618.735 976.797 614.382 971.57 611.35L957.67 635.45C958.647 636.059 959.455 636.904 960.021 637.907C960.587 638.91 960.892 640.038 960.91 641.19Z" fill="#CECECE"/>
<path d="M539.65 298.449H577.35C578.286 298.447 579.213 298.629 580.078 298.986C580.943 299.343 581.729 299.867 582.391 300.529C583.052 301.19 583.577 301.976 583.933 302.841C584.29 303.706 584.473 304.633 584.47 305.569V417.339C584.473 418.275 584.29 419.202 583.933 420.067C583.577 420.932 583.052 421.718 582.391 422.38C581.729 423.041 580.943 423.566 580.078 423.923C579.213 424.28 578.286 424.462 577.35 424.459H518" stroke="#2C455B" stroke-width="4" stroke-linecap="round" stroke-linejoin="round"/>
<path d="M534.379 298.299C534.379 300.395 535 302.443 536.164 304.186C537.328 305.929 538.982 307.288 540.918 308.09C542.854 308.893 544.984 309.104 547.039 308.697C549.095 308.29 550.984 307.282 552.467 305.802C553.95 304.321 554.962 302.434 555.373 300.379C555.784 298.325 555.577 296.194 554.778 294.257C553.979 292.319 552.623 290.662 550.883 289.495C549.142 288.328 547.095 287.703 544.999 287.699C543.606 287.698 542.226 287.971 540.938 288.503C539.65 289.035 538.48 289.815 537.494 290.8C536.507 291.784 535.725 292.953 535.19 294.24C534.656 295.526 534.38 296.906 534.379 298.299Z" fill="#2C455B"/>
<path d="M580.9 393.25C580.9 393.929 581.102 394.592 581.478 395.156C581.855 395.72 582.391 396.16 583.018 396.419C583.645 396.679 584.334 396.747 585 396.614C585.665 396.482 586.276 396.155 586.756 395.676C587.235 395.196 587.562 394.585 587.694 393.919C587.827 393.254 587.759 392.564 587.499 391.938C587.24 391.311 586.8 390.775 586.236 390.398C585.672 390.021 585.009 389.82 584.33 389.82C583.422 389.823 582.551 390.185 581.908 390.828C581.265 391.471 580.903 392.341 580.9 393.25Z" fill="#2C455B"/>
<path d="M271.351 752.05H240.831C237.163 752.045 233.646 750.585 231.054 747.99C228.461 745.395 227.003 741.878 227.001 738.21V687.32L237.601 680.72L216.391 667.53L237.601 654.34L216.391 641.14L227.001 634.55V585.92" stroke="#2C455B" stroke-width="4" stroke-linecap="round" stroke-linejoin="round"/>
<path d="M257.83 759.81C259.379 759.81 260.894 759.351 262.182 758.489C263.47 757.628 264.474 756.404 265.066 754.972C265.658 753.54 265.812 751.965 265.508 750.445C265.204 748.926 264.457 747.531 263.36 746.437C262.263 745.342 260.865 744.598 259.345 744.298C257.825 743.999 256.25 744.156 254.82 744.752C253.389 745.348 252.168 746.355 251.31 747.645C250.452 748.935 249.996 750.451 250 752C250.005 754.074 250.833 756.06 252.3 757.524C253.768 758.988 255.757 759.81 257.83 759.81Z" fill="#2C455B"/>
<path d="M539.86 426.44H733C747.42 426.44 739.79 438.92 739.79 453.44L759.15 630V645.71C759.155 652.654 756.404 659.316 751.501 664.232C746.598 669.148 739.943 671.917 733 671.93H539.86C532.914 671.925 526.254 669.163 521.343 664.25C516.432 659.338 513.673 652.677 513.67 645.73V632.54L524.85 453C524.85 438.47 525.37 426.44 539.86 426.44Z" fill="#2C455B"/>
<path d="M539.86 410.73H733C739.945 410.732 746.605 413.492 751.516 418.403C756.427 423.314 759.187 429.974 759.19 436.92V630C759.191 633.44 758.515 636.847 757.199 640.027C755.884 643.206 753.955 646.095 751.523 648.529C749.091 650.962 746.204 652.893 743.026 654.211C739.847 655.529 736.441 656.208 733 656.21H539.86C536.419 656.208 533.013 655.529 529.834 654.211C526.656 652.893 523.769 650.962 521.337 648.529C518.905 646.095 516.976 643.206 515.66 640.027C514.345 636.847 513.669 633.44 513.67 630V436.85C513.673 433.414 514.352 430.013 515.67 426.841C516.988 423.668 518.919 420.787 521.351 418.361C523.783 415.935 526.67 414.013 529.846 412.703C533.022 411.394 536.425 410.723 539.86 410.73Z" fill="white"/>
<path d="M382 496.18C375.717 496.18 369.575 494.316 364.35 490.825C359.125 487.334 355.053 482.373 352.649 476.567C350.244 470.762 349.615 464.374 350.841 458.212C352.067 452.049 355.093 446.388 359.536 441.945C363.979 437.502 369.64 434.476 375.802 433.25C381.965 432.024 388.353 432.653 394.158 435.058C399.964 437.463 404.925 441.535 408.416 446.759C411.907 451.984 413.77 458.126 413.77 464.41C413.772 468.582 412.951 472.714 411.355 476.569C409.759 480.424 407.419 483.927 404.468 486.877C401.518 489.828 398.015 492.168 394.16 493.764C390.305 495.36 386.173 496.181 382 496.18Z" fill="#3291FF"/>
<path d="M307.79 561.2C303.132 561.202 298.577 559.822 294.703 557.235C290.829 554.648 287.809 550.97 286.025 546.666C284.241 542.363 283.774 537.627 284.682 533.058C285.591 528.489 287.834 524.291 291.128 520.997C294.422 517.703 298.619 515.46 303.189 514.552C307.758 513.643 312.494 514.11 316.797 515.894C321.101 517.678 324.779 520.698 327.366 524.572C329.953 528.447 331.332 533.001 331.33 537.66C331.33 543.903 328.85 549.89 324.436 554.305C320.021 558.72 314.034 561.2 307.79 561.2Z" fill="white"/>
<path d="M802.22 342.109H723.07L714 327.629L696 356.629L678 327.629L660 356.629L650.94 342.079H584.35" stroke="#2C455B" stroke-width="4" stroke-linecap="round" stroke-linejoin="round"/>
<path d="M852.28 462C857.314 462.002 862.235 460.511 866.422 457.715C870.608 454.92 873.872 450.946 875.8 446.296C877.727 441.646 878.233 436.528 877.252 431.591C876.271 426.653 873.848 422.118 870.289 418.557C866.73 414.997 862.196 412.572 857.259 411.589C852.321 410.607 847.204 411.11 842.553 413.036C837.902 414.962 833.927 418.224 831.13 422.409C828.333 426.595 826.84 431.516 826.84 436.55C826.842 443.297 829.523 449.767 834.293 454.539C839.063 459.311 845.533 461.994 852.28 462Z" fill="#3291FF"/>
<path d="M216.321 383.18H447.771C462.191 383.18 431.601 396.89 431.601 411.37L474.001 567.94V583.65C473.996 590.594 471.235 597.253 466.324 602.163C461.414 607.073 454.755 609.834 447.811 609.84H216.321C209.374 609.84 202.712 607.081 197.798 602.169C192.885 597.258 190.124 590.597 190.121 583.65V570.78L211.791 411.37C211.791 397 201.891 383.18 216.321 383.18Z" fill="#2C455B"/>
<path d="M216.321 367.461H447.771C451.213 367.458 454.622 368.134 457.803 369.448C460.984 370.763 463.875 372.692 466.31 375.124C468.746 377.556 470.679 380.443 471.998 383.622C473.318 386.801 473.998 390.209 474.001 393.651V567.941C473.996 574.885 471.235 581.544 466.324 586.454C461.414 591.365 454.755 594.126 447.811 594.131H216.321C209.375 594.128 202.714 591.368 197.801 586.458C192.889 581.547 190.126 574.887 190.121 567.941V393.651C190.126 386.705 192.889 380.045 197.801 375.134C202.714 370.223 209.375 367.464 216.321 367.461Z" fill="#3291FF"/>
<path d="M819.62 293.41H969.46C983.88 293.41 976.46 304.47 976.46 318.96L995.67 453.73V469.45C995.664 476.395 992.903 483.053 987.993 487.963C983.083 492.874 976.424 495.635 969.48 495.64H819.62C812.675 495.635 806.017 492.874 801.106 487.963C796.196 483.053 793.435 476.395 793.43 469.45V453.73L821.49 327.73C821.49 313.2 805.13 293.41 819.62 293.41Z" fill="#2C455B"/>
<path d="M819.29 277.699H969.13C976.076 277.702 982.737 280.462 987.649 285.372C992.562 290.283 995.324 296.943 995.33 303.889V453.729C995.324 460.675 992.562 467.335 987.649 472.246C982.737 477.157 976.076 479.917 969.13 479.919H819.29C812.344 479.917 805.684 477.156 800.773 472.245C795.862 467.334 793.102 460.674 793.1 453.729V303.829C793.129 296.898 795.899 290.259 800.806 285.363C805.713 280.468 812.358 277.712 819.29 277.699Z" fill="#3291FF"/>
<path d="M324.809 509.17C329.679 509.172 334.44 507.729 338.49 505.025C342.54 502.321 345.697 498.477 347.562 493.978C349.427 489.48 349.916 484.529 348.967 479.753C348.019 474.976 345.674 470.588 342.232 467.144C338.789 463.7 334.402 461.354 329.626 460.403C324.85 459.453 319.899 459.94 315.4 461.803C310.901 463.666 307.055 466.822 304.349 470.871C301.643 474.919 300.199 479.68 300.199 484.55C300.198 487.782 300.833 490.984 302.07 493.971C303.306 496.958 305.118 499.672 307.404 501.958C309.689 504.244 312.403 506.058 315.389 507.295C318.376 508.533 321.577 509.17 324.809 509.17Z" fill="white"/>
<path d="M324.81 560.87C339.905 560.872 354.662 556.398 367.214 548.013C379.766 539.628 389.55 527.709 395.328 513.764C401.106 499.818 402.618 484.473 399.675 469.667C396.731 454.862 389.463 441.262 378.79 430.588C368.117 419.913 354.518 412.643 339.713 409.698C324.908 406.752 309.562 408.263 295.616 414.039C281.67 419.815 269.75 429.597 261.363 442.148C252.976 454.699 248.5 469.455 248.5 484.55C248.499 494.573 250.472 504.497 254.306 513.756C258.14 523.016 263.761 531.429 270.847 538.516C277.933 545.603 286.346 551.225 295.605 555.061C304.864 558.896 314.788 560.87 324.81 560.87Z" stroke="black" stroke-width="4" stroke-linecap="round" stroke-linejoin="round"/>
<path d="M273.71 552.66C276.251 552.658 278.734 551.903 280.846 550.489C282.958 549.076 284.603 547.069 285.574 544.721C286.545 542.372 286.798 539.789 286.301 537.297C285.805 534.805 284.58 532.516 282.782 530.72C280.985 528.924 278.695 527.701 276.203 527.206C273.71 526.711 271.127 526.966 268.78 527.939C266.432 528.912 264.426 530.559 263.015 532.672C261.603 534.785 260.85 537.269 260.85 539.81C260.85 541.498 261.182 543.17 261.829 544.73C262.475 546.289 263.423 547.706 264.617 548.9C265.811 550.093 267.229 551.04 268.789 551.685C270.349 552.33 272.021 552.661 273.71 552.66Z" fill="#2C455B"/>
<path d="M934.72 397.35C932.283 391.325 928.029 386.209 922.551 382.712C917.072 379.216 910.641 377.513 904.15 377.84C904.002 377.846 903.854 377.824 903.715 377.773C903.576 377.722 903.448 377.644 903.339 377.544C903.231 377.443 903.143 377.322 903.081 377.188C903.019 377.053 902.985 376.908 902.98 376.76C902.961 376.592 902.986 376.423 903.051 376.267C903.115 376.111 903.218 375.975 903.35 375.87C908.233 371.576 911.658 365.867 913.147 359.537C914.636 353.207 914.117 346.57 911.66 340.55L901.59 315.77L843.59 339.32L853.66 364.12C856.113 370.136 860.371 375.243 865.848 378.739C871.324 382.235 877.75 383.947 884.24 383.64C884.539 383.628 884.832 383.733 885.055 383.933C885.279 384.132 885.417 384.411 885.44 384.71C885.45 384.878 885.422 385.046 885.358 385.202C885.294 385.358 885.195 385.497 885.07 385.61C880.189 389.897 876.763 395.596 875.267 401.918C873.771 408.239 874.278 414.87 876.72 420.89L886.79 445.7L944.79 422.15L934.72 397.35Z" fill="white"/>
<path d="M930.86 410.42L933.98 418.05L891.63 435.25L884.27 417.16C883.403 415.005 882.86 412.734 882.66 410.42H930.86Z" fill="#61AAFF"/>
<path opacity="0.2" d="M904.15 410.42L921.15 414.91L924.08 422.09L934.01 418.09L930.89 410.46L904.15 410.42Z" fill="#181818"/>
<path d="M891.481 374.11C888.701 375.24 885.726 375.81 882.725 375.79C879.724 375.769 876.757 375.158 873.993 373.991C871.228 372.824 868.721 371.123 866.613 368.987C864.506 366.851 862.84 364.32 861.711 361.54L857.711 349.66H905.571C906.272 354.722 905.268 359.873 902.716 364.3C900.165 368.727 896.212 372.179 891.481 374.11Z" fill="#61AAFF"/>
<path opacity="0.2" d="M905.529 349.67H895.329C896.116 355.349 894.753 361.116 891.508 365.843C888.264 370.569 883.371 373.913 877.789 375.22C882.357 376.28 887.142 375.892 891.479 374.11C896.201 372.172 900.144 368.719 902.687 364.295C905.231 359.87 906.231 354.725 905.529 349.67Z" fill="#181818"/>
<path d="M881.34 447.9L950.06 420" stroke="#616161" stroke-width="4" stroke-linecap="round" stroke-linejoin="round"/>
<path d="M838.379 341.351L907.069 313.461" stroke="#616161" stroke-width="4" stroke-linecap="round" stroke-linejoin="round"/>
<path d="M881.179 359.699C895.879 359.699 904.239 353.999 904.179 349.699H858.789C860.439 356.769 867.459 359.699 881.179 359.699Z" fill="white"/>
<path d="M907 420.52C921 420.52 930.85 410.42 930.3 410.43H883.9C882.7 410.6 892.71 420.52 907 420.52Z" fill="white"/>
<path d="M286.51 343.001V277.491C286.507 275.867 286.825 274.259 287.445 272.759C288.066 271.259 288.976 269.896 290.125 268.748C291.273 267.601 292.637 266.692 294.137 266.072C295.638 265.453 297.246 265.137 298.87 265.141H493C494.622 265.138 496.229 265.456 497.729 266.075C499.229 266.695 500.591 267.605 501.738 268.752C502.886 269.899 503.795 271.262 504.415 272.761C505.035 274.261 505.352 275.868 505.35 277.491V380.491" stroke="#2C455B" stroke-width="4" stroke-linecap="round" stroke-linejoin="round"/>
<path d="M286.269 352.121C289.911 352.121 293.47 351.041 296.497 349.018C299.525 346.995 301.885 344.12 303.278 340.756C304.671 337.392 305.036 333.69 304.326 330.119C303.615 326.548 301.862 323.268 299.287 320.693C296.713 318.118 293.432 316.365 289.861 315.655C286.29 314.944 282.588 315.309 279.224 316.702C275.86 318.096 272.985 320.455 270.962 323.483C268.939 326.51 267.859 330.07 267.859 333.711C267.859 336.128 268.336 338.522 269.261 340.756C270.186 342.99 271.542 345.019 273.252 346.729C274.961 348.438 276.991 349.794 279.224 350.719C281.458 351.645 283.852 352.121 286.269 352.121Z" fill="#2C455B"/>
<path d="M451.129 271.34C452.318 271.34 453.48 270.987 454.468 270.325C455.455 269.664 456.224 268.724 456.677 267.624C457.13 266.525 457.246 265.316 457.01 264.151C456.774 262.986 456.198 261.917 455.354 261.08C454.51 260.242 453.436 259.675 452.269 259.449C451.102 259.223 449.894 259.349 448.798 259.811C447.703 260.273 446.769 261.05 446.116 262.043C445.463 263.036 445.119 264.201 445.129 265.39C445.142 266.972 445.78 268.486 446.904 269.6C448.028 270.715 449.546 271.34 451.129 271.34Z" fill="#2C455B"/>
<path d="M581.281 617.22H684.871C688.433 617.215 691.849 615.797 694.368 613.278C696.888 610.759 698.305 607.343 698.311 603.78V467.09C698.308 463.527 696.891 460.11 694.371 457.59C691.851 455.07 688.434 453.653 684.871 453.65H625.871C625.446 453.633 625.027 453.746 624.669 453.975C624.311 454.204 624.032 454.537 623.871 454.93L606.771 495.65L569.611 509.49C569.078 509.701 568.623 510.07 568.306 510.547C567.99 511.025 567.827 511.588 567.841 512.16V603.87C567.842 605.631 568.191 607.373 568.868 608.998C569.545 610.623 570.537 612.099 571.785 613.339C573.034 614.58 574.516 615.561 576.146 616.227C577.775 616.893 579.52 617.231 581.281 617.22Z" fill="#61AAFF"/>
<path d="M568.93 509.88C568.73 510.08 568.93 510.58 569.33 510.58L611.23 510.28C614.795 510.277 618.213 508.861 620.734 506.341C623.256 503.821 624.675 500.404 624.68 496.84L624.28 454.34L568.93 509.88Z" fill="#88CE27"/>
<path d="M375.79 241.16H487.35C501.77 241.16 484.89 257.33 484.89 271.82L513.34 362.42C513.34 376.84 507.85 405.03 493.34 405.03H364.86C350.44 405.03 349.6 380.33 349.6 365.84L366.35 270.39C366.35 256.1 361.3 241.16 375.79 241.16Z" fill="#2C455B"/>
<path d="M375.79 225.449H487.35C494.295 225.452 500.955 228.212 505.866 233.123C510.777 238.034 513.537 244.694 513.54 251.639V363.189C513.534 370.134 510.773 376.792 505.863 381.703C500.952 386.613 494.294 389.374 487.35 389.379H375.79C368.844 389.377 362.184 386.616 357.273 381.705C352.362 376.794 349.602 370.134 349.6 363.189V251.639C349.596 248.199 350.27 244.791 351.585 241.612C352.9 238.433 354.829 235.544 357.262 233.111C359.694 230.679 362.583 228.75 365.762 227.435C368.942 226.12 372.349 225.445 375.79 225.449Z" fill="#0054B6"/>
<path d="M471.871 302.86L391.341 273.09C391.241 273.09 391.141 273.09 391.241 273.19L418.761 354.53C418.761 354.64 418.871 354.64 418.961 354.53L429.261 331C429.261 330.89 429.361 330.89 429.471 331L448.121 350H448.221L466.671 332V331.9L448.121 312.83V312.63L471.771 303.05C471.871 303.06 471.871 302.86 471.871 302.86Z" fill="white"/>
<path d="M299.16 692.23H410.71C425.13 692.23 427.46 700.83 427.46 715.32L436.9 814.32V830C436.897 836.946 434.137 843.606 429.226 848.517C424.315 853.428 417.655 856.188 410.71 856.19H299.16C292.221 856.177 285.57 853.413 280.666 848.503C275.762 843.594 273.005 836.94 273 830V814.331L289 718.88C289 704.39 284.67 692.23 299.16 692.23Z" fill="#2C455B"/>
<path d="M299.16 676.58H410.71C417.654 676.585 424.313 679.346 429.223 684.257C434.134 689.167 436.895 695.826 436.9 702.77V814.33C436.897 821.275 434.137 827.935 429.226 832.846C424.315 837.757 417.655 840.517 410.71 840.52H299.16C292.221 840.507 285.57 837.742 280.666 832.833C275.762 827.923 273.005 821.269 273 814.33V702.71C273.005 695.776 275.764 689.129 280.67 684.229C285.575 679.329 292.226 676.577 299.16 676.58Z" fill="#0054B6"/>
<path d="M393.769 733.3L383.939 743.13C382.211 744.863 379.868 745.843 377.421 745.854C374.974 745.865 372.622 744.907 370.879 743.19C369.224 741.488 368.309 739.203 368.331 736.83C368.354 734.457 369.312 732.189 370.999 730.52L380.999 720.52C381.201 720.325 381.361 720.092 381.471 719.835C381.581 719.577 381.638 719.3 381.638 719.02C381.638 718.739 381.581 718.462 381.471 718.204C381.361 717.947 381.201 717.714 380.999 717.52C380.757 717.263 380.443 717.085 380.099 717.01C375.369 715.6 370.334 715.577 365.592 716.944C360.85 718.311 356.599 721.009 353.345 724.719C350.091 728.43 347.969 732.995 347.233 737.875C346.496 742.755 347.175 747.744 349.189 752.25L313.879 787.62C312.148 789.35 311.169 791.693 311.156 794.14C311.143 796.587 312.096 798.941 313.809 800.69C315.512 802.346 317.8 803.261 320.175 803.237C322.551 803.213 324.82 802.25 326.489 800.56L361.999 765.11C366.518 767.17 371.537 767.882 376.451 767.16C381.365 766.437 385.967 764.312 389.703 761.039C393.439 757.765 396.15 753.483 397.512 748.706C398.873 743.929 398.827 738.861 397.379 734.11C397.204 733.576 396.829 733.13 396.334 732.865C395.838 732.601 395.259 732.538 394.719 732.69C394.378 732.852 394.058 733.057 393.769 733.3Z" fill="white"/>
</g>
<defs>
<clipPath id="clip0_331_15201">
<rect width="1200" height="1080" fill="white"/>
</clipPath>
</defs>
</svg>
