<svg width="1200" height="1080" viewBox="0 0 1200 1080" fill="none" xmlns="http://www.w3.org/2000/svg">
<g clip-path="url(#clip0_374_23399)">
<rect width="1200" height="1080" fill="white"/>
<path d="M1200 -77H0V1080H1200V-77Z" fill="#E9EFF3"/>
<path d="M480.37 788.64L484.88 777.927L487.88 788.897L500.21 783.283L492.86 794.939L502.14 801.527L490.04 802.481L491.6 815.015L483.2 806.145L475.4 812.701L477.08 802.449L466.34 801.495L476 794.853L470.6 783.905L480.37 788.64Z" stroke="#88CE27" stroke-width="4" stroke-linecap="round" stroke-linejoin="round"/>
<path d="M622.479 728.412L634.399 731.433L624.279 738.782L627.759 751.359L616.759 745.67L608.359 755.173L607.459 742.092L595.539 739.06L605.659 731.668L602.179 719.134L613.179 724.823L621.579 715.32L622.479 728.412Z" fill="#0054B6"/>
<path d="M228 427.002C230.668 427.004 233.277 426.159 235.497 424.572C237.717 422.985 239.447 420.729 240.47 418.088C241.492 415.448 241.761 412.542 241.242 409.738C240.722 406.934 239.438 404.357 237.552 402.335C235.666 400.313 233.262 398.936 230.645 398.377C228.028 397.819 225.315 398.104 222.849 399.198C220.384 400.291 218.276 402.144 216.794 404.52C215.311 406.897 214.52 409.692 214.52 412.55C214.52 416.381 215.939 420.056 218.467 422.766C220.995 425.476 224.423 426.999 228 427.002Z" stroke="#0054B6" stroke-width="4" stroke-linecap="round" stroke-linejoin="round"/>
<path d="M484.58 230.762C488.067 230.771 491.477 229.671 494.38 227.602C497.283 225.533 499.547 222.588 500.887 219.139C502.227 215.691 502.582 211.894 501.906 208.23C501.231 204.565 499.556 201.198 497.093 198.554C494.631 195.91 491.491 194.107 488.072 193.376C484.653 192.644 481.108 193.015 477.886 194.443C474.664 195.87 471.91 198.289 469.972 201.394C468.034 204.5 467 208.151 467 211.886C466.997 216.886 468.847 221.682 472.144 225.221C475.44 228.761 479.913 230.754 484.58 230.762Z" fill="#88CE27"/>
<path d="M419.23 279.421L824.4 281.242C840.59 281.242 839.4 284.595 839.4 301.929L854.73 334.068V639.173C854.73 647.498 851.643 655.482 846.149 661.368C840.654 667.255 833.201 670.562 825.43 670.562H417.86C414.013 670.562 410.203 669.75 406.649 668.172C403.095 666.595 399.866 664.283 397.146 661.368C394.426 658.453 392.268 654.992 390.797 651.184C389.326 647.376 388.569 643.294 388.57 639.173V334.078L402.57 305.153C402.6 287.809 403.05 279.421 419.23 279.421Z" fill="#2C425B"/>
<path d="M417.86 269.769H825.38C833.151 269.769 840.604 273.076 846.099 278.962C851.593 284.849 854.68 292.833 854.68 301.158V334.078H388.57V301.2C388.564 297.075 389.317 292.989 390.786 289.176C392.255 285.363 394.411 281.897 397.131 278.978C399.852 276.059 403.083 273.742 406.64 272.162C410.197 270.582 414.01 269.769 417.86 269.769Z" fill="#B8D7F9"/>
<path d="M811.61 315.973C814.14 315.973 816.613 315.169 818.716 313.664C820.819 312.158 822.459 310.018 823.427 307.515C824.395 305.011 824.648 302.256 824.155 299.598C823.661 296.94 822.443 294.499 820.654 292.583C818.865 290.666 816.587 289.361 814.106 288.833C811.625 288.304 809.053 288.575 806.716 289.612C804.379 290.649 802.381 292.406 800.976 294.659C799.57 296.912 798.82 299.561 798.82 302.271C798.819 304.071 799.149 305.853 799.791 307.516C800.433 309.179 801.376 310.69 802.563 311.963C803.751 313.236 805.162 314.245 806.714 314.933C808.267 315.621 809.93 315.975 811.61 315.973V315.973Z" stroke="#2C425B" stroke-width="4" stroke-linecap="round" stroke-linejoin="round"/>
<path d="M798 316.884L802.63 311.924" stroke="#2C425B" stroke-width="4" stroke-linecap="round" stroke-linejoin="round"/>
<path d="M457.479 398.152H580.479C584.242 398.152 587.852 399.754 590.513 402.605C593.174 405.456 594.669 409.322 594.669 413.354C594.669 417.386 593.174 421.252 590.513 424.103C587.852 426.954 584.242 428.556 580.479 428.556H457.479C453.716 428.556 450.106 426.954 447.445 424.103C444.784 421.252 443.289 417.386 443.289 413.354C443.289 409.322 444.784 405.456 447.445 402.605C450.106 399.754 453.716 398.152 457.479 398.152Z" fill="#0054B6"/>
<path d="M457.479 460.973H529.359C533.122 460.973 536.732 462.574 539.393 465.425C542.054 468.276 543.549 472.143 543.549 476.174C543.549 480.206 542.054 484.073 539.393 486.924C536.732 489.774 533.122 491.376 529.359 491.376H457.479C453.716 491.376 450.106 489.774 447.445 486.924C444.784 484.073 443.289 480.206 443.289 476.174C443.289 472.143 444.784 468.276 447.445 465.425C450.106 462.574 453.716 460.973 457.479 460.973Z" fill="#436D9F"/>
<path d="M576.651 460.973H599.351C603.114 460.973 606.724 462.574 609.385 465.425C612.046 468.276 613.541 472.143 613.541 476.174C613.541 480.206 612.046 484.073 609.385 486.924C606.724 489.774 603.114 491.376 599.351 491.376H576.651C572.888 491.376 569.278 489.774 566.617 486.924C563.956 484.073 562.461 480.206 562.461 476.174C562.461 472.143 563.956 468.276 566.617 465.425C569.278 462.574 572.888 460.973 576.651 460.973Z" fill="#9ED2FF"/>
<path d="M457.481 523.794H475.141C478.838 523.9 482.35 525.547 484.93 528.385C487.51 531.224 488.954 535.029 488.954 538.991C488.954 542.953 487.51 546.758 484.93 549.596C482.35 552.435 478.838 554.082 475.141 554.187H457.481C455.586 554.241 453.701 553.888 451.936 553.148C450.171 552.409 448.562 551.298 447.204 549.882C445.847 548.465 444.767 546.772 444.031 544.901C443.294 543.031 442.914 541.021 442.914 538.991C442.914 536.96 443.294 534.951 444.031 533.08C444.767 531.21 445.847 529.516 447.204 528.1C448.562 526.683 450.171 525.573 451.936 524.833C453.701 524.094 455.586 523.741 457.481 523.794Z" fill="#436D9F"/>
<path d="M522.43 523.794H628.36C632.057 523.9 635.569 525.547 638.149 528.385C640.729 531.224 642.173 535.029 642.173 538.991C642.173 542.953 640.729 546.758 638.149 549.596C635.569 552.435 632.057 554.082 628.36 554.187H522.43C520.535 554.241 518.65 553.888 516.885 553.148C515.12 552.409 513.511 551.298 512.154 549.882C510.796 548.465 509.717 546.772 508.98 544.901C508.243 543.031 507.863 541.021 507.863 538.991C507.863 536.96 508.243 534.951 508.98 533.08C509.717 531.21 510.796 529.516 512.154 528.1C513.511 526.683 515.12 525.573 516.885 524.833C518.65 524.094 520.535 523.741 522.43 523.794Z" fill="#9ED2FF"/>
<path d="M675.649 523.794H766.439C770.136 523.9 773.648 525.547 776.228 528.385C778.808 531.224 780.252 535.029 780.252 538.991C780.252 542.953 778.808 546.758 776.228 549.596C773.648 552.435 770.136 554.082 766.439 554.187H675.649C673.754 554.241 671.869 553.888 670.104 553.148C668.339 552.409 666.73 551.298 665.372 549.882C664.015 548.465 662.935 546.772 662.199 544.901C661.462 543.031 661.082 541.021 661.082 538.991C661.082 536.96 661.462 534.951 662.199 533.08C662.935 531.21 664.015 529.516 665.372 528.1C666.73 526.683 668.339 525.573 670.104 524.833C671.869 524.094 673.754 523.741 675.649 523.794Z" fill="#638CBC"/>
<path d="M457.481 586.615H514.231C516.125 586.561 518.011 586.914 519.776 587.654C521.541 588.393 523.149 589.504 524.507 590.92C525.865 592.337 526.944 594.03 527.681 595.901C528.418 597.771 528.797 599.781 528.797 601.811C528.797 603.841 528.418 605.851 527.681 607.722C526.944 609.592 525.865 611.286 524.507 612.702C523.149 614.118 521.541 615.229 519.776 615.969C518.011 616.708 516.125 617.061 514.231 617.007H457.481C455.586 617.061 453.701 616.708 451.936 615.969C450.171 615.229 448.562 614.118 447.204 612.702C445.847 611.286 444.767 609.592 444.031 607.722C443.294 605.851 442.914 603.841 442.914 601.811C442.914 599.781 443.294 597.771 444.031 595.901C444.767 594.03 445.847 592.337 447.204 590.92C448.562 589.504 450.171 588.393 451.936 587.654C453.701 586.914 455.586 586.561 457.481 586.615Z" fill="#8D8E8F"/>
<path d="M561.52 586.615H574.13C576.024 586.561 577.91 586.914 579.675 587.654C581.44 588.393 583.049 589.504 584.406 590.92C585.764 592.337 586.843 594.03 587.58 595.901C588.317 597.771 588.696 599.781 588.696 601.811C588.696 603.841 588.317 605.851 587.58 607.722C586.843 609.592 585.764 611.286 584.406 612.702C583.049 614.118 581.44 615.229 579.675 615.969C577.91 616.708 576.024 617.061 574.13 617.007H561.52C559.625 617.061 557.74 616.708 555.975 615.969C554.21 615.229 552.601 614.118 551.243 612.702C549.886 611.286 548.806 609.592 548.07 607.722C547.333 605.851 546.953 603.841 546.953 601.811C546.953 599.781 547.333 597.771 548.07 595.901C548.806 594.03 549.886 592.337 551.243 590.92C552.601 589.504 554.21 588.393 555.975 587.654C557.74 586.914 559.625 586.561 561.52 586.615Z" fill="#436D9F"/>
<path d="M621.42 586.615H696.42C698.315 586.561 700.2 586.914 701.965 587.654C703.73 588.393 705.339 589.504 706.697 590.92C708.054 592.337 709.134 594.03 709.87 595.901C710.607 597.771 710.987 599.781 710.987 601.811C710.987 603.841 710.607 605.851 709.87 607.722C709.134 609.592 708.054 611.286 706.697 612.702C705.339 614.118 703.73 615.229 701.965 615.969C700.2 616.708 698.315 617.061 696.42 617.007H621.42C619.526 617.061 617.64 616.708 615.875 615.969C614.11 615.229 612.501 614.118 611.144 612.702C609.786 611.286 608.707 609.592 607.97 607.722C607.233 605.851 606.854 603.841 606.854 601.811C606.854 599.781 607.233 597.771 607.97 595.901C608.707 594.03 609.786 592.337 611.144 590.92C612.501 589.504 614.11 588.393 615.875 587.654C617.64 586.914 619.526 586.561 621.42 586.615Z" fill="#0054B6"/>
<path d="M597.911 159.531H741.001C749.035 159.531 756.739 162.95 762.419 169.036C768.1 175.121 771.291 183.375 771.291 191.981V344.469C771.291 348.73 770.508 352.95 768.985 356.887C767.463 360.824 765.232 364.401 762.419 367.414C759.607 370.428 756.268 372.818 752.593 374.449C748.918 376.079 744.979 376.919 741.001 376.919H597.911C593.933 376.919 589.995 376.079 586.32 374.449C582.645 372.818 579.306 370.428 576.493 367.414C573.68 364.401 571.449 360.824 569.927 356.887C568.405 352.95 567.621 348.73 567.621 344.469V191.981C567.621 183.375 570.812 175.121 576.493 169.036C582.173 162.95 589.878 159.531 597.911 159.531Z" fill="white"/>
<path d="M617.94 188.446L594.67 213.354" stroke="#272727" stroke-width="4" stroke-linecap="round" stroke-linejoin="round"/>
<path d="M617.94 213.354L594.67 188.425" stroke="#272727" stroke-width="4" stroke-linecap="round" stroke-linejoin="round"/>
<path d="M625.52 235.176L700 224.066C700.915 223.928 701.846 223.984 702.74 224.232C703.634 224.481 704.473 224.916 705.209 225.514C705.945 226.111 706.564 226.859 707.029 227.714C707.495 228.569 707.797 229.513 707.92 230.494L719.85 321.919C719.978 322.897 719.925 323.894 719.692 324.85C719.459 325.807 719.053 326.705 718.495 327.492C717.937 328.28 717.24 328.941 716.443 329.439C715.646 329.937 714.765 330.261 713.85 330.393L639.4 341.48C638.486 341.619 637.555 341.563 636.661 341.314C635.766 341.066 634.927 340.631 634.191 340.033C633.455 339.436 632.836 338.688 632.371 337.833C631.906 336.978 631.603 336.033 631.48 335.053L619.55 243.628C619.297 241.659 619.783 239.663 620.902 238.078C622.022 236.494 623.683 235.449 625.52 235.176Z" fill="#88CE27"/>
<path d="M637.49 257.341L640.97 260.158L645.24 254.148" stroke="#2C425B" stroke-width="4" stroke-linecap="round" stroke-linejoin="round"/>
<path d="M647.611 288.345C648.108 287.853 648.458 287.215 648.616 286.511C648.774 285.807 648.734 285.069 648.501 284.389C648.268 283.71 647.852 283.119 647.306 282.693C646.76 282.266 646.108 282.022 645.432 281.992C644.757 281.962 644.088 282.148 643.511 282.525C642.934 282.901 642.474 283.453 642.189 284.11C641.905 284.767 641.808 285.499 641.912 286.215C642.015 286.93 642.314 287.597 642.771 288.13C643.076 288.486 643.442 288.773 643.851 288.976C644.259 289.179 644.7 289.294 645.15 289.314C645.6 289.334 646.048 289.258 646.471 289.092C646.893 288.926 647.281 288.672 647.611 288.345V288.345Z" stroke="#2C425B" stroke-width="4" stroke-linecap="round" stroke-linejoin="round"/>
<path d="M651.29 316.637C651.789 316.148 652.142 315.511 652.302 314.807C652.463 314.103 652.426 313.363 652.194 312.682C651.963 312.001 651.548 311.409 651.003 310.98C650.457 310.552 649.805 310.306 649.129 310.275C648.453 310.243 647.784 310.427 647.205 310.804C646.627 311.18 646.166 311.731 645.88 312.388C645.595 313.045 645.497 313.778 645.601 314.494C645.704 315.211 646.003 315.878 646.46 316.412C647.076 317.123 647.928 317.545 648.832 317.587C649.736 317.629 650.62 317.288 651.29 316.637V316.637Z" stroke="#2C425B" stroke-width="4" stroke-linecap="round" stroke-linejoin="round"/>
<path d="M655.27 256.013L686.159 251.396" stroke="#2C425B" stroke-width="4" stroke-linecap="round" stroke-linejoin="round"/>
<path d="M658.879 283.674L689.769 279.046" stroke="#2C425B" stroke-width="4" stroke-linecap="round" stroke-linejoin="round"/>
<path d="M662.531 311.677L693.421 307.049" stroke="#2C425B" stroke-width="4" stroke-linecap="round" stroke-linejoin="round"/>
<path d="M976.85 481.456H764.26C757.364 481.456 750.751 484.391 745.875 489.614C740.999 494.838 738.26 501.922 738.26 509.31V723.29C738.26 730.678 740.999 737.762 745.875 742.986C750.751 748.21 757.364 751.144 764.26 751.144H976.85C983.745 751.144 990.359 748.21 995.235 742.986C1000.11 737.762 1002.85 730.678 1002.85 723.29V509.342C1002.85 505.681 1002.18 502.056 1000.88 498.673C999.574 495.29 997.66 492.215 995.245 489.626C992.83 487.036 989.963 484.981 986.806 483.579C983.65 482.178 980.267 481.456 976.85 481.456Z" fill="white"/>
<path d="M766.69 530.972C768.807 530.974 770.876 530.303 772.637 529.045C774.398 527.787 775.771 525.997 776.583 523.903C777.394 521.808 777.607 519.503 777.196 517.279C776.784 515.055 775.766 513.011 774.27 511.407C772.774 509.803 770.867 508.71 768.791 508.267C766.715 507.824 764.563 508.05 762.608 508.917C760.652 509.785 758.98 511.254 757.804 513.139C756.628 515.025 756 517.241 756 519.509C755.999 521.014 756.274 522.504 756.811 523.895C757.347 525.285 758.135 526.549 759.128 527.614C760.12 528.678 761.299 529.523 762.597 530.099C763.894 530.675 765.285 530.972 766.69 530.972Z" fill="#E9EEF3"/>
<path d="M797.769 530.972C799.884 530.97 801.952 530.295 803.71 529.035C805.469 527.774 806.839 525.983 807.647 523.888C808.455 521.793 808.666 519.489 808.252 517.266C807.838 515.043 806.818 513.002 805.321 511.4C803.824 509.798 801.918 508.707 799.842 508.265C797.767 507.824 795.616 508.052 793.662 508.92C791.707 509.787 790.037 511.257 788.861 513.141C787.686 515.026 787.059 517.242 787.059 519.509C787.057 521.015 787.333 522.508 787.871 523.9C788.409 525.292 789.198 526.556 790.193 527.621C791.188 528.686 792.369 529.53 793.669 530.105C794.969 530.68 796.362 530.974 797.769 530.972Z" fill="#E9EEF3"/>
<path d="M828.899 530.972C831.015 530.972 833.084 530.299 834.844 529.04C836.603 527.78 837.975 525.99 838.785 523.895C839.595 521.801 839.806 519.496 839.394 517.272C838.981 515.049 837.962 513.006 836.465 511.403C834.969 509.8 833.062 508.708 830.987 508.266C828.911 507.824 826.76 508.051 824.805 508.918C822.849 509.786 821.178 511.255 820.003 513.14C818.827 515.025 818.199 517.242 818.199 519.509C818.198 521.015 818.474 522.506 819.011 523.897C819.548 525.288 820.336 526.553 821.33 527.617C822.324 528.682 823.504 529.526 824.803 530.102C826.102 530.678 827.494 530.973 828.899 530.972Z" fill="#E9EEF3"/>
<path d="M837.349 685.999L799.349 667.016C799.279 667.016 799.279 667.016 799.279 667.091C790.279 688.613 787.999 694.944 787.789 695.523L787.709 695.609C785.329 695.051 706.599 676.55 683.249 675.757C675.759 675.511 674.049 682.421 679.909 687.027C679.979 687.027 679.979 687.102 679.909 687.188C676.349 688.934 670.269 693.305 675.239 701.801V701.865C674.869 702.411 671.009 708.689 677.759 714.967V715.042C677.459 715.685 674.759 723.152 682.949 728.23C682.949 728.23 683.019 728.315 682.949 728.315C682.799 728.872 682.059 733.307 688.729 737.357C689.427 737.829 690.176 738.207 690.959 738.482C696.519 740.699 699.109 736.575 697.179 731.958V731.861C697.699 731.626 700.669 729.954 699.039 725.583C699.039 725.508 699.039 725.433 699.109 725.508C746.109 743.303 804.609 763.475 841.979 719.466V719.391C841.789 718.159 837.489 687.263 837.349 685.999Z" fill="#CF5934"/>
<path d="M679.789 687.027L686.989 688.538" stroke="black" stroke-width="4" stroke-linecap="round" stroke-linejoin="round"/>
<path d="M852.541 617.768C856.427 617.768 860.226 616.533 863.458 614.22C866.689 611.907 869.208 608.619 870.695 604.773C872.182 600.926 872.571 596.694 871.813 592.61C871.055 588.527 869.183 584.776 866.435 581.832C863.687 578.888 860.186 576.883 856.374 576.071C852.562 575.258 848.611 575.675 845.021 577.268C841.43 578.862 838.361 581.56 836.202 585.022C834.043 588.484 832.891 592.553 832.891 596.717C832.889 599.482 833.397 602.22 834.384 604.775C835.371 607.329 836.818 609.65 838.643 611.605C840.468 613.56 842.635 615.111 845.019 616.168C847.404 617.226 849.96 617.769 852.541 617.768Z" fill="#010005"/>
<path d="M903.691 590.76L875.821 594.81L858.471 590.846C858.401 590.846 858.401 590.76 858.401 590.76L859.401 584.568C859.401 584.548 859.393 584.529 859.38 584.515C859.367 584.501 859.349 584.493 859.331 584.493C852.061 586.871 840.641 586.475 835.751 579.136C831.081 572.152 831.081 564.138 835.461 549.515V549.429C835.161 549.033 831.751 544.191 832.341 541.405C832.931 538.866 838.571 538.192 839.091 538.074C839.101 538.074 839.111 538.072 839.12 538.067C839.129 538.063 839.137 538.056 839.144 538.048C839.151 538.04 839.156 538.03 839.158 538.02C839.161 538.01 839.162 537.999 839.161 537.988C844.721 520.279 848.061 508.367 861.631 502.732C875.901 496.722 894.001 499.389 905.181 510.102C916.361 520.815 912.371 541.791 910.441 552.515C909.441 558.471 906.151 577.851 903.691 590.792V590.76Z" fill="#CF5934"/>
<path d="M934.39 614.586C921.12 602.127 903.77 598.945 902.58 598.71C902.561 598.71 902.544 598.702 902.531 598.688C902.517 598.674 902.51 598.655 902.51 598.635C902.58 598.003 903.33 593.278 903.69 590.846C903.69 590.761 903.69 590.761 903.63 590.761H858.47C858.46 590.761 858.45 590.763 858.441 590.767C858.431 590.772 858.423 590.778 858.417 590.786C858.41 590.795 858.405 590.804 858.402 590.814C858.399 590.825 858.399 590.836 858.4 590.846L857 599.663C856.973 599.843 856.893 600.009 856.773 600.138C856.653 600.267 856.498 600.352 856.33 600.381C852.11 601.088 825.27 606.969 807.55 647.079C804.21 654.781 801.62 661.381 799.25 666.941V667.016L841.8 721.652V721.727L843.28 736.725C843.28 736.811 843.28 736.811 843.36 736.811L921.65 734.432H921.73L959.61 683.749V683.653C959.53 681.789 956.93 630.238 934.39 614.586Z" fill="#0054B6"/>
<path opacity="0.2" d="M909.78 663.834C909.78 663.759 909.7 663.759 909.7 663.759C896.51 663.919 903.4 701.168 883.31 721.662C863.37 742.017 880.31 736.832 880.56 736.746L921.79 734.368C921.799 734.368 921.808 734.366 921.816 734.362C921.825 734.358 921.833 734.353 921.839 734.346C921.846 734.339 921.851 734.331 921.854 734.322C921.858 734.313 921.86 734.303 921.86 734.293L913 702.593L909.78 663.834Z" fill="black"/>
<path opacity="0.2" d="M871 579.481L858.32 595.132C858.1 595.368 857.73 595.293 857.73 594.897L858.401 590.761L859.401 584.409C859.701 584.334 867.04 580.916 870.67 578.849C870.93 578.774 871.23 579.256 871 579.481Z" fill="#030202"/>
<path d="M905.25 509.749C888.94 493.947 854.91 495.137 845.57 519.209V519.284C846.24 519.755 854.24 524.64 866.93 521.748C866.949 521.748 866.967 521.755 866.98 521.77C866.993 521.784 867 521.803 867 521.823C860.62 538.663 870.85 544.384 871.45 544.705H871.52C872.34 544.298 891.09 535.321 895.98 546.28C903.25 562.65 881.38 570.588 880.42 570.92L880.35 571.006C879.83 572.506 862.35 625.963 897.35 641.711C917.45 648.943 935.46 643.136 947.25 631.545H947.4C950.333 637.574 952.679 643.91 954.4 650.453L954.48 650.517C976.64 648.064 979.61 617.307 960.4 610.022L960.33 609.937C961.81 602.791 963.22 589.368 955.88 577.455C942.98 556.49 912.21 567.524 910.13 568.242C910.07 568.242 910.07 568.242 910.07 568.167C913 549.301 920 526.172 905.25 509.749Z" fill="#010005"/>
<path d="M938.079 518.48C949.599 510.114 953.639 494.912 947.079 484.595C940.519 474.279 925.899 472.608 914.369 481.007C902.839 489.406 898.809 504.575 905.369 514.892C911.929 525.208 926.559 526.858 938.079 518.48Z" fill="#010005"/>
<path d="M835.559 674.161L840.999 712.289" stroke="#030202" stroke-width="4" stroke-linecap="round" stroke-linejoin="round"/>
<path d="M841.789 656.87C840.789 656.474 822.369 651.075 795.599 655.799C774.399 659.527 760.019 667.401 754.599 670.894C754.599 670.894 754.529 670.969 754.599 670.969L770.84 792.496C770.84 792.571 770.919 792.571 770.919 792.571C771.359 792.25 772.33 791.618 773.65 790.825C779.59 787.172 793.649 779.705 813.989 776.213C840.309 771.681 858.469 776.759 860.099 777.284C860.179 777.284 860.179 777.284 860.179 777.209L841.789 656.87Z" fill="#88CE27"/>
<path d="M812 760.465C825.86 758.076 834.33 737.646 830.91 714.817C827.49 691.987 813.48 675.425 799.61 677.814C785.74 680.203 777.27 700.633 780.7 723.462C784.13 746.291 798.11 762.854 812 760.465Z" fill="#48515B"/>
<path d="M754.53 670.797C742.711 661.759 729.656 654.737 715.83 649.981C692.48 642.043 678.61 645.375 677.65 645.61C677.629 645.61 677.609 645.619 677.594 645.636C677.579 645.652 677.57 645.673 677.57 645.696L684.57 694.976C687.306 695.556 689.888 696.778 692.13 698.554C699.02 704.189 693.76 709.106 693.76 709.106C703.1 716.423 696.76 721.908 696.76 721.908C702.47 729.407 696.91 731.743 696.91 731.743C698.91 736.435 696.31 740.57 690.75 738.342L694.98 768.124C694.979 768.135 694.98 768.146 694.982 768.156C694.985 768.166 694.99 768.176 694.997 768.184C695.004 768.192 695.012 768.199 695.021 768.203C695.03 768.207 695.04 768.21 695.05 768.21C696.17 767.888 710.05 764.717 733.23 772.57C745.84 776.941 768.6 791.157 770.53 792.357C770.6 792.357 770.68 792.357 770.6 792.271L754.53 670.797Z" fill="#2C425B"/>
<path d="M957.37 734.528C952.18 748.819 939.51 755.183 923.27 755.183H858C848 755.183 839.47 767.878 833.54 767.878C828.54 767.878 833.02 757.797 838.21 752.237C838.44 752.001 838.14 751.519 837.84 751.766C831.47 755.333 813.9 764.235 810.56 756.211C810.48 756.051 810.41 755.965 810.27 756.051C808.78 756.286 800.55 757.476 803 748.348C803.016 748.312 803.025 748.272 803.026 748.232C803.027 748.192 803.021 748.152 803.006 748.114C802.992 748.077 802.971 748.043 802.944 748.015C802.917 747.987 802.885 747.966 802.85 747.952C801.95 747.47 798.92 745.091 802.33 739.296C809.01 728.176 826.05 714.656 847.56 710.692C868.02 706.889 908.72 703.193 912.5 702.754C912.577 702.748 912.649 702.713 912.703 702.653C912.756 702.594 912.787 702.515 912.79 702.432L911.39 684.017C911.392 683.934 911.423 683.855 911.477 683.796C911.53 683.737 911.603 683.701 911.68 683.695H959.51C959.58 683.695 959.58 683.695 959.58 683.77C959.74 685.527 961.82 722.219 957.37 734.528Z" fill="#CF5934"/>
<path d="M880.349 554.701L874.109 558.751" stroke="#030202" stroke-width="4" stroke-linecap="round" stroke-linejoin="round"/>
<path d="M688.62 737.314C695.73 741.674 699.22 737.068 697 731.818C697 731.818 702.56 729.44 696.85 721.984C696.85 721.984 703.15 716.499 693.85 709.182C693.85 709.182 699.11 704.265 692.22 698.63C689.906 696.812 687.246 695.565 684.43 694.977" stroke="black" stroke-width="4" stroke-linecap="round" stroke-linejoin="round"/>
<path d="M675.121 701.726C678.531 706.964 688.321 709.589 693.811 709.225" stroke="black" stroke-width="4" stroke-linecap="round" stroke-linejoin="round"/>
<path d="M677.719 714.902C681.799 718.802 688.619 723.087 696.929 721.984" stroke="#030202" stroke-width="4" stroke-linecap="round" stroke-linejoin="round"/>
<path d="M682.91 728.176C684.98 730.554 693.21 733.414 697.07 731.818" stroke="#030202" stroke-width="4" stroke-linecap="round" stroke-linejoin="round"/>
<path d="M912.999 702.679C910.259 702.914 893.879 704.661 893.879 704.661" stroke="black" stroke-width="4" stroke-linecap="round" stroke-linejoin="round"/>
<path d="M810.65 755.891C828.44 742.392 838.16 737.464 844.01 734.765" stroke="#030202" stroke-width="4" stroke-linecap="round" stroke-linejoin="round"/>
<path d="M803.24 747.931C808.43 742.371 824.74 730.447 838.61 723.944" stroke="#030202" stroke-width="4" stroke-linecap="round" stroke-linejoin="round"/>
<path d="M910 663.759C910.52 670.744 913 702.679 913 702.679" stroke="black" stroke-width="4" stroke-linecap="round" stroke-linejoin="round"/>
<path d="M754.449 670.037L770.769 792.508" stroke="black" stroke-width="4" stroke-linecap="round" stroke-linejoin="round"/>
<path d="M268.939 784.034C275.039 766.379 290.029 743.999 303.319 724.105C305.419 720.891 307.589 717.774 309.629 714.657L309.769 714.517L248.249 698.651L245.469 700.108C242.759 704.179 240.659 707.661 238.469 711.368C232.55 721.527 227.29 732.112 222.729 743.046C220.499 748.488 218.399 753.866 216.359 759.608L221.169 799.857L268.939 784.034Z" fill="#C65A42"/>
<path opacity="0.3" d="M294.851 736.811C297.691 732.526 300.541 728.241 303.321 724.031C305.421 720.817 306.381 719.445 308.481 716.328L309.701 714.432L254.701 697.291L254.561 697.58C266.078 704.277 276.446 713.026 285.221 723.452C288.738 727.566 291.87 732.041 294.571 736.811L294.701 737.025L294.851 736.811Z" fill="#222020"/>
<path d="M388.29 401.024C390.414 401.759 392.639 402.103 394.87 402.042C400.98 402.042 406.13 399.792 408.63 396.01C412.77 389.979 412.84 382.93 409.05 370.149C409.45 369.571 412.37 365.564 411.82 363.025C411.48 361.579 409.45 360.486 405.82 359.972L405.48 358.74C403.911 353.297 401.982 347.981 399.71 342.831C396.71 336.585 388.05 338.182 381.27 335.418C376.79 333.532 377.06 333.275 372.32 333.382C363.17 333.382 359.56 331.572 353.53 337.378C343.9 346.688 345.26 362.222 346.96 371.745L348.52 372.988C349.33 378.58 347.77 396.739 349.87 407.923V408.073L387.65 410.323L389 405.963L388.29 401.024Z" fill="#C65A42"/>
<path opacity="0.3" d="M388.29 401.024L383.07 398.763C382.898 398.686 382.716 398.639 382.53 398.624C382.33 398.625 382.134 398.679 381.96 398.782C381.785 398.885 381.637 399.033 381.53 399.213C381.42 399.393 381.356 399.601 381.345 399.815C381.335 400.03 381.378 400.244 381.47 400.435L384.92 408.866L389.06 405.962L388.29 401.024Z" fill="#222020"/>
<path d="M392.641 788.041C392.802 783.938 393.162 779.847 393.721 775.785C395.011 766.036 396.571 754.123 398.601 739.522L385.601 620.383L340.601 719.617C339.451 725.145 337.681 734.733 337.001 739.747C335.323 751.577 334.418 763.519 334.291 775.485C334.291 779.556 334.231 783.691 334.361 787.912L356.361 829.618L392.641 788.041Z" fill="#C65A42"/>
<path opacity="0.3" d="M390.331 700.483L385.921 627.41C385.897 627.006 385.75 626.622 385.503 626.316C385.256 626.01 384.923 625.799 384.553 625.715C384.184 625.631 383.799 625.679 383.457 625.852C383.116 626.024 382.836 626.312 382.661 626.67L340.661 719.445C340.584 719.581 340.536 719.735 340.521 719.895C340.251 721.191 339.981 722.723 339.711 724.394C339.171 727.158 338.621 730.275 338.151 733.039C338.093 733.361 338.119 733.693 338.227 734C338.335 734.306 338.52 734.574 338.761 734.775L352.391 746.763C352.747 747.068 353.197 747.216 353.651 747.176C354.105 747.136 354.527 746.912 354.831 746.548L390.061 701.865C390.275 701.442 390.369 700.962 390.331 700.483Z" fill="#222020"/>
<path d="M421.929 840.855L422.269 840.126C421.039 838.208 419.554 836.493 417.859 835.037C416.979 834.309 415.959 833.366 414.739 832.348C410.129 828.427 403.819 823.05 399.549 818.25C394.469 812.444 392.089 801.977 392.639 788.029V787.879H379.999C377.508 787.883 375.064 788.599 372.917 789.953C370.771 791.307 369.001 793.25 367.789 795.582L357.169 816.493C357.099 816.568 357.029 816.568 357.029 816.493L354.249 800.21C353.643 796.788 351.945 793.699 349.445 791.473C346.945 789.246 343.8 788.021 340.549 788.007H334.449V788.157C334.882 805.649 336.652 823.073 339.739 840.255V840.33L340.209 840.908H421.929V840.855Z" fill="#9ED2FF"/>
<path d="M497.68 456.967C500.6 450.711 502.09 446.361 502.36 445.697C503.18 445.483 510.29 443.554 516.47 433.913C516.822 434.73 517.372 435.431 518.063 435.941C518.755 436.452 519.562 436.754 520.4 436.816C522.02 436.816 523.79 435.809 525.75 433.688C530.43 428.685 531.05 425.117 530.75 422.975C530.662 422.245 530.414 421.549 530.026 420.942C529.639 420.335 529.123 419.835 528.52 419.482C528.95 418.538 529.19 417.507 529.225 416.457C529.259 415.407 529.087 414.361 528.72 413.387C528.146 412.033 527.134 410.948 525.87 410.333C526.582 408.83 526.782 407.107 526.435 405.462C526.088 403.817 525.216 402.354 523.97 401.324C525.19 400.67 526.28 400.017 527.36 399.363C533.94 395.657 538.22 393.257 538.22 390.054C538.22 388.607 537.33 386.84 533.13 386.84C528.59 386.84 521.26 388.982 513.53 392.646C505.373 396.43 497.749 401.417 490.88 407.462C484.88 412.99 477.46 420.693 468.5 430.72L468.57 432.166L496.24 457.374L497.68 456.967Z" fill="#C65A42"/>
<path d="M323.06 547.855C327.463 540.651 332.963 534.289 339.33 529.032L402.74 528.529L402.94 527.95L410.54 489.877C412.54 491.548 431.63 507.317 447.02 507.317C447.498 507.329 447.976 507.304 448.45 507.242C458.45 506.578 478.22 499.25 497.61 457.041L497.68 456.966L468.45 430.827L468.38 430.891C457.87 442.74 448.92 453.71 447.84 455.017C422.61 419.546 402 414.243 392 414.243H390.6L389 405.962H348.83C348.83 405.962 349.7 410.686 349.91 411.704C348.41 411.918 335.91 414.243 327.32 424.42C323.53 428.781 310.32 434.512 305.09 448.899C301.9 457.47 306.71 472.072 304.61 480.063C303.031 485.934 301.785 491.901 300.88 497.933C297.55 520.601 309.5 540.152 322.88 547.78L323.06 547.855Z" fill="#88CE27"/>
<path opacity="0.3" d="M339.329 529.033L339.259 527.962L332.549 486.695C327.049 488.838 326.039 496.208 324.949 504.125C324.069 510.296 323.189 516.617 320.269 521.63C314.919 530.854 308.609 533.768 308.609 533.768C312.272 539.541 317.15 544.312 322.849 547.695C322.849 547.695 339.199 529.108 339.329 529.033Z" fill="black"/>
<path d="M302.711 480.214C303.324 480.214 303.935 480.164 304.541 480.064C304.541 480.064 306.031 474.911 306.441 473.636C310.511 461.734 311.801 456.859 318.921 440.147C324.211 442.911 332.001 444.218 337.921 444.143C345.851 444.068 353.721 442.483 360.371 437.897C365.991 434.127 373.121 426.349 374.951 410.365C375.602 404.494 375.511 398.555 374.681 392.71L374.611 392.635C374.611 392.635 356.431 383.851 360.431 370.995C361.431 367.653 364.161 365.906 368.371 365.906C374.531 365.906 382.061 369.613 382.061 369.613C382.061 369.613 389.661 359.864 384.061 350.062C384.033 350.015 384.019 349.961 384.02 349.905C384.02 349.85 384.036 349.796 384.064 349.749C384.093 349.703 384.133 349.667 384.18 349.644C384.227 349.622 384.28 349.614 384.331 349.623C386.062 350.084 387.837 350.329 389.621 350.351C398.231 350.351 399.791 342.852 399.791 342.852V342.788C396.541 335.953 392.471 331.893 386.301 329.418C381.846 327.533 377.091 326.594 372.301 326.654C363.141 326.654 354.391 329.932 348.301 335.739C339.151 344.598 340.911 361.021 342.941 372.431L343.011 372.645C339.642 372.13 336.244 371.866 332.841 371.852C321.041 371.852 300.021 375.066 291.681 396.331C287.401 407.366 286.181 423.799 295.681 437.04C294.051 437.63 282.051 442.279 280.141 452.371C279.482 455.56 279.512 458.869 280.23 462.044C280.947 465.219 282.333 468.177 284.281 470.69C288.741 476.357 296.131 480.214 302.711 480.214Z" fill="#30242A"/>
<path d="M398.6 739.5C399.48 733.072 400.36 726.795 401.25 720.688C403.14 706.879 404.91 694.099 405.79 687.264C415.01 615.562 406.87 544.513 402.94 528.09V527.951H339.2C315.59 549.452 307.32 575.527 295.25 612.144C289.25 630.164 283.79 641.423 273.69 659.806C269.28 667.798 264.13 674.483 259.11 680.943C256.39 684.435 253.88 687.703 251.58 691.045C249.28 694.388 247.23 697.227 245.4 700.055L354.32 728.166C354.38 728.166 354.38 728.166 354.38 728.091L381.65 644.015C381.65 643.951 381.78 643.951 381.78 644.015L381.45 735.076C381.45 735.151 381.45 735.151 381.51 735.151L398.6 739.5Z" fill="#0054B6"/>
<path d="M381.92 644.015L390.26 528.004" stroke="black" stroke-width="4" stroke-linecap="round" stroke-linejoin="round"/>
<path d="M425.8 852.264V852.103C425.857 847.843 424.645 843.674 422.34 840.201L422.27 840.126H339.67V840.276C340.366 844.256 341.27 848.19 342.38 852.06L425.8 852.264Z" fill="#5B5E60"/>
<path d="M278.5 852.178C280.151 848.21 280.578 843.782 279.72 839.537L279.31 839.108L204.45 804.227L203.91 804.516C203.09 808.512 202.41 812.658 201.91 816.804V816.868L278.5 852.178Z" fill="#5B5E60"/>
<path d="M279.45 839.398C279.478 839.412 279.51 839.417 279.54 839.412C279.571 839.406 279.599 839.39 279.621 839.367C279.643 839.343 279.657 839.313 279.663 839.28C279.668 839.248 279.664 839.214 279.65 839.184C279.186 837.04 278.48 834.965 277.55 833.003C277.15 832.135 276.6 831.042 276.06 829.885C273.41 824.432 269.35 816.226 266.97 809.755C264.59 803.285 265.21 794.757 268.87 784.109C268.875 784.07 268.872 784.031 268.862 783.994C268.852 783.957 268.834 783.923 268.81 783.894L256.73 778.152C254.508 777.124 252.075 776.731 249.669 777.01C247.262 777.29 244.965 778.233 243 779.748L226.53 792.39C226.39 792.465 226.25 792.39 226.25 792.25L228.56 777.724C229.092 774.398 228.566 770.978 227.067 768.012C225.567 765.045 223.181 762.704 220.29 761.365L216.29 759.479L216.22 759.619C211.078 774.17 206.933 789.105 203.82 804.302C203.816 804.343 203.82 804.385 203.832 804.423C203.844 804.462 203.864 804.498 203.89 804.527L279.45 839.398Z" fill="#9ED2FF"/>
<path d="M393.999 806.198L381.379 808.994" stroke="#535658" stroke-width="4" stroke-linecap="round" stroke-linejoin="round"/>
<path d="M397.591 815.562L386.801 823.918" stroke="#535658" stroke-width="4" stroke-linecap="round" stroke-linejoin="round"/>
<path d="M357 816.365L360.26 840.127" stroke="#535658" stroke-width="4" stroke-linecap="round" stroke-linejoin="round"/>
<path d="M226.35 792.175L221.67 812.883" stroke="#535658" stroke-width="4" stroke-linecap="round" stroke-linejoin="round"/>
<path d="M265.55 800.745L255.24 801.816" stroke="#535658" stroke-width="4" stroke-linecap="round" stroke-linejoin="round"/>
<path d="M267 809.83L256.49 814.115" stroke="#535658" stroke-width="4" stroke-linecap="round" stroke-linejoin="round"/>
<path d="M332.551 486.684L339.261 527.95H402.941" stroke="black" stroke-width="4" stroke-linecap="round" stroke-linejoin="round"/>
<path d="M323.73 509.707L336 507.382" stroke="black" stroke-width="4" stroke-linecap="round" stroke-linejoin="round"/>
<path d="M447.84 455.006L454.62 464.648" stroke="black" stroke-width="4" stroke-linecap="round" stroke-linejoin="round"/>
<path d="M410.541 489.877L396.301 475.554" stroke="black" stroke-width="4" stroke-linecap="round" stroke-linejoin="round"/>
<path d="M523.92 401.377C518.252 401.828 512.699 403.328 507.51 405.812" stroke="#222020" stroke-width="4" stroke-linecap="round" stroke-linejoin="round"/>
<path d="M525.82 410.396C519.24 410.825 510.9 413.803 510.9 413.803" stroke="#222020" stroke-width="4" stroke-linecap="round" stroke-linejoin="round"/>
<path d="M528.469 419.546C524.739 418.817 516.259 421.292 514.969 422.524" stroke="#222020" stroke-width="4" stroke-linecap="round" stroke-linejoin="round"/>
<path d="M373.24 377.487L377.99 380.391" stroke="#222020" stroke-width="4" stroke-linecap="round" stroke-linejoin="round"/>
<path d="M318.921 440.18C312.141 437.277 311.531 434.159 311.531 434.159" stroke="#231F21" stroke-width="4" stroke-linecap="round" stroke-linejoin="round"/>
<path d="M295.66 437.051C297.38 439.183 299.289 441.131 301.36 442.868" stroke="#231F21" stroke-width="4" stroke-linecap="round" stroke-linejoin="round"/>
<path d="M343 372.688L345.45 384.012" stroke="#231F21" stroke-width="4" stroke-linecap="round" stroke-linejoin="round"/>
<path opacity="0.3" d="M410.541 489.877L401.791 481.092C400.826 480.642 399.783 480.415 398.731 480.428C397.791 480.428 396.971 481.5 396.361 482.314C396.065 482.691 395.856 483.138 395.752 483.619C395.647 484.099 395.651 484.599 395.761 485.078C397.861 496.262 405.591 512.396 405.661 512.621L405.931 513.199L410.541 489.877Z" fill="black"/>
</g>
<defs>
<clipPath id="clip0_374_23399">
<rect width="1200" height="1080" fill="white"/>
</clipPath>
</defs>
</svg>
