<svg width="1200" height="1080" viewBox="0 0 1200 1080" fill="none" xmlns="http://www.w3.org/2000/svg">
<g clip-path="url(#clip0_331_15196)">
<rect width="1200" height="1080" fill="white"/>
<path d="M1200 0H0V1080H1200V0Z" fill="#E9EFF3"/>
<path d="M621.07 466.11V231.28H757.6L820.2 298.55V466.11H621.07Z" fill="#CECECE"/>
<path d="M708.829 392.6L652.149 409.43L685.149 357.72L639.059 309.72L699.479 322.8L711.939 251.8L738.719 312.22L787.299 289.8L757.999 343.4L800.349 384.51L744.999 380.77L733.749 440L708.829 392.6Z" fill="#3291FF"/>
<path d="M757.851 232.52C757.841 232.443 757.855 232.364 757.891 232.296C757.927 232.227 757.985 232.172 758.054 232.138C758.124 232.103 758.203 232.092 758.279 232.105C758.356 232.118 758.427 232.154 758.481 232.21L819.401 297.68C819.46 297.743 819.496 297.824 819.507 297.909C819.517 297.995 819.499 298.082 819.457 298.157C819.415 298.233 819.35 298.293 819.272 298.329C819.194 298.366 819.106 298.376 819.021 298.36C815.409 297.843 811.769 297.553 808.121 297.49C785.121 297.49 780.781 317.3 778.721 329.94C778.711 329.982 778.688 330.019 778.654 330.045C778.621 330.072 778.579 330.086 778.536 330.086C778.493 330.086 778.452 330.072 778.418 330.045C778.384 330.019 778.361 329.982 778.351 329.94L757.851 232.52Z" fill="#F1F1F1"/>
<path d="M203.35 833.419L221 754.77L245.76 757.77L272.2 754.77L290 833.419H203.35Z" fill="#2C455B"/>
<path opacity="0.3" d="M203.35 833.419L221 754.77H237.31L231.12 833.469L203.35 833.419Z" fill="#071927"/>
<path d="M246.68 766.67C241.797 766.743 236.96 765.717 232.528 763.665C228.096 761.614 224.184 758.59 221.08 754.82C221.08 754.77 221.08 754.72 221.08 754.72H272.19C272.19 754.72 272.19 754.72 272.19 754.82C269.096 758.578 265.198 761.595 260.783 763.646C256.367 765.696 251.548 766.73 246.68 766.67Z" fill="#88CE27"/>
<path d="M286.999 721.65C276.069 721.65 268.199 718.03 267.319 712.59C266.789 709.28 268.999 705.7 273.499 702.59C277.999 699.48 284.289 697.15 291.149 696.09C293.824 695.655 296.53 695.434 299.239 695.43C310.159 695.43 318.029 699.05 318.909 704.49C319.979 711.34 309.319 718.77 295.079 721.03C292.404 721.425 289.704 721.632 286.999 721.65Z" fill="#21231F"/>
<path d="M322.421 788.86C315.041 788.86 305.611 784.04 297.831 776.26C286.211 764.63 281.831 750.04 288.111 743.76C289.174 742.778 290.422 742.019 291.782 741.526C293.142 741.033 294.587 740.817 296.031 740.89C303.401 740.89 312.831 745.71 320.601 753.49C332.231 765.12 336.601 779.71 330.331 785.99C329.274 786.976 328.028 787.738 326.669 788.232C325.31 788.725 323.865 788.938 322.421 788.86Z" fill="#21231F"/>
<path d="M176.821 766.22C174.196 766.321 171.628 765.436 169.621 763.74C163.171 758.04 166.171 744.12 176.251 732.8C183.191 725 192.001 720.11 199.001 720.11C201.633 720.009 204.208 720.893 206.221 722.59C212.671 728.29 209.661 742.21 199.581 753.53C192.651 761.36 183.901 766.22 176.821 766.22Z" fill="#21231F"/>
<path d="M169.75 763.57C180.8 741.46 195.88 728.29 206.89 723.34C220.59 717.14 239.16 730.41 246.68 765.78" stroke="black" stroke-width="4" stroke-linecap="round" stroke-linejoin="round"/>
<path d="M318.751 706.09C300.621 703.88 279.401 706.09 267.461 712.73C258.621 717.63 244.601 731.2 240.461 764.46" stroke="black" stroke-width="4" stroke-linecap="round" stroke-linejoin="round"/>
<path d="M249.77 765.34C251.32 755.34 260.34 740.76 274.97 740.14C295.76 739.25 319.19 770.2 329.36 786.56" stroke="black" stroke-width="4" stroke-linecap="round" stroke-linejoin="round"/>
<path d="M281.48 796C261.94 797.94 246.77 813.37 245.84 833" stroke="black" stroke-width="4" stroke-linecap="round" stroke-linejoin="round"/>
<path d="M211.309 800.18C212.74 800.902 214.302 801.33 215.902 801.438C217.502 801.546 219.107 801.332 220.623 800.809C222.139 800.287 223.535 799.465 224.728 798.394C225.921 797.323 226.888 796.023 227.57 794.572C228.252 793.121 228.637 791.548 228.701 789.946C228.766 788.343 228.508 786.745 227.944 785.244C227.38 783.743 226.52 782.37 225.417 781.206C224.313 780.043 222.988 779.113 221.519 778.47C219.914 777.715 218.162 777.323 216.389 777.32" stroke="black" stroke-width="4" stroke-linecap="round" stroke-linejoin="round"/>
<path d="M256.849 787.89C257.899 787.89 258.926 787.578 259.799 786.995C260.672 786.411 261.353 785.582 261.755 784.612C262.157 783.641 262.262 782.574 262.057 781.544C261.852 780.514 261.346 779.567 260.604 778.825C259.861 778.082 258.915 777.576 257.885 777.372C256.855 777.167 255.787 777.272 254.817 777.674C253.847 778.076 253.017 778.756 252.434 779.629C251.85 780.503 251.539 781.529 251.539 782.58C251.539 783.988 252.099 785.338 253.094 786.334C254.09 787.33 255.441 787.89 256.849 787.89V787.89Z" stroke="black" stroke-width="4" stroke-linecap="round" stroke-linejoin="round"/>
<path d="M650.161 604.56H550.871V655.41H650.161V604.56Z" fill="#CECECE"/>
<path d="M650.161 654.81H550.871V705.65H650.161V654.81Z" fill="#CECECE"/>
<path opacity="0.2" d="M550.871 604.56H650.161V635.13L550.871 608.69V604.56Z" fill="#0154B5"/>
<path opacity="0.2" d="M550.871 654.81H650.161V685.37L550.871 658.94V654.81Z" fill="#0154B5"/>
<path d="M588.67 654.81H612.42C612.33 657.899 611.04 660.833 608.823 662.986C606.605 665.14 603.636 666.345 600.545 666.345C597.454 666.345 594.484 665.14 592.267 662.986C590.05 660.833 588.76 657.899 588.67 654.81Z" fill="#21231F"/>
<path d="M588.67 604.56H612.42C612.33 607.649 611.04 610.583 608.823 612.736C606.605 614.89 603.636 616.095 600.545 616.095C597.454 616.095 594.484 614.89 592.267 612.736C590.05 610.583 588.76 607.649 588.67 604.56Z" fill="#21231F"/>
<path d="M368.559 513.65H676.419C682.951 513.65 689.419 514.938 695.454 517.439C701.488 519.94 706.97 523.607 711.587 528.228C716.204 532.849 719.864 538.335 722.359 544.372C724.855 550.409 726.136 556.878 726.129 563.41V594.41H318.789V563.41C318.785 556.874 320.07 550.401 322.57 544.361C325.07 538.322 328.736 532.834 333.358 528.212C337.981 523.591 343.469 519.926 349.509 517.427C355.549 514.929 362.023 513.645 368.559 513.65Z" fill="#0054B6"/>
<path d="M726.129 602.47H649.809V833.36H726.129V602.47Z" fill="#0054B6"/>
<path opacity="0.2" d="M649.809 602.47H723.079C723.429 602.474 723.774 602.561 724.084 602.723C724.395 602.886 724.663 603.119 724.867 603.405C725.07 603.69 725.204 604.019 725.256 604.366C725.309 604.713 725.279 605.067 725.169 605.4L649.999 832.82C649.992 832.837 649.981 832.853 649.966 832.864C649.951 832.874 649.932 832.88 649.914 832.88C649.895 832.88 649.877 832.874 649.861 832.864C649.846 832.853 649.835 832.837 649.829 832.82L649.809 602.47Z" fill="#040609"/>
<path d="M395.119 602.47H318.789V833.36H395.119V602.47Z" fill="#0054B6"/>
<path d="M726.129 591.41H318.789V604.56H726.129V591.41Z" fill="#CECECE"/>
<path d="M550.871 654.81L649.561 654.68" stroke="black" stroke-width="4" stroke-linecap="round" stroke-linejoin="round"/>
<path d="M318.789 604.56L726.129 604.44" stroke="black" stroke-width="4" stroke-linecap="round" stroke-linejoin="round"/>
<path d="M802.62 433.44C771.08 422.98 725.25 405.66 745.08 427.62C745.106 427.651 745.123 427.688 745.129 427.728C745.135 427.768 745.13 427.808 745.114 427.845C745.099 427.882 745.073 427.915 745.041 427.938C745.008 427.962 744.97 427.976 744.93 427.98C742.2 427.91 729.38 428.28 734.46 439.98C731.59 442.42 729.75 447.87 734.4 451.77C733.88 452.58 731.15 457.88 735.87 461.35C735.13 466.35 739.55 469.75 745.59 471.22C748.39 472.22 751.93 471.74 751.93 468.22C760.93 472.64 768.79 473.45 775.06 471.76C775.65 472.12 780.88 475.22 788.54 478.98C789.43 478.54 803.79 457.24 803.79 457.24L802.62 433.44Z" fill="#CF5934"/>
<path d="M854.19 763.86C854.63 754.58 853.38 741.68 853.82 730.7C857.55 723.45 881.89 707.9 890.45 713.31L920.45 730.93C920.508 730.933 920.562 730.956 920.603 730.997C920.644 731.038 920.668 731.093 920.67 731.15V732C920.89 743.57 921.03 753.73 919.86 764.27C917.86 765.15 889.5 777.6 884.86 777.6C868 777.56 855.15 765.11 854.19 763.86Z" fill="#CF5934"/>
<path d="M951.59 764C950.11 755.15 945.4 742.85 943.18 730.69C947.38 725.64 968.02 720.18 978.18 717.69C983.8 718.76 1008.6 730.69 1008.53 731.06C1010.93 741.869 1012.4 752.862 1012.94 763.92C1012.06 764.92 1000.49 775.71 987.82 775.71C971.4 775.58 953.2 764.9 951.59 764Z" fill="#CF5934"/>
<path d="M995.64 684C989.3 663.15 987.39 656.81 988.79 632.2C991.96 575.98 991.07 540.48 977.79 501.65C970.94 501.72 889.53 501.57 882.45 501.65C882.23 502.53 857.45 571.05 853.79 652.83C852.47 682.37 853.57 727.24 853.65 730.56C853.65 731.15 920.77 731.07 920.77 730.78C918.33 691.88 914.65 661.45 922.09 635.78C927.91 670.41 936.17 708.21 943.16 730.67C947.16 730.67 1003.06 730.82 1008.29 730.82C1005.51 714.73 998.29 693.73 995.64 684Z" fill="#88CE27"/>
<path opacity="0.2" d="M916.591 560.89C893.161 555.29 906.861 710.46 907.461 731.01C909.001 731.01 918.951 731.01 920.461 731.08C920.49 731.083 920.52 731.08 920.548 731.07C920.576 731.06 920.602 731.044 920.623 731.023C920.644 731.001 920.66 730.976 920.67 730.948C920.68 730.92 920.684 730.89 920.68 730.86C920.31 721.43 919.35 710.01 918.91 701.86C914.04 661.63 922 635.86 922 635.86C916.88 601.86 916.001 594.78 916.591 560.89Z" fill="black"/>
<path opacity="0.2" d="M932.5 501.65H977.59C980.329 508.944 982.522 516.431 984.15 524.05C984.202 524.349 984.275 524.643 984.37 524.93C984.74 524.79 941.19 516.46 932.5 501.65Z" fill="black"/>
<path d="M916.59 560.89C915.34 585.13 918.06 612.31 922.12 635.81" stroke="black" stroke-width="4" stroke-linecap="round" stroke-linejoin="round"/>
<path d="M949.6 795.69C954.53 789.69 955.13 780.88 951.66 764.37C955.66 763.64 1009.05 764.08 1012.89 763.86C1013.99 774.03 1013.62 785.08 1012.95 796.28C999.33 807.08 998.07 810.1 986.66 819.63C984.96 820.3 966.76 825.63 965.88 825.82C964.4 825.45 929.56 821.82 923.07 819.41C923.027 819.375 922.993 819.331 922.968 819.281C922.944 819.231 922.931 819.176 922.93 819.12C923.44 817.42 927.05 810.42 949.6 795.69Z" fill="#3291FF"/>
<path d="M986.43 819.48C985.92 805.78 999.7 793.19 1012.89 796.21C1013.06 804.061 1012.26 811.903 1010.52 819.56C1010.52 819.63 1010.45 819.7 1005.69 825.75C1002.74 826.4 986.43 819.48 986.43 819.48Z" fill="#324758"/>
<path d="M821 819.26C820.86 819.26 820.78 819.04 820.86 818.89C823.73 815.29 827.56 812.64 831.76 809.46C851.94 795.84 853.86 785.67 854.23 764.15C858.23 763.79 915.97 763.93 920.02 764.37C919.284 775.024 917.949 785.627 916.02 796.13C908.23 807.66 904.28 811.68 887.36 819.41C887.65 819.86 861.5 825.82 860.36 826.19C860.3 826.26 821 819.19 821 819.26Z" fill="#3291FF"/>
<path d="M886.9 819.7C886.9 804.31 902.15 792.59 916.07 796.28C914.6 803.87 913.5 811.97 911.28 819.28C911.28 819.36 911.14 819.43 908.02 823.34C907.87 821.8 889 820.3 886.9 819.7Z" fill="#324758"/>
<path d="M905.91 382V378.54C905.91 378.4 905.76 378.32 905.61 378.32C886.38 384.58 874.61 376.26 878.42 353.12C873.78 348.12 871.65 344.65 880.34 342.12C880.78 341.46 880.49 339.92 880.64 339.03C880.78 335.79 880.93 332.7 881.15 329.75C881.45 326.07 882.99 323.33 884.15 320.54C886.07 315.23 889.97 315.83 903.45 313.84C906.327 313.402 909.23 313.154 912.14 313.1C918.14 313.1 919.66 310.82 928.14 315.53C950.91 327.46 941.63 327.76 948.47 353.69C948.47 357 948.19 378.6 948.25 382.57C945.1 383 908.12 386.13 905.91 382Z" fill="#CF5934"/>
<path d="M945.001 372.5C941.241 372.5 928.941 366.45 927.001 365.5C926.861 365.43 926.861 365.28 926.921 365.13C928.851 363.29 942.921 349.22 934.811 339.05C929.071 331.9 914.551 341.19 914.411 341.26C914.111 341.55 905.041 337.65 905.341 325.64C905.341 325.5 905.201 325.34 905.041 325.42C896.501 329.99 886.851 330.42 881.551 327.92C881.841 325.06 884.271 322.62 885.231 319.92C887.141 314.62 889.941 315.92 903.431 313.92C910.131 312.92 920.081 311.78 932.091 318.56C944.681 325.71 948.361 332.78 948.361 353.26L948.301 371.9C948.301 372.05 948.301 372.34 948.001 372.34L947.191 372.41C946.466 372.519 945.732 372.549 945.001 372.5Z" fill="#010005"/>
<path d="M936.78 349.88C939.72 334.7 923.78 334.88 914.78 341.78C912.78 341.26 883.68 330.65 881.41 329.91C881.77 314.15 891.72 301.33 912.28 301.99C945.06 303.17 949.48 318.42 948.52 353.78L936.96 350.1C936.85 350 936.78 350 936.78 349.88Z" fill="#88CE27"/>
<path d="M924.621 350L919.531 353.61" stroke="#030202" stroke-width="4" stroke-linecap="round" stroke-linejoin="round"/>
<path d="M995.941 513.37C981.627 513.214 967.455 510.505 954.091 505.37C954.021 505.37 953.941 505.23 953.941 505.15C954.021 504.49 954.161 502.87 954.241 502.21C954.244 502.179 954.239 502.148 954.227 502.12C954.215 502.091 954.197 502.066 954.174 502.045C954.15 502.025 954.123 502.01 954.093 502.003C954.063 501.995 954.032 501.994 954.001 502H882.401C877.841 499.86 873.341 494.48 873.561 486.23C873.561 486.08 873.341 485.93 873.271 486.08C849.101 504.79 816.171 493.37 788.841 479.31C788.761 479.23 788.691 479.15 788.691 479.09C789.351 475.25 801.291 438.42 802.471 434C802.471 433.85 802.621 433.85 802.761 433.85C820.761 439.37 837.541 446.67 840.411 447.03C840.451 447.035 840.491 447.031 840.529 447.019C840.567 447.007 840.602 446.987 840.631 446.96C843.281 442.24 871.501 397.08 905.831 388.96C905.911 388.96 905.981 388.89 905.981 388.74C905.981 387.74 905.911 382.47 905.911 382.47C905.908 382.44 905.912 382.41 905.922 382.382C905.932 382.354 905.948 382.329 905.969 382.308C905.99 382.287 906.016 382.27 906.044 382.26C906.072 382.251 906.102 382.247 906.131 382.25C906.351 382.47 945.251 382.03 948.131 382.55C948.191 382.55 948.271 382.62 948.271 382.77V388.96C948.276 389.017 948.301 389.07 948.341 389.111C948.381 389.151 948.435 389.176 948.491 389.18C959.101 389.91 969.411 392.35 976.191 395.74C1007.36 408.75 1077 512 995.941 513.37Z" fill="#2C455B"/>
<path d="M970.371 443L983.371 467.91" stroke="black" stroke-width="4" stroke-linecap="round" stroke-linejoin="round"/>
<path d="M906 388.93C903.827 389.312 901.701 389.929 899.66 390.77" stroke="black" stroke-width="4" stroke-linecap="round" stroke-linejoin="round"/>
<path d="M848.07 794.29L858.31 799.44" stroke="#1C1C1C" stroke-width="4" stroke-linecap="round" stroke-linejoin="round"/>
<path d="M950.26 794.8L960.26 799.44" stroke="#1C1C1C" stroke-width="4" stroke-linecap="round" stroke-linejoin="round"/>
<path d="M854.191 763.93L919.471 764.08" stroke="#1C1C1C" stroke-width="4" stroke-linecap="round" stroke-linejoin="round"/>
<path d="M951.879 764.08H1013" stroke="#1C1C1C" stroke-width="4" stroke-linecap="round" stroke-linejoin="round"/>
<path d="M914.999 341.71L868.879 325.43" stroke="black" stroke-width="4" stroke-linecap="round" stroke-linejoin="round"/>
<path opacity="0.2" d="M963.301 465.85C967.641 459.37 962.121 444.85 970.371 443C971.551 445.07 981.641 464.44 983.271 467.61C983.341 467.76 983.191 467.91 983.041 467.91L963.371 466.21C963.324 466.164 963.292 466.105 963.279 466.041C963.267 465.977 963.274 465.91 963.301 465.85Z" fill="black"/>
<path opacity="0.2" d="M905.91 378.25C908.943 377.242 911.898 376.012 914.75 374.57C914.792 374.55 914.839 374.544 914.884 374.552C914.929 374.561 914.971 374.583 915.003 374.616C915.035 374.649 915.056 374.691 915.063 374.737C915.069 374.783 915.061 374.829 915.04 374.87L907.24 386.5C906.86 387.02 906.05 386.95 906.05 386.28L905.91 378.25Z" fill="#030202"/>
<path d="M816.391 832.6C816.361 832.606 816.33 832.604 816.301 832.594C816.272 832.585 816.245 832.569 816.224 832.548C816.202 832.526 816.186 832.5 816.177 832.47C816.168 832.441 816.166 832.41 816.171 832.38C816.171 823.98 819.631 820.08 820.441 819.38C820.521 819.3 820.601 819.3 820.661 819.23C824.721 819.08 910.991 819.23 911.061 819.16C911.131 819.09 911.281 819.3 911.281 819.45C910.701 821.22 909.001 828.22 907.601 832.45C907.601 832.53 907.531 832.6 907.381 832.6H816.391Z" fill="#1C1C1C"/>
<path d="M919.309 832.45C919.249 827.88 919.749 822.73 922.779 819.34C922.849 819.26 922.849 819.26 922.929 819.26L1010.3 819.48C1010.45 819.48 1010.52 819.63 1010.52 819.78C1008.69 827.3 1007.8 830.9 1006.84 832.78C1006.84 832.85 1006.77 832.85 1006.7 832.85C1000.95 832.85 926.829 832.63 919.529 832.63C919.503 832.633 919.476 832.63 919.451 832.622C919.426 832.615 919.402 832.602 919.382 832.586C919.361 832.569 919.344 832.548 919.332 832.525C919.319 832.502 919.312 832.476 919.309 832.45Z" fill="#1C1C1C"/>
<path d="M939.359 399.39H813.359V537.9H939.359V399.39Z" fill="#CECECE"/>
<path d="M939.361 399.39H907.301L813.371 506V537.9H847.111L939.361 433.21V399.39Z" fill="#3291FF"/>
<path d="M936.12 503C930.032 502.933 924.029 501.569 918.51 499C911.8 499.23 892.42 499.08 892.72 495.18C892.72 491.93 902.07 490.68 908.04 490.18C908.27 490.18 908.27 489.8 908.04 489.74C900.16 488.85 884.32 486.93 886.75 478.9C883.87 476.9 882.33 472.71 886.68 469.47C887.68 461.47 901.68 463.65 908.68 463.21C914.05 463.21 918.84 463.29 920.76 463.36C920.804 463.363 920.848 463.352 920.886 463.328C920.923 463.305 920.952 463.27 920.969 463.229C920.986 463.188 920.989 463.143 920.978 463.1C920.968 463.057 920.944 463.018 920.91 462.99C919.14 461.37 915.01 457.32 915.6 454.74C917.52 447.37 951.04 465.93 949.86 464.9C949.86 464.9 956.71 465.57 957.97 465.71C958.56 465.71 954.8 501.45 954.28 505.06C954.278 505.093 954.267 505.124 954.249 505.152C954.232 505.18 954.207 505.202 954.177 505.217C954.148 505.232 954.116 505.24 954.083 505.238C954.05 505.237 954.018 505.227 953.99 505.21C952.76 504.75 947.09 502.54 936.12 503Z" fill="#CF5934"/>
<path d="M886.83 469.46C900.31 469.38 924.62 471.59 924.62 471.59" stroke="#030202" stroke-width="4" stroke-linecap="round" stroke-linejoin="round"/>
<path d="M887.051 479L923.881 482" stroke="#030202" stroke-width="4" stroke-linecap="round" stroke-linejoin="round"/>
<path d="M921.301 463.41L929.481 464.08" stroke="#030202" stroke-width="4" stroke-linecap="round" stroke-linejoin="round"/>
<path d="M745.59 399.39V433.21C750.38 435.27 760.59 440.72 751.85 446.03C756.06 449.12 755.39 453.32 752.52 455.68C755.09 459.73 754.07 463.19 750.38 463.86C752.96 467.91 752.3 471.22 748.54 471.74C747.54 471.59 746.54 471.44 745.59 471.22V537.9H813.37V399.39H745.59Z" fill="#CECECE"/>
<path opacity="0.2" d="M745.59 399.39V433.21C750.38 435.27 760.59 440.72 751.85 446.03C756.06 449.12 755.39 453.32 752.52 455.68C755.09 459.73 754.07 463.19 750.38 463.86C752.96 467.91 752.3 471.22 748.54 471.74C747.54 471.59 746.54 471.44 745.59 471.22V537.9H813.37V399.39H745.59Z" fill="black"/>
<path d="M752.881 437.48C755.681 439.91 756.791 443 751.881 446.03C756.091 449.12 755.421 453.32 752.551 455.68C754.021 458.18 754.381 460.17 753.651 461.68C753.302 462.261 752.831 462.76 752.272 463.143C751.713 463.526 751.079 463.784 750.411 463.9C752.991 467.95 752.331 471.26 748.571 471.78C747.571 471.63 746.571 471.48 745.621 471.26" stroke="#030202" stroke-width="4" stroke-linecap="round" stroke-linejoin="round"/>
<path d="M734.539 439.91C738.219 443.6 748.539 446.54 751.539 445.81" stroke="#030202" stroke-width="4" stroke-linecap="round" stroke-linejoin="round"/>
<path d="M734.539 451.7C740.429 454.64 749.279 456.12 752.219 455.39" stroke="#030202" stroke-width="4" stroke-linecap="round" stroke-linejoin="round"/>
<path d="M736 461.28C739.68 462.75 746.68 464.6 750.37 463.86" stroke="#030202" stroke-width="4" stroke-linecap="round" stroke-linejoin="round"/>
<path d="M949.82 465L983.41 468" stroke="black" stroke-width="4" stroke-linecap="round" stroke-linejoin="round"/>
<path d="M813.371 537.9V399.39" stroke="black" stroke-width="4" stroke-linecap="round" stroke-linejoin="round"/>
<path d="M483 591.42H529.67L532.67 574.48L535.67 557.42H489L487.91 563.6L483 591.42Z" fill="#2C455B"/>
<path opacity="0.2" d="M532.64 574.48L535.64 557.42H489L487.91 563.6L532.64 574.48Z" fill="black"/>
<path d="M451.11 560.65H572.34C580.41 560.65 588.07 554.14 589.51 546.07L604.2 462.87C605.64 454.8 600.2 448.3 592.2 448.3H470.93C462.86 448.3 455.2 454.8 453.76 462.87L439.12 546.13C437.68 554.14 443 560.65 451.11 560.65Z" fill="#2C455B"/>
<path d="M457.389 551.9H569.169C571.785 551.806 574.294 550.833 576.289 549.138C578.285 547.444 579.652 545.126 580.169 542.56L593.599 466.5C594.519 461.32 591.069 457.17 585.879 457.17H474.099C471.485 457.266 468.978 458.238 466.983 459.93C464.988 461.622 463.62 463.936 463.099 466.5L449.669 542.56C448.799 547.69 452.259 551.9 457.389 551.9Z" fill="white"/>
<path d="M488.379 560.65H535.059" stroke="black" stroke-width="4" stroke-linecap="round" stroke-linejoin="round"/>
<path d="M523.26 491L534.35 508.47" stroke="#2C455B" stroke-width="4" stroke-linecap="round" stroke-linejoin="round"/>
<path d="M509 500.12L520.08 517.58" stroke="#2C455B" stroke-width="4" stroke-linecap="round" stroke-linejoin="round"/>
<path d="M513.629 491.67L529.629 516.93" stroke="#2C455B" stroke-width="4" stroke-linecap="round" stroke-linejoin="round"/>
<path d="M534.41 484L545.5 501.47" stroke="#2C455B" stroke-width="4" stroke-linecap="round" stroke-linejoin="round"/>
<path d="M498.129 507L509.219 524.47" stroke="#2C455B" stroke-width="4" stroke-linecap="round" stroke-linejoin="round"/>
<path d="M379.8 704.12C381.702 704.115 383.528 704.863 384.88 706.201C386.231 707.539 386.997 709.358 387.01 711.26L387 730V807.38C387.036 808.341 386.878 809.299 386.535 810.197C386.192 811.096 385.672 811.915 385.005 812.608C384.338 813.3 383.538 813.851 382.653 814.227C381.768 814.604 380.817 814.798 379.855 814.798C378.894 814.798 377.942 814.604 377.057 814.227C376.172 813.851 375.373 813.3 374.706 812.608C374.039 811.915 373.518 811.096 373.175 810.197C372.832 809.299 372.674 808.341 372.71 807.38V711.26C372.699 710.324 372.875 709.395 373.227 708.527C373.579 707.659 374.1 706.87 374.76 706.206C375.42 705.541 376.205 705.014 377.07 704.656C377.936 704.298 378.864 704.116 379.8 704.12Z" fill="#CECECE"/>
<path opacity="0.2" d="M379.801 704.12C378.86 704.109 377.927 704.286 377.056 704.641C376.184 704.996 375.393 705.522 374.728 706.187C374.063 706.852 373.537 707.644 373.182 708.515C372.827 709.386 372.65 710.319 372.661 711.26V736.47L387.001 730L387.061 711.29C387.045 709.377 386.272 707.549 384.911 706.205C383.551 704.862 381.713 704.112 379.801 704.12Z" fill="black"/>
<path d="M429.93 824.08C428.93 823.2 380.21 780.63 380.21 780.63H379.34L329.6 824.08C328.708 824.846 328.143 825.925 328.019 827.094C327.896 828.264 328.225 829.436 328.938 830.372C329.651 831.307 330.694 831.934 331.855 832.125C333.015 832.317 334.205 832.057 335.18 831.4C335.3 831.34 361.97 813.04 377.94 802.06C378.469 801.693 379.097 801.497 379.74 801.497C380.383 801.497 381.011 801.693 381.54 802.06C397.54 813.06 424.25 831.34 424.3 831.4C425.279 832.026 426.454 832.27 427.601 832.086C428.748 831.902 429.787 831.301 430.52 830.4C431.252 829.472 431.6 828.299 431.49 827.122C431.38 825.945 430.822 824.856 429.93 824.08Z" fill="#21231F"/>
<path d="M368.179 777.83H391.369C391.697 777.829 392.022 777.893 392.326 778.018C392.629 778.143 392.904 778.327 393.136 778.56C393.368 778.793 393.551 779.069 393.675 779.373C393.799 779.676 393.862 780.002 393.859 780.33V792.77H365.629V780.33C365.645 779.663 365.92 779.029 366.396 778.562C366.872 778.095 367.512 777.833 368.179 777.83Z" fill="#2C455B"/>
<path d="M365.68 699.58H393.92V718.93C393.915 719.422 393.717 719.892 393.37 720.24C393.022 720.587 392.552 720.785 392.06 720.79H367.49C367.249 720.789 367.01 720.739 366.787 720.645C366.565 720.55 366.364 720.413 366.195 720.239C366.027 720.066 365.895 719.861 365.806 719.637C365.718 719.412 365.675 719.172 365.68 718.93V699.58Z" fill="#2C455B"/>
<path d="M338.001 688.08H421.481C422.828 688.038 424.17 688.266 425.427 688.752C426.684 689.239 427.83 689.973 428.798 690.91C429.766 691.848 430.536 692.971 431.061 694.212C431.587 695.453 431.858 696.787 431.858 698.135C431.858 699.483 431.587 700.817 431.061 702.058C430.536 703.299 429.766 704.422 428.798 705.36C427.83 706.298 426.684 707.032 425.427 707.518C424.17 708.004 422.828 708.233 421.481 708.19H338.001C335.389 708.108 332.911 707.012 331.093 705.136C329.275 703.259 328.258 700.748 328.258 698.135C328.258 695.522 329.275 693.011 331.093 691.135C332.911 689.258 335.389 688.163 338.001 688.08Z" fill="#21231F"/>
<path d="M412.93 441.52C412.879 441.512 412.83 441.493 412.786 441.465C412.743 441.437 412.706 441.4 412.678 441.357C412.649 441.314 412.63 441.265 412.622 441.214C412.614 441.163 412.617 441.11 412.63 441.06C412.797 437.277 412.64 433.486 412.16 429.73C411.64 425.68 409.4 421.73 407.41 417.73C400.25 403.95 374.31 401.73 362.21 414.16C356.88 419.68 353.53 424.31 353.53 441.33C353.53 457.71 351.18 483.24 351.01 485.11C351.012 485.14 351.024 485.168 351.044 485.19C351.064 485.211 351.09 485.226 351.12 485.23L390.86 486.35C390.89 486.348 390.918 486.334 390.938 486.312C390.959 486.289 390.97 486.26 390.97 486.23V474.86C390.974 474.831 390.989 474.804 391.01 474.784C391.032 474.764 391.06 474.752 391.09 474.75C393.99 475.564 396.987 475.985 400 476C403.525 476.143 406.997 475.109 409.87 473.06C417.49 467.19 414.15 452.29 413.56 449.94C413.538 449.86 413.545 449.775 413.577 449.699C413.61 449.623 413.667 449.56 413.74 449.52C414.56 449.11 416.9 447.77 417.49 445.71C418.08 443.65 414.16 442 412.93 441.52Z" fill="#F2A89B"/>
<path d="M490.691 792.15L493.271 783.93V783.87C493.271 783.29 492.981 775.36 493.101 774.48C493.571 770.31 494.211 765.73 494.971 760.57C496.261 751.76 497.911 741.38 499.441 729.06C501.611 711.33 504.541 688.14 504.711 686.56C504.711 686.5 504.711 686.5 504.711 686.5L449.131 681.93C449.071 681.93 449.011 681.99 449.071 682.04C449.784 687.598 449.527 693.239 448.311 698.71C445.491 713.71 438.681 731.71 441.311 769.71C441.831 776.71 442.951 789.01 445.311 804.39C445.311 804.46 445.311 804.46 445.371 804.46L472.611 812.14H472.671L490.691 792.15Z" fill="#F2A89B"/>
<path d="M506 808.52C496.72 801.77 494 792.27 493.32 783.99C493.318 783.961 493.306 783.933 493.286 783.911C493.266 783.889 493.239 783.875 493.21 783.87L475.89 784.34C474.72 784.376 473.579 784.708 472.573 785.305C471.567 785.902 470.729 786.744 470.137 787.753C469.544 788.762 469.217 789.904 469.186 791.074C469.156 792.243 469.422 793.401 469.96 794.44L474.54 803.24C474.584 803.324 474.606 803.417 474.604 803.511C474.602 803.605 474.577 803.697 474.53 803.779C474.483 803.861 474.416 803.93 474.336 803.979C474.255 804.028 474.164 804.056 474.07 804.06L445.49 804.35C445.43 804.35 445.43 804.35 445.43 804.41C446.37 810.16 447.37 816.27 448.66 822.84L490 826.19L526 822.78C523.09 819.26 514.05 814.39 506 808.52Z" fill="#0070F2"/>
<path d="M448.55 822.9C449.19 826.19 450.48 831.9 450.84 833.41C450.84 833.52 450.96 833.58 451.08 833.58L528.96 833.7C528.998 833.701 529.036 833.695 529.072 833.681C529.108 833.667 529.14 833.645 529.168 833.618C529.195 833.591 529.216 833.558 529.23 833.522C529.244 833.487 529.251 833.448 529.25 833.41C529.25 828.6 528.31 825.6 526.08 822.84H526L448.52 822.9H448.55Z" fill="#043874"/>
<path opacity="0.2" d="M495.001 760.51C496.291 751.71 498.001 741.38 499.471 729C501.691 710.62 504.741 686.44 504.741 686.44L449.001 681.86C449.739 687.435 449.502 693.096 448.301 698.59C480.181 714.73 471.001 735.4 495.001 760.51Z" fill="#050505"/>
<path d="M555.779 754.7C555.309 753.82 554.839 752.7 554.309 751.59C554.309 751.54 554.249 751.54 554.249 751.48C545.919 729.88 532.709 683.15 529.839 675.35C522.909 656.35 517.159 639.78 487.749 629.22C487.544 629.145 487.327 629.105 487.109 629.1C486.672 629.088 486.236 629.149 485.819 629.28C485.485 629.386 485.184 629.577 484.947 629.835C484.71 630.093 484.545 630.408 484.469 630.75L472.379 685.75C472.329 686.031 472.339 686.319 472.409 686.595C472.479 686.871 472.608 687.129 472.786 687.352C472.964 687.574 473.187 687.756 473.441 687.885C473.695 688.014 473.974 688.088 474.259 688.1H476.719C477.071 688.113 477.414 688.218 477.713 688.406C478.012 688.594 478.255 688.858 478.419 689.17C487.579 707.01 482.649 726.78 507.769 771.86C508.769 773.68 513.459 782.3 521.769 794.51C521.961 794.793 522.226 795.019 522.535 795.163C522.845 795.308 523.189 795.366 523.529 795.33L547.589 793.11C547.923 793.054 548.243 792.931 548.529 792.75L561.439 783.66C561.751 783.441 561.992 783.134 562.129 782.778C562.266 782.421 562.294 782.032 562.209 781.66C561.269 777.02 557.979 760.88 555.809 754.84C555.839 754.88 555.779 754.82 555.779 754.7Z" fill="#F2A89B"/>
<path d="M602.61 776.54C595.16 775.01 584.61 774.89 577.85 774.07H577.79C573.21 773.07 563.79 773.13 555.66 754.82C555.632 754.749 555.588 754.686 555.531 754.634C555.475 754.583 555.408 754.545 555.335 754.523C555.262 754.501 555.185 754.495 555.11 754.507C555.035 754.518 554.963 754.547 554.9 754.59L538.7 764C537.818 764.504 537.078 765.225 536.551 766.093C536.023 766.962 535.725 767.951 535.684 768.966C535.643 769.982 535.86 770.991 536.316 771.899C536.772 772.808 537.451 773.586 538.29 774.16L547.74 780.67C547.817 780.718 547.879 780.786 547.92 780.866C547.962 780.947 547.98 781.037 547.974 781.128C547.968 781.218 547.937 781.305 547.885 781.379C547.834 781.454 547.763 781.512 547.68 781.55L522.79 795.2C522.726 795.235 522.67 795.284 522.625 795.343C522.581 795.402 522.55 795.47 522.534 795.541C522.518 795.613 522.517 795.688 522.532 795.76C522.547 795.832 522.577 795.9 522.62 795.96C526.55 801.65 531.13 808.17 536.52 814.96C536.594 815.057 536.697 815.127 536.814 815.162C536.931 815.196 537.056 815.192 537.17 815.15L575.5 800.15C575.56 800.15 575.56 800.09 575.62 800.09L607 778.59V778.41C605.686 777.481 604.19 776.844 602.61 776.54Z" fill="#3291FF"/>
<path d="M614.3 786.4C612.547 783.209 610.075 780.47 607.08 778.4L536.88 815.26C536.88 815.26 536.82 815.32 536.88 815.32C538.99 818.02 541.29 820.72 543.69 823.6C543.748 823.624 543.812 823.624 543.87 823.6C547.03 821.96 614.24 786.6 614.24 786.6C614.24 786.6 614.35 786.45 614.3 786.4Z" fill="#043874"/>
<path d="M487.401 629.16C487.401 629.16 484.701 628.22 483.711 627.81C447.491 615.37 410.581 604.16 410.581 604.16H335.511C334.811 605.28 332.581 611.55 329.701 620.16C328.651 623.33 327.471 626.79 326.291 630.43C324.104 637.03 323.516 644.055 324.575 650.927C325.634 657.799 328.31 664.32 332.383 669.956C336.455 675.591 341.808 680.178 348.001 683.339C354.193 686.501 361.048 688.146 368.001 688.14H477.841L487.401 629.16Z" fill="#3291FF"/>
<path opacity="0.2" d="M483.41 627.93C483.53 627.87 483.47 627.76 483.41 627.76C479.19 626.28 475.02 624.88 470.85 623.47C458.18 619.25 445.85 615.25 435.85 612.09C437.733 617.126 441.088 621.478 445.48 624.58C447.448 626.03 449.575 627.251 451.82 628.22C465.46 634.21 481.24 628.75 483.41 627.93Z" fill="black"/>
<path d="M575.44 608.5C574.2 605.56 565.7 600.5 550.68 591.78C538.23 584.56 496.39 579.57 495.21 579.39H495.15L492.8 580.28C492.793 580.278 492.785 580.278 492.778 580.28C492.77 580.282 492.764 580.285 492.758 580.29C492.752 580.295 492.748 580.301 492.745 580.308C492.741 580.315 492.74 580.322 492.74 580.33L486 619.42C486 619.48 486 619.53 486.06 619.53L488.59 620.82H488.64C488.94 620.77 491.23 620.36 492.4 620.13C499.68 618.71 506.31 617.13 511.4 615.66H511.51C522.84 623.76 532.23 620.6 537.93 624.94C548.93 633.68 554.42 637.38 556.54 635.39C558.76 633.03 554.59 628.75 546.67 619.89C546.44 619.59 546.73 619.25 547.08 619.36C562.34 627.16 569.03 627.11 569.97 621.24C569.97 621.06 570.15 620.95 570.27 620.89C573.14 620 575.27 617.89 573.32 614.31C573.289 614.261 573.27 614.206 573.262 614.149C573.255 614.091 573.26 614.033 573.277 613.978C573.294 613.923 573.323 613.872 573.361 613.83C573.4 613.787 573.447 613.752 573.5 613.73C573.972 613.515 574.397 613.209 574.75 612.83C575.104 612.45 575.378 612.005 575.559 611.518C575.739 611.032 575.821 610.515 575.801 609.997C575.781 609.479 575.658 608.97 575.44 608.5Z" fill="#F2A89B"/>
<path d="M430.361 621.59C441.451 627.16 467.161 624.7 488.581 620.82C488.631 620.82 488.631 620.77 488.631 620.71L495.151 579.51C495.151 579.478 495.138 579.447 495.116 579.425C495.093 579.402 495.063 579.39 495.031 579.39C475.031 577.75 457.421 577.87 454.541 577.92C454.42 577.918 454.303 577.877 454.208 577.803C454.112 577.729 454.043 577.626 454.011 577.51C452.421 572.58 436.171 522.34 425.611 508.51C414.921 494.37 392.681 492.08 391.031 491.9C391.003 491.897 390.976 491.885 390.956 491.865C390.936 491.845 390.923 491.818 390.921 491.79V483.33C390.917 483.3 390.902 483.274 390.88 483.254C390.859 483.234 390.831 483.222 390.801 483.22H351.001C350.972 483.222 350.944 483.234 350.922 483.254C350.9 483.274 350.886 483.3 350.881 483.33V491.43C350.879 491.461 350.865 491.49 350.843 491.512C350.821 491.534 350.792 491.547 350.761 491.55C336.911 493.02 327.931 502.11 322.881 509.33C306.041 532.81 286.431 581.4 292.481 601.65C295.541 611.81 304.101 616.5 312.321 618.65C317.955 620.064 323.773 620.601 329.571 620.24C329.631 620.24 329.631 620.18 329.691 620.18L335.501 604.63C335.501 604.57 335.561 604.57 335.621 604.57L411.681 604.69C411.741 604.69 411.741 604.69 411.801 604.69C412.221 605.45 417.001 614.84 430.361 621.59Z" fill="#88CE27"/>
<path d="M475.43 616.19C476.522 616.19 477.589 615.867 478.497 615.26C479.405 614.654 480.112 613.791 480.53 612.783C480.948 611.774 481.057 610.664 480.844 609.593C480.631 608.523 480.105 607.539 479.333 606.767C478.561 605.995 477.578 605.469 476.507 605.256C475.436 605.043 474.326 605.153 473.318 605.571C472.309 605.988 471.447 606.696 470.84 607.604C470.234 608.511 469.91 609.579 469.91 610.67C469.91 612.134 470.492 613.538 471.527 614.574C472.562 615.609 473.966 616.19 475.43 616.19Z" fill="black"/>
<path opacity="0.2" d="M511.291 615.72C506.191 617.13 499.791 618.65 492.511 620.13C492.511 620.13 492.451 620.13 492.511 620.07L506.071 610.85C506.191 610.79 506.361 610.79 506.421 610.91C507.751 612.752 509.4 614.34 511.291 615.6C511.351 615.6 511.351 615.66 511.291 615.72Z" fill="#050505"/>
<path opacity="0.2" d="M312.45 618.65C318.077 620.1 323.905 620.617 329.7 620.18L335.57 604.51L329.41 570.23C329.35 570.05 329.11 570.05 329.11 570.23C328.59 574.34 326.42 590.13 323.42 599.1C320.02 609.02 312.92 618 312.42 618.7L312.45 618.65Z" fill="black"/>
<path opacity="0.2" d="M411.69 604.57C411.28 603.86 408.11 598.06 400.69 575.57C400.673 575.508 400.634 575.454 400.581 575.418C400.528 575.382 400.463 575.367 400.4 575.374C400.336 575.381 400.276 575.411 400.233 575.458C400.189 575.505 400.163 575.566 400.16 575.63L397.16 604.63H411.66C411.69 604.63 411.75 604.57 411.69 604.57Z" fill="black"/>
<path d="M419.001 403.67C409.781 397.45 401.681 404.79 399.631 406.84C399.486 406.978 399.302 407.069 399.104 407.101C398.906 407.133 398.703 407.105 398.521 407.02C386.951 401.02 368.941 401.32 360.311 410.31C354.971 415.82 350.741 423.51 349.211 440.47C346.631 468.06 309.771 473.4 309.211 511.66C309.208 511.769 309.228 511.877 309.268 511.978C309.308 512.08 309.368 512.172 309.445 512.249C309.521 512.327 309.613 512.388 309.713 512.429C309.814 512.471 309.922 512.491 310.031 512.49H374.771C374.988 512.484 375.199 512.42 375.384 512.306C375.568 512.192 375.719 512.031 375.821 511.84C386.091 490.77 380.101 465.47 379.051 461.54C379.018 461.376 378.948 461.223 378.845 461.091C378.743 460.959 378.612 460.852 378.461 460.78C375.711 459.25 361.461 450.78 366.321 440.64C371.831 429.08 384.451 438.42 387.091 440.59C387.253 440.724 387.445 440.816 387.651 440.857C387.857 440.899 388.07 440.89 388.271 440.83C391.081 439.94 402.411 436.25 411.091 430.43C423.251 422.51 426.431 408.78 419.001 403.67Z" fill="#010508"/>
<path d="M353.53 413.3C356.62 413.302 359.641 412.387 362.212 410.671C364.782 408.956 366.786 406.516 367.969 403.662C369.152 400.807 369.463 397.666 368.86 394.635C368.258 391.604 366.77 388.82 364.585 386.635C362.4 384.449 359.616 382.962 356.585 382.359C353.554 381.757 350.412 382.067 347.558 383.25C344.703 384.434 342.264 386.438 340.548 389.008C338.833 391.578 337.918 394.599 337.92 397.69C337.923 401.829 339.568 405.798 342.495 408.725C345.422 411.651 349.391 413.297 353.53 413.3Z" fill="#010508"/>
<path opacity="0.2" d="M384.109 472.45L390.919 486.25C390.919 486.31 390.969 486.25 390.969 486.25V474.92C390.969 474.86 390.919 474.81 390.859 474.75C388.772 473.959 386.763 472.975 384.859 471.81C384.766 471.746 384.655 471.715 384.543 471.72C384.43 471.726 384.323 471.769 384.238 471.842C384.152 471.915 384.093 472.014 384.07 472.124C384.046 472.234 384.06 472.349 384.109 472.45Z" fill="#A36C62"/>
<path d="M501.551 803.83C501.551 803.83 502.841 784.64 509.761 787.16C517.921 790 501.551 803.83 501.551 803.83Z" stroke="#043874" stroke-width="4" stroke-linecap="round" stroke-linejoin="round"/>
<path d="M501.551 803.83C509.711 803.24 516.221 802.24 516.221 802.24" stroke="#043874" stroke-width="4" stroke-linecap="round" stroke-linejoin="round"/>
<path d="M394.9 605.15L398.9 616.15C400.544 620.676 403.253 624.74 406.799 627.999C410.344 631.257 414.622 633.614 419.27 634.87L482.77 652.25" stroke="#EFF1F4" stroke-width="4" stroke-linecap="round" stroke-linejoin="round"/>
<path d="M572.689 772.48C572.689 772.48 565.749 753.88 573.099 753.48C581.659 752.94 572.689 772.48 572.689 772.48Z" stroke="#043874" stroke-width="4" stroke-linecap="round" stroke-linejoin="round"/>
<path d="M572.691 772.48C576.964 770.305 581.046 767.773 584.891 764.91" stroke="#043874" stroke-width="4" stroke-linecap="round" stroke-linejoin="round"/>
<path d="M411.75 604.63C407.502 595.183 403.8 585.501 400.66 575.63" stroke="black" stroke-width="4" stroke-linecap="round" stroke-linejoin="round"/>
<path d="M335.57 604.57L329.17 569.12" stroke="black" stroke-width="4" stroke-linecap="round" stroke-linejoin="round"/>
<path d="M546.86 619.66L542.92 616.13" stroke="#050505" stroke-width="4" stroke-linecap="round" stroke-linejoin="round"/>
<path d="M570 621.18L546 608.62" stroke="#050505" stroke-width="4" stroke-linecap="round" stroke-linejoin="round"/>
<path d="M573.33 614.08L549.5 599.93" stroke="#050505" stroke-width="4" stroke-linecap="round" stroke-linejoin="round"/>
<path d="M449.43 688.2L477.84 688.14" stroke="black" stroke-width="4" stroke-linecap="round" stroke-linejoin="round"/>
<path d="M477.84 688.2C485 702.11 484.59 717.73 494.84 744.84L496.65 749.3" stroke="#050505" stroke-width="4" stroke-linecap="round" stroke-linejoin="round"/>
<path d="M474.49 803.24L486.76 822.84" stroke="#043874" stroke-width="4" stroke-linecap="round" stroke-linejoin="round"/>
<path d="M547.801 780.64L574.801 795.37" stroke="#043874" stroke-width="4" stroke-linecap="round" stroke-linejoin="round"/>
<path d="M376.83 447.75L381.83 450.57" stroke="#A36C62" stroke-width="4" stroke-linecap="round" stroke-linejoin="round"/>
<path d="M398.6 407.08C400.65 408.104 402.562 409.384 404.29 410.89" stroke="#075088" stroke-width="4" stroke-linecap="round" stroke-linejoin="round"/>
<path d="M395.609 492.59C394.09 492.198 392.535 491.96 390.969 491.88" stroke="black" stroke-width="4" stroke-linecap="round" stroke-linejoin="round"/>
<path d="M257.289 270.51L295.289 232.51C295.573 232.224 295.91 231.998 296.281 231.843C296.653 231.688 297.052 231.608 297.454 231.608C297.857 231.608 298.255 231.688 298.627 231.843C298.998 231.998 299.336 232.224 299.619 232.51L337.619 270.51" stroke="#1A1A1A" stroke-width="4" stroke-linecap="round" stroke-linejoin="round"/>
<path d="M240.69 265.66H354.19C355.421 265.666 356.599 266.157 357.469 267.029C358.338 267.9 358.827 269.08 358.83 270.31V327.6C358.827 328.83 358.338 330.009 357.468 330.878C356.598 331.748 355.42 332.238 354.19 332.24H240.69C240.077 332.246 239.469 332.129 238.901 331.899C238.332 331.668 237.816 331.327 237.38 330.896C236.944 330.465 236.597 329.952 236.361 329.386C236.124 328.82 236.001 328.213 236 327.6V270.31C236.001 269.697 236.124 269.089 236.36 268.523C236.597 267.957 236.943 267.443 237.379 267.011C237.815 266.579 238.332 266.237 238.9 266.005C239.468 265.774 240.076 265.656 240.69 265.66Z" fill="white"/>
</g>
<defs>
<clipPath id="clip0_331_15196">
<rect width="1200" height="1080" fill="white"/>
</clipPath>
</defs>
</svg>
