<svg width="1200" height="1080" viewBox="0 0 1200 1080" fill="none" xmlns="http://www.w3.org/2000/svg">
<g clip-path="url(#clip0_331_15199)">
<rect width="1200" height="1080" fill="white"/>
<path d="M1200 0H0V1080H1200V0Z" fill="#EFF3E9"/>
<path d="M830.9 244V247.75" stroke="white" stroke-width="4" stroke-linecap="round" stroke-linejoin="round"/>
<path d="M830.9 258.43V262.19" stroke="white" stroke-width="4" stroke-linecap="round" stroke-linejoin="round"/>
<path d="M840 253.109H836.24" stroke="white" stroke-width="4" stroke-linecap="round" stroke-linejoin="round"/>
<path d="M825.57 253.109H821.82" stroke="white" stroke-width="4" stroke-linecap="round" stroke-linejoin="round"/>
<path d="M824.48 246.691L827.12 249.331" stroke="white" stroke-width="4" stroke-linecap="round" stroke-linejoin="round"/>
<path d="M834.67 256.879L837.32 259.529" stroke="white" stroke-width="4" stroke-linecap="round" stroke-linejoin="round"/>
<path d="M837.32 246.691L834.67 249.331" stroke="white" stroke-width="4" stroke-linecap="round" stroke-linejoin="round"/>
<path d="M827.12 256.879L824.48 259.529" stroke="white" stroke-width="4" stroke-linecap="round" stroke-linejoin="round"/>
<path d="M955.67 585.44V608" stroke="white" stroke-width="4" stroke-linecap="round" stroke-linejoin="round"/>
<path d="M955.67 672V694.56" stroke="white" stroke-width="4" stroke-linecap="round" stroke-linejoin="round"/>
<path d="M1010.23 640H987.67" stroke="white" stroke-width="4" stroke-linecap="round" stroke-linejoin="round"/>
<path d="M923.661 640H901.121" stroke="white" stroke-width="4" stroke-linecap="round" stroke-linejoin="round"/>
<path d="M917.109 601.44L932.999 617.32" stroke="white" stroke-width="4" stroke-linecap="round" stroke-linejoin="round"/>
<path d="M978.34 662.66L994.22 678.54" stroke="white" stroke-width="4" stroke-linecap="round" stroke-linejoin="round"/>
<path d="M994.22 601.44L978.34 617.32" stroke="white" stroke-width="4" stroke-linecap="round" stroke-linejoin="round"/>
<path d="M932.999 662.66L917.109 678.54" stroke="white" stroke-width="4" stroke-linecap="round" stroke-linejoin="round"/>
<path d="M288 775.88V780.18" stroke="#0054B6" stroke-width="4" stroke-linecap="round" stroke-linejoin="round"/>
<path d="M288 792.4V796.71" stroke="#0054B6" stroke-width="4" stroke-linecap="round" stroke-linejoin="round"/>
<path d="M298.45 786.29H294.15" stroke="#0054B6" stroke-width="4" stroke-linecap="round" stroke-linejoin="round"/>
<path d="M281.931 786.29H277.621" stroke="#0054B6" stroke-width="4" stroke-linecap="round" stroke-linejoin="round"/>
<path d="M280.68 778.94L283.68 781.94" stroke="#0054B6" stroke-width="4" stroke-linecap="round" stroke-linejoin="round"/>
<path d="M292.371 790.62L295.371 793.62" stroke="#0054B6" stroke-width="4" stroke-linecap="round" stroke-linejoin="round"/>
<path d="M295.4 778.94L292.4 781.94" stroke="#0054B6" stroke-width="4" stroke-linecap="round" stroke-linejoin="round"/>
<path d="M283.711 790.62L280.711 793.62" stroke="#0054B6" stroke-width="4" stroke-linecap="round" stroke-linejoin="round"/>
<path d="M850.1 828.15V832.84" stroke="#61AAFF" stroke-width="4" stroke-linecap="round" stroke-linejoin="round"/>
<path d="M850.1 846.18V850.89" stroke="#61AAFF" stroke-width="4" stroke-linecap="round" stroke-linejoin="round"/>
<path d="M861.469 839.52H856.77" stroke="#61AAFF" stroke-width="4" stroke-linecap="round" stroke-linejoin="round"/>
<path d="M843.43 839.52H838.73" stroke="#61AAFF" stroke-width="4" stroke-linecap="round" stroke-linejoin="round"/>
<path d="M842.07 831.48L845.38 834.79" stroke="#61AAFF" stroke-width="4" stroke-linecap="round" stroke-linejoin="round"/>
<path d="M854.82 844.24L858.13 847.55" stroke="#61AAFF" stroke-width="4" stroke-linecap="round" stroke-linejoin="round"/>
<path d="M858.13 831.48L854.82 834.79" stroke="#61AAFF" stroke-width="4" stroke-linecap="round" stroke-linejoin="round"/>
<path d="M845.38 844.24L842.07 847.55" stroke="#61AAFF" stroke-width="4" stroke-linecap="round" stroke-linejoin="round"/>
<path d="M193.58 428V433" stroke="#61AAFF" stroke-width="4" stroke-linecap="round" stroke-linejoin="round"/>
<path d="M193.58 447.08V452.08" stroke="#61AAFF" stroke-width="4" stroke-linecap="round" stroke-linejoin="round"/>
<path d="M205.58 440H200.58" stroke="#61AAFF" stroke-width="4" stroke-linecap="round" stroke-linejoin="round"/>
<path d="M186.539 440H181.539" stroke="#61AAFF" stroke-width="4" stroke-linecap="round" stroke-linejoin="round"/>
<path d="M185.1 431.551L188.59 435.051" stroke="#61AAFF" stroke-width="4" stroke-linecap="round" stroke-linejoin="round"/>
<path d="M198.559 445L202.059 448.48" stroke="#61AAFF" stroke-width="4" stroke-linecap="round" stroke-linejoin="round"/>
<path d="M202.059 431.551L198.559 435.051" stroke="#61AAFF" stroke-width="4" stroke-linecap="round" stroke-linejoin="round"/>
<path d="M188.59 445L185.1 448.48" stroke="#61AAFF" stroke-width="4" stroke-linecap="round" stroke-linejoin="round"/>
<path d="M241.629 507.21V513.64" stroke="#E5EFD7" stroke-width="4" stroke-linecap="round" stroke-linejoin="round"/>
<path d="M241.629 531.89V538.33" stroke="#E5EFD7" stroke-width="4" stroke-linecap="round" stroke-linejoin="round"/>
<path d="M257.19 522.77H250.75" stroke="#E5EFD7" stroke-width="4" stroke-linecap="round" stroke-linejoin="round"/>
<path d="M232.499 522.77H226.059" stroke="#E5EFD7" stroke-width="4" stroke-linecap="round" stroke-linejoin="round"/>
<path d="M230.629 511.77L235.159 516.3" stroke="#E5EFD7" stroke-width="4" stroke-linecap="round" stroke-linejoin="round"/>
<path d="M248.09 529.23L252.62 533.76" stroke="#E5EFD7" stroke-width="4" stroke-linecap="round" stroke-linejoin="round"/>
<path d="M252.62 511.77L248.09 516.3" stroke="#E5EFD7" stroke-width="4" stroke-linecap="round" stroke-linejoin="round"/>
<path d="M235.159 529.23L230.629 533.76" stroke="#E5EFD7" stroke-width="4" stroke-linecap="round" stroke-linejoin="round"/>
<path opacity="0.2" d="M347.109 609.36L298.109 594.36L313.269 613.21L302.719 634.94L347.109 609.36Z" fill="white"/>
<path d="M163.49 626.25C168.67 635.46 187.13 650.48 197.49 638.38C207.85 626.28 208.19 588.31 193.49 554.68C181.35 526.96 167.49 539.68 177.32 568.54C185.86 593.73 207.32 625.14 237.95 629.18C268.58 633.22 264.71 591.47 260.45 577.8C257.57 568.54 250.03 566.24 252.34 575.5C254.65 584.76 274.26 609.56 312.97 603.8" stroke="white" stroke-width="4" stroke-linecap="round" stroke-linejoin="round"/>
<path d="M347.109 599.92L298.109 584.92L313.269 603.77L302.719 625.5L347.109 599.92Z" fill="white"/>
<path d="M834.531 339.761H757.271C752.704 339.761 748.324 337.947 745.094 334.718C741.865 331.488 740.051 327.108 740.051 322.541C740.051 317.974 741.865 313.594 745.094 310.365C748.324 307.136 752.704 305.321 757.271 305.321H852.001C855.101 305.257 858.182 305.812 861.064 306.954C863.947 308.096 866.573 309.802 868.788 311.971C871.002 314.141 872.762 316.73 873.963 319.588C875.165 322.447 875.783 325.516 875.783 328.616C875.783 331.717 875.165 334.786 873.963 337.644C872.762 340.503 871.002 343.092 868.788 345.262C866.573 347.431 863.947 349.137 861.064 350.279C858.182 351.421 855.101 351.976 852.001 351.911H781.721" stroke="#E5EFD7" stroke-width="4" stroke-linecap="round" stroke-linejoin="round"/>
<path d="M792.889 459.74H701.359C698.931 459.737 696.602 458.771 694.885 457.054C693.168 455.336 692.202 453.008 692.199 450.58V386.18C692.202 383.751 693.168 381.423 694.885 379.705C696.602 377.988 698.931 377.022 701.359 377.02H726.099C727.692 377.024 729.257 377.442 730.64 378.232C732.023 379.023 733.177 380.159 733.989 381.53L736.839 386.37C737.651 387.742 738.807 388.88 740.192 389.671C741.577 390.461 743.144 390.878 744.739 390.88H792.999C795.425 390.887 797.749 391.855 799.464 393.572C801.179 395.288 802.144 397.614 802.149 400.04V450.58C802.147 451.787 801.906 452.982 801.441 454.096C800.976 455.21 800.296 456.221 799.439 457.072C798.583 457.923 797.567 458.596 796.45 459.054C795.333 459.512 794.136 459.745 792.929 459.74H792.889Z" fill="#61AAFF"/>
<path d="M405.131 612.47H553.681C557.352 612.48 560.87 613.943 563.467 616.537C566.063 619.132 567.528 622.649 567.541 626.32V796.61C567.531 800.282 566.067 803.802 563.47 806.399C560.873 808.996 557.354 810.459 553.681 810.47H405.131C401.46 810.459 397.941 808.995 395.346 806.398C392.751 803.801 391.289 800.281 391.281 796.61V626.32C391.28 624.501 391.637 622.699 392.333 621.018C393.028 619.337 394.049 617.81 395.335 616.523C396.621 615.237 398.149 614.217 399.83 613.521C401.51 612.826 403.312 612.468 405.131 612.47Z" fill="#61AAFF"/>
<path d="M422.891 656.22L429.001 662.32L438.871 652.51" stroke="white" stroke-width="4" stroke-linecap="round" stroke-linejoin="round"/>
<path d="M434.771 715.69C435.87 714.929 436.718 713.858 437.208 712.615C437.699 711.372 437.81 710.011 437.527 708.704C437.244 707.398 436.581 706.204 435.62 705.275C434.659 704.346 433.444 703.722 432.129 703.483C430.814 703.244 429.457 703.4 428.231 703.932C427.004 704.464 425.963 705.347 425.239 706.471C424.514 707.594 424.139 708.907 424.161 710.244C424.183 711.581 424.6 712.881 425.361 713.98C425.865 714.712 426.509 715.336 427.256 715.818C428.002 716.3 428.836 716.63 429.711 716.789C430.585 716.948 431.482 716.933 432.35 716.744C433.219 716.556 434.041 716.197 434.771 715.69V715.69Z" stroke="white" stroke-width="4" stroke-linecap="round" stroke-linejoin="round"/>
<path d="M434.771 768.32C435.87 767.558 436.718 766.488 437.208 765.245C437.699 764.001 437.81 762.64 437.527 761.334C437.244 760.027 436.581 758.834 435.62 757.905C434.659 756.975 433.444 756.352 432.129 756.113C430.814 755.874 429.457 756.03 428.231 756.562C427.004 757.094 425.963 757.977 425.239 759.101C424.514 760.224 424.139 761.537 424.161 762.874C424.183 764.21 424.6 765.511 425.361 766.61C425.865 767.341 426.509 767.966 427.256 768.448C428.002 768.93 428.836 769.26 429.711 769.419C430.585 769.578 431.482 769.563 432.35 769.374C433.219 769.185 434.041 768.827 434.771 768.32V768.32Z" stroke="white" stroke-width="4" stroke-linecap="round" stroke-linejoin="round"/>
<path d="M458 658.67H519.65" stroke="#0054B6" stroke-width="4" stroke-linecap="round" stroke-linejoin="round"/>
<path d="M458 710.18H519.65" stroke="#0054B6" stroke-width="4" stroke-linecap="round" stroke-linejoin="round"/>
<path d="M458 762.35H519.65" stroke="#0054B6" stroke-width="4" stroke-linecap="round" stroke-linejoin="round"/>
<path d="M306.63 509.771C300.739 509.766 295.09 507.423 290.924 503.257C286.758 499.091 284.415 493.443 284.41 487.551V277.001C284.415 271.11 286.758 265.461 290.924 261.295C295.09 257.129 300.739 254.787 306.63 254.781H579.83C585.722 254.787 591.37 257.129 595.536 261.295C599.702 265.461 602.045 271.11 602.05 277.001V487.551C602.045 493.443 599.702 499.091 595.536 503.257C591.37 507.423 585.722 509.766 579.83 509.771H306.63Z" fill="white"/>
<path d="M284.42 302.48H603" stroke="white" stroke-width="4"/>
<path d="M307.79 286.58C309.461 286.58 311.095 286.084 312.484 285.156C313.874 284.227 314.957 282.907 315.597 281.363C316.236 279.819 316.404 278.12 316.077 276.481C315.751 274.842 314.947 273.336 313.765 272.155C312.583 270.973 311.077 270.168 309.438 269.842C307.799 269.516 306.1 269.683 304.556 270.323C303.012 270.962 301.692 272.046 300.764 273.435C299.835 274.825 299.34 276.458 299.34 278.13C299.34 280.371 300.23 282.52 301.815 284.105C303.399 285.689 305.549 286.58 307.79 286.58Z" fill="white"/>
<path d="M333.391 286.58C335.063 286.58 336.696 286.084 338.086 285.156C339.476 284.227 340.559 282.907 341.198 281.363C341.838 279.819 342.005 278.12 341.679 276.481C341.353 274.842 340.548 273.336 339.366 272.155C338.185 270.973 336.679 270.168 335.04 269.842C333.401 269.516 331.702 269.683 330.158 270.323C328.614 270.962 327.294 272.046 326.365 273.435C325.437 274.825 324.941 276.458 324.941 278.13C324.941 280.371 325.832 282.52 327.416 284.105C329.001 285.689 331.15 286.58 333.391 286.58Z" fill="white"/>
<path d="M359.001 286.58C360.672 286.58 362.306 286.084 363.695 285.156C365.085 284.227 366.168 282.907 366.808 281.363C367.447 279.819 367.614 278.12 367.288 276.481C366.962 274.842 366.158 273.336 364.976 272.155C363.794 270.973 362.288 270.168 360.649 269.842C359.01 269.516 357.311 269.683 355.767 270.323C354.223 270.962 352.903 272.046 351.975 273.435C351.046 274.825 350.551 276.458 350.551 278.13C350.551 280.371 351.441 282.52 353.026 284.105C354.61 285.689 356.76 286.58 359.001 286.58Z" fill="white"/>
<path d="M372.571 366.91H338.211V473.91H372.571V366.91Z" fill="#61AAFF"/>
<path d="M496.891 351.26H462.531V473.87H496.891V351.26Z" fill="#E5EFD7"/>
<path d="M434.69 328.67H400.32V473.87H434.69V328.67Z" fill="#0054B6"/>
<path d="M559.001 412.09H524.641V473.87H559.001V412.09Z" fill="#0054B6"/>
<path d="M321 473.871H576.19" stroke="black" stroke-width="4" stroke-linecap="round" stroke-linejoin="round"/>
<path d="M220.81 357.999C218.631 355.88 216.891 353.353 215.69 350.561C214.488 347.769 213.85 344.768 213.81 341.729C213.758 337.155 215.066 332.669 217.569 328.84C220.071 325.011 223.655 322.012 227.865 320.224C232.075 318.436 236.721 317.938 241.214 318.796C245.707 319.653 249.844 321.826 253.1 325.039L253.43 325.359L257.86 329.799L262.2 325.359C265.41 322.069 269.532 319.816 274.034 318.891C278.537 317.966 283.213 318.411 287.46 320.169C290.285 321.31 292.85 323.01 295 325.169C297.16 327.322 298.87 329.884 300.031 332.705C301.191 335.525 301.779 338.549 301.76 341.599C301.755 344.654 301.142 347.678 299.956 350.494C298.769 353.31 297.034 355.861 294.85 357.999L258.08 394.769L220.81 357.999Z" fill="#88CE27"/>
<path d="M746.26 519.37H894.91C898.584 519.381 902.104 520.844 904.703 523.441C907.301 526.037 908.767 529.557 908.78 533.23V703.64C908.77 707.315 907.305 710.837 904.706 713.436C902.107 716.035 898.586 717.5 894.91 717.51H746.26C742.586 717.5 739.065 716.035 736.468 713.435C733.871 710.836 732.408 707.315 732.4 703.64V533.23C732.399 531.41 732.757 529.607 733.453 527.925C734.149 526.242 735.17 524.714 736.457 523.427C737.744 522.139 739.273 521.119 740.955 520.422C742.637 519.726 744.44 519.369 746.26 519.37Z" fill="#E5EFD7"/>
<path d="M764 563.15L770.1 569.25L779.99 559.44" stroke="white" stroke-width="4" stroke-linecap="round" stroke-linejoin="round"/>
<path d="M775.93 622.66C777.027 621.898 777.874 620.827 778.363 619.584C778.852 618.34 778.962 616.98 778.679 615.674C778.395 614.368 777.731 613.176 776.77 612.247C775.809 611.319 774.595 610.696 773.28 610.457C771.965 610.219 770.609 610.375 769.383 610.907C768.158 611.438 767.117 612.321 766.392 613.444C765.668 614.566 765.292 615.879 765.313 617.215C765.334 618.551 765.751 619.851 766.51 620.95C767.532 622.426 769.099 623.435 770.866 623.756C772.632 624.077 774.454 623.682 775.93 622.66Z" stroke="white" stroke-width="4" stroke-linecap="round" stroke-linejoin="round"/>
<path d="M775.919 675.33C777.018 674.568 777.866 673.498 778.357 672.255C778.847 671.011 778.958 669.65 778.676 668.344C778.393 667.037 777.729 665.844 776.768 664.915C775.807 663.985 774.592 663.362 773.277 663.123C771.962 662.884 770.605 663.04 769.379 663.572C768.153 664.104 767.111 664.987 766.387 666.111C765.663 667.234 765.288 668.547 765.309 669.884C765.331 671.22 765.749 672.52 766.509 673.62C767.015 674.35 767.659 674.974 768.405 675.455C769.152 675.936 769.986 676.266 770.86 676.425C771.734 676.584 772.63 676.569 773.499 676.381C774.367 676.193 775.189 675.836 775.919 675.33V675.33Z" stroke="white" stroke-width="4" stroke-linecap="round" stroke-linejoin="round"/>
<path d="M799.199 565.6H860.889" stroke="#0054B6" stroke-width="4" stroke-linecap="round" stroke-linejoin="round"/>
<path d="M799.199 617.14H860.889" stroke="#0054B6" stroke-width="4" stroke-linecap="round" stroke-linejoin="round"/>
<path d="M799.199 669.35H860.889" stroke="#0054B6" stroke-width="4" stroke-linecap="round" stroke-linejoin="round"/>
<path d="M956.461 665V670.64" stroke="#0054B6" stroke-width="4" stroke-linecap="round" stroke-linejoin="round"/>
<path d="M956.461 686.63V692.28" stroke="#0054B6" stroke-width="4" stroke-linecap="round" stroke-linejoin="round"/>
<path d="M970.109 678.63H964.469" stroke="#0054B6" stroke-width="4" stroke-linecap="round" stroke-linejoin="round"/>
<path d="M948.449 678.63H942.809" stroke="#0054B6" stroke-width="4" stroke-linecap="round" stroke-linejoin="round"/>
<path d="M962.129 684.3L966.129 688.3" stroke="#0054B6" stroke-width="4" stroke-linecap="round" stroke-linejoin="round"/>
<path d="M966.109 669L962.109 673" stroke="#0054B6" stroke-width="4" stroke-linecap="round" stroke-linejoin="round"/>
<path d="M950.789 684.3L946.789 688.3" stroke="#0054B6" stroke-width="4" stroke-linecap="round" stroke-linejoin="round"/>
<path d="M962.799 541.999L932.589 430.109L864.469 448.509L848.629 476.079L872.999 566.249L962.799 541.999Z" fill="#61AAFF"/>
<path opacity="0.2" d="M866.819 475.35L864.469 448.51L848.629 476.08L866.819 475.35Z" fill="#181818"/>
<path d="M870.329 470.21L864.469 448.51L848.629 476.08L870.329 470.21Z" fill="white"/>
<path d="M874.18 484.279L916.48 472.859" stroke="white" stroke-width="4" stroke-linecap="round"/>
<path d="M882.57 515.33L916.23 506.26" stroke="white" stroke-width="4" stroke-linecap="round"/>
<path d="M878.391 499.791L903.851 492.941" stroke="white" stroke-width="4" stroke-linecap="round"/>
<path d="M968.901 434.1H937.701L925.701 443.73C925.067 444.237 924.259 444.475 923.451 444.392C922.643 444.31 921.9 443.914 921.381 443.29C920.941 442.747 920.704 442.068 920.711 441.37V407.85C920.714 404.4 921.396 400.984 922.718 397.798C924.041 394.612 925.978 391.717 928.42 389.28C930.861 386.842 933.758 384.909 936.946 383.592C940.135 382.274 943.551 381.597 947.001 381.6H968.901C975.863 381.6 982.54 384.365 987.463 389.288C992.385 394.211 995.151 400.888 995.151 407.85C995.151 414.812 992.385 421.488 987.463 426.411C982.54 431.334 975.863 434.1 968.901 434.1Z" fill="#0054B6"/>
<path d="M956.779 417.48L951.429 421.18C950.957 421.5 950.38 421.623 949.819 421.522C949.258 421.421 948.759 421.105 948.429 420.64C948.247 420.378 948.127 420.078 948.081 419.762C948.034 419.446 948.06 419.124 948.159 418.82L949.989 412.58C950.115 412.161 950.109 411.713 949.973 411.296C949.838 410.88 949.578 410.515 949.229 410.25L944.059 406.25C943.836 406.08 943.648 405.867 943.507 405.623C943.366 405.38 943.275 405.112 943.238 404.833C943.2 404.555 943.218 404.271 943.291 404C943.363 403.728 943.488 403.474 943.659 403.25C943.86 403.003 944.111 402.8 944.395 402.655C944.679 402.511 944.99 402.427 945.309 402.41L951.819 402.23C952.258 402.222 952.684 402.081 953.041 401.826C953.398 401.571 953.669 401.213 953.819 400.8L955.999 394.7C956.091 394.435 956.234 394.191 956.421 393.982C956.608 393.773 956.835 393.604 957.088 393.483C957.34 393.362 957.615 393.292 957.895 393.278C958.175 393.264 958.455 393.306 958.719 393.4C959.016 393.512 959.286 393.685 959.51 393.909C959.734 394.134 959.908 394.403 960.019 394.7L962.199 400.8C962.349 401.213 962.62 401.571 962.977 401.826C963.334 402.081 963.76 402.222 964.199 402.23L970.709 402.41C971.27 402.436 971.801 402.677 972.19 403.082C972.579 403.488 972.797 404.028 972.799 404.59C972.795 404.911 972.717 405.227 972.572 405.513C972.426 405.8 972.216 406.048 971.959 406.24L966.779 410.24C966.437 410.511 966.183 410.877 966.05 411.291C965.916 411.706 965.909 412.151 966.029 412.57L967.859 418.81C967.986 419.235 967.979 419.688 967.838 420.108C967.698 420.529 967.431 420.895 967.074 421.158C966.717 421.421 966.288 421.567 965.845 421.576C965.402 421.585 964.966 421.458 964.599 421.21L959.249 417.51C958.895 417.241 958.464 417.092 958.019 417.087C957.574 417.081 957.139 417.219 956.779 417.48Z" fill="white"/>
<path d="M391 824.8C399.372 824.8 407.557 822.317 414.518 817.665C421.48 813.013 426.905 806.402 430.109 798.666C433.312 790.931 434.15 782.419 432.516 774.208C430.882 765.996 426.849 758.454 420.928 752.534C415.007 746.615 407.464 742.584 399.252 740.952C391.04 739.32 382.529 740.159 374.794 743.365C367.059 746.57 360.449 751.997 355.799 758.96C351.149 765.922 348.668 774.107 348.67 782.48C348.673 793.705 353.133 804.469 361.072 812.405C369.01 820.341 379.775 824.8 391 824.8Z" fill="#0054B6"/>
<path d="M391 808C396.041 808 400.969 806.505 405.161 803.704C409.353 800.903 412.62 796.922 414.549 792.264C416.479 787.606 416.984 782.481 416 777.537C415.016 772.592 412.589 768.05 409.024 764.485C405.459 760.921 400.917 758.493 395.973 757.509C391.028 756.526 385.903 757.031 381.245 758.96C376.587 760.889 372.606 764.156 369.806 768.348C367.005 772.54 365.51 777.468 365.51 782.51C365.51 789.27 368.195 795.753 372.976 800.534C377.756 805.314 384.239 808 391 808Z" fill="#4098FF"/>
<path d="M399.66 768.81L391 782.48L397.38 790.66" stroke="black" stroke-width="4" stroke-linecap="round" stroke-linejoin="round"/>
<path d="M570 524.07C564.79 527.37 560.1 531.07 560 532.87C559.9 534.67 563 536.68 567.63 536.24L575.26 530.52L570 524.07Z" fill="#CEA482"/>
<path d="M592.579 847.5C595.943 831.324 597.834 814.877 598.229 798.36L595.879 794.91L529.439 798L529.359 798.37C529.509 800.64 529.509 802.84 529.579 804.97C529.869 812.6 529.869 818.31 529.579 822.97L549.579 860.74L592.579 847.5Z" fill="#CEA482"/>
<path d="M724.23 847.5C725.147 831.083 724.36 814.615 721.88 798.36L721 796.89L653.6 794.11V798.28C654.7 800.78 655.8 803.12 656.6 805.03C659.22 810.947 661.23 817.116 662.6 823.44L681 860L724.23 847.5Z" fill="#CEA482"/>
<path d="M556.78 499.9H637.46C637.68 506.1 661.74 536.98 667.53 574.67C669.36 586.67 670.39 600.42 671.42 614.94C673.62 645.81 676.19 680.72 688.07 705.21C689.46 708.15 690.86 710.94 692.18 713.65C703.33 736.38 712.05 754.35 716.67 772.65C718.87 781.3 720.56 789.73 721.88 798.32L653.67 798.39C653.67 798.39 649.34 788.93 646.92 783.57C637.17 761.94 625.07 735.02 615.46 709.65C610.4 696.3 605.78 679.8 601.74 663.01C597.64 677.23 594.12 691.16 592.74 703.71C591.36 716.26 593.18 732.53 595.15 749.71C596.15 759.32 597.36 769.22 597.87 778.54C598.31 785.72 598.38 792.18 598.24 798.34H529.36C528.63 782.72 527.09 764.6 524.96 739.45C524.59 735.12 524.23 730.57 523.79 725.73C515.13 622.62 547.99 524.41 554.22 507.91L556.78 499.9Z" fill="#0054B6"/>
<path opacity="0.3" d="M592.729 703.75C594.849 684.46 594.929 684.9 601.729 663.05L590.069 603.35C590.069 603.35 580.469 556.48 577.239 582.01C572.269 622.64 592.499 702.94 592.729 703.75Z" fill="#000102"/>
<path d="M525.18 742.4C533.262 741.336 540.654 737.288 545.903 731.051C551.153 724.814 553.88 716.84 553.549 708.695C553.218 700.549 549.853 692.822 544.116 687.032C538.378 681.241 530.682 677.806 522.54 677.4C522.064 693.544 522.481 709.702 523.79 725.8C524.08 729.4 524.37 732.8 524.67 736.07C524.74 738.15 525.11 742.4 525.18 742.4Z" fill="#000102"/>
<path d="M627.269 738.88C632.573 736.155 637.019 732.014 640.113 726.917C643.208 721.819 644.829 715.963 644.799 710C644.791 701.347 641.349 693.05 635.229 686.932C629.109 680.815 620.812 677.375 612.159 677.37C609.943 677.373 607.732 677.591 605.559 678.02C608.318 688.722 611.622 699.276 615.459 709.64C618.769 718.41 622.649 728 627.269 738.88Z" fill="#000102"/>
<path d="M602.261 665.1C595.071 635.76 588.921 601.81 584.441 572.25" stroke="#000102" stroke-width="4" stroke-linecap="round" stroke-linejoin="round"/>
<path d="M396.4 506.389C397.16 506.374 397.91 506.201 398.6 505.879C399.464 505.411 400.189 504.724 400.703 503.887C401.218 503.049 401.503 502.092 401.53 501.109C405.164 502.114 408.91 502.658 412.68 502.729C417.3 502.729 420.74 501.729 422.87 499.729C422.87 499.729 422.95 499.649 422.95 499.729C423.61 500.019 431.2 503.049 439.56 506.029L448.84 457.409C431.707 453.879 414.251 452.159 396.76 452.279C369.85 452.279 355.62 453.739 353.5 456.819C353.316 457.042 353.198 457.312 353.159 457.598C353.12 457.884 353.162 458.176 353.28 458.439C355.28 464.439 378.21 465.549 387.94 465.899C378.36 465.549 373.88 468.479 373.66 472.669C373.51 475.159 374.91 477.579 377.66 479.929C376.638 481.13 376.116 482.676 376.2 484.249C376.34 486.249 377.59 488.069 379.94 489.829L382.51 491.589C382.43 491.589 379.28 495.839 385.07 500.539C390.31 504.559 393.76 506.389 396.4 506.389Z" fill="#CEA482"/>
<path d="M501.05 520.251C503.553 520.281 506.054 520.111 508.53 519.741C515.28 518.641 523.05 513.941 531.64 505.741C539.476 498.011 546.481 489.481 552.54 480.291C552.61 480.151 552.76 480.221 552.83 480.361L554.83 506.551H637.48L670.56 400.281L667.56 397.201C653.19 382.821 633.75 380.701 623.41 380.701C621.012 380.682 618.614 380.802 616.23 381.061L571.49 383.271C571.34 383.271 553.74 384.141 542.88 395.001C520.44 418.181 496.17 466.361 495.95 466.871C495.73 466.801 473.73 461.301 447.76 457.121L438.16 505.521C453.23 511.091 481.32 520.251 501.05 520.251Z" fill="#88CE27"/>
<path d="M554.551 506.42H639.001" stroke="#000102" stroke-width="4" stroke-linecap="round" stroke-linejoin="round"/>
<path opacity="0.3" d="M539.109 497.67C543.987 492.023 548.496 486.067 552.609 479.84L550.189 450.73L539.109 497.67Z" fill="black"/>
<path opacity="0.3" d="M609.59 506.47H637.46L648.4 471.33L646.3 468.5L637.5 456.24L609.59 506.47Z" fill="black"/>
<path d="M495.92 466.859L500.76 476.859" stroke="black" stroke-width="4" stroke-linecap="round" stroke-linejoin="round"/>
<path d="M409.82 452.629C409.82 452.629 382.61 466.999 381.8 472.999C381 479.379 406.37 471.159 406.37 471.159C406.37 471.159 415 482.999 424.41 485.999" stroke="#191919" stroke-width="4" stroke-linecap="round" stroke-linejoin="round"/>
<path d="M401.61 500.819C401.83 497.369 397.42 494.359 397.42 494.359" stroke="#191919" stroke-width="4" stroke-linecap="round" stroke-linejoin="round"/>
<path d="M382.609 491.5C389.359 495.5 400.059 498.5 398.669 488.65" stroke="#191919" stroke-width="4" stroke-linecap="round" stroke-linejoin="round"/>
<path d="M377.77 479.84C380.85 481.97 395.52 491.5 399.7 486.3C403.88 481.1 394.05 475 394.05 475" stroke="#191919" stroke-width="4" stroke-linecap="round" stroke-linejoin="round"/>
<path d="M722.459 868.76C723.269 860.92 723.859 854.02 724.229 847.5H687.409L689.459 833.85C689.526 833.39 689.552 832.925 689.539 832.46C689.54 831.207 689.294 829.966 688.815 828.809C688.336 827.651 687.633 826.6 686.747 825.714C685.861 824.829 684.809 824.127 683.651 823.65C682.493 823.172 681.252 822.927 679.999 822.93H662.469C664.599 834.14 662.179 840.23 660.199 843.83C658.219 847.43 652.129 851.68 646.339 855.78C641.789 858.93 637.099 862.24 634.529 865.09C633.484 866.277 632.643 867.628 632.039 869.09L676.389 873.73L722.459 868.76Z" fill="#0054B6"/>
<path d="M721.069 880.5C721.589 876.5 722.019 872.65 722.459 868.84V868.69H631.999C630.242 872.334 629.579 876.408 630.089 880.42L721.069 880.5Z" fill="#010101"/>
<path d="M587.371 869C589.371 861.89 591.111 854.48 592.581 847.52H553.861L555.861 833.87C555.919 833.409 555.942 832.945 555.931 832.48C555.933 831.228 555.689 829.988 555.211 828.83C554.733 827.673 554.031 826.621 553.145 825.736C552.26 824.85 551.208 824.148 550.051 823.67C548.893 823.192 547.653 822.948 546.401 822.95H529.581C528.851 833.36 526.721 837.95 522.321 843.85C520.001 847 515.001 850.72 509.711 854.75C505.011 858.28 500.171 861.94 497.381 865.09C496.488 866.066 495.728 867.155 495.121 868.33L494.891 869.05L536.251 876.25L587.371 869Z" fill="#0054B6"/>
<path d="M584 880.5C585.25 876.5 586.42 872.58 587.44 868.76H495C493.248 872.408 492.589 876.485 493.1 880.5H584Z" fill="#010101"/>
<path d="M658.391 846.36L666.801 852.63" stroke="#010101" stroke-width="4" stroke-linecap="round" stroke-linejoin="round"/>
<path d="M520 846.54L528.92 852.63" stroke="#010101" stroke-width="4" stroke-linecap="round" stroke-linejoin="round"/>
<path d="M589.721 403.131C612.241 403.131 618.251 381.351 618.321 381.131C618.251 380.541 613.411 328.761 612.321 318.791C610.121 298.621 599.491 298.031 580.321 298.031C577.461 298.031 574.091 292.241 570.861 292.751C554.581 295.171 542.771 296.931 538.161 309.041C536.241 313.871 536.541 320.841 536.761 328.171C536.831 330.891 536.981 333.611 536.981 336.391C536.981 336.391 531.111 339.841 531.261 342.631C531.481 345.851 537.931 349.081 537.931 349.081C538.301 358.021 538.671 367.271 545.121 373.871C547.691 376.511 552.531 378.051 557.881 378.051C561.502 378.045 565.09 377.35 568.451 376.001L569.181 384.071C569.181 384.281 574.321 403.131 589.721 403.131Z" fill="#CEA482"/>
<path opacity="0.3" d="M578.719 369.841C575.129 377.391 570.869 380.621 569.479 381.491C569.423 381.522 569.36 381.539 569.295 381.541C569.23 381.543 569.166 381.529 569.108 381.5C569.05 381.472 569 381.43 568.962 381.377C568.924 381.325 568.899 381.265 568.889 381.201L568.449 376.201C568.455 376.067 568.508 375.939 568.599 375.841L578.129 369.311C578.203 369.248 578.297 369.214 578.394 369.215C578.491 369.216 578.584 369.252 578.656 369.317C578.729 369.382 578.775 369.471 578.786 369.567C578.798 369.664 578.774 369.761 578.719 369.841Z" fill="#191919"/>
<path d="M583.93 347.319L590.53 341.449" stroke="#191919" stroke-width="4" stroke-linecap="round" stroke-linejoin="round"/>
<path d="M611.429 366.32C613.479 366.32 615.099 366.17 616.049 366.1C616.311 366.069 616.551 365.937 616.715 365.731C616.88 365.525 616.957 365.262 616.929 365C615.539 348.13 613.189 322.46 612.459 315.64C610.249 295.54 599.399 285.35 580.259 285.35C577.165 285.353 574.075 285.597 571.019 286.08C554.729 288.5 542.639 296.79 537.939 308.89C536.839 311.68 536.619 315.2 536.469 318.13C536.467 318.377 536.557 318.616 536.722 318.801C536.886 318.985 537.113 319.102 537.359 319.13C538.021 319.227 538.689 319.277 539.359 319.28C542.449 319.28 548.459 318.28 556.079 311.65C556.231 311.468 556.442 311.347 556.675 311.307C556.908 311.267 557.148 311.311 557.352 311.431C557.556 311.55 557.71 311.739 557.788 311.962C557.867 312.185 557.863 312.429 557.779 312.65C556.529 317.19 556.599 320.49 557.999 322.47C558.949 323.86 560.639 324.6 562.909 324.6C565.533 324.464 568.113 323.865 570.529 322.83C570.688 322.76 570.862 322.732 571.035 322.75C571.207 322.767 571.372 322.83 571.514 322.931C571.655 323.032 571.768 323.168 571.84 323.325C571.913 323.483 571.944 323.657 571.929 323.83C571.709 326.55 571.629 331.9 573.689 335.71C573.758 335.844 573.857 335.96 573.977 336.051C574.098 336.142 574.238 336.204 574.386 336.232C574.534 336.261 574.687 336.256 574.833 336.218C574.979 336.179 575.114 336.108 575.229 336.01C577.939 333.66 586.229 326.92 593.229 326.92C594.545 326.902 595.846 327.2 597.024 327.788C598.202 328.376 599.222 329.237 599.999 330.3C609.529 342.4 595.999 356.05 592.149 359.57C592.031 359.674 591.938 359.805 591.88 359.951C591.822 360.098 591.799 360.256 591.814 360.413C591.829 360.57 591.88 360.721 591.964 360.854C592.049 360.988 592.163 361.099 592.299 361.18C598.369 365.43 605.999 366.32 611.429 366.32Z" fill="#191919"/>
<path d="M605.999 586.48L562.879 511.75L513.379 540.27L556.569 615L605.999 586.48Z" fill="#E5EFD7"/>
<path d="M637.05 455.671L655.8 482.261C655.58 482.341 634.8 492.611 618.91 500.161L639 545.701C660 540.701 697.31 529.351 711.54 509.401C734.86 476.771 688 416.691 667.54 397.191" fill="#88CE27"/>
<path d="M569.25 582C577.98 582 622.35 549.28 622.8 549C622.87 549 629.54 548 639.15 545.7L619.2 500C612.46 503.16 606.66 505.87 603.73 507.19C576.88 518.79 570.06 524 570 524.07L573.67 530.67C573.45 530.81 547.93 548.34 543.6 554.87C542.06 557.14 541.54 559.27 541.99 561.1C542.304 562.466 543.145 563.652 544.33 564.4C542.65 567.55 542.28 569.98 543.23 571.67C544.55 573.94 547.93 573.94 548 573.94C548.29 576.5 550 577.75 553 577.75C560.7 577.75 574.85 568.95 575.15 568.75C574.85 568.98 565.31 577.63 566.56 580.75C566.84 581.64 567.72 582 569.25 582Z" fill="#CEA482"/>
<path d="M552.761 479.92L550.191 450.73" stroke="black" stroke-width="4" stroke-linecap="round" stroke-linejoin="round"/>
<path d="M647.371 470.31L637.371 456.16" stroke="black" stroke-width="4" stroke-linecap="round" stroke-linejoin="round"/>
<path d="M655.801 481.531L670.911 483.881" stroke="black" stroke-width="4" stroke-linecap="round" stroke-linejoin="round"/>
<path d="M544.32 564.4L576.59 541.67" stroke="#191919" stroke-width="4" stroke-linecap="round" stroke-linejoin="round"/>
<path d="M548 573.94L582.47 551.2" stroke="#191919" stroke-width="4" stroke-linecap="round" stroke-linejoin="round"/>
<path d="M575.129 568.8L587.599 560.74" stroke="#191919" stroke-width="4" stroke-linecap="round" stroke-linejoin="round"/>
<path d="M305.09 725.89L312.62 682.55L269.27 690.07L279.32 700.13L261.15 718.3L276.86 734L295 715.84L305.09 725.89Z" fill="white"/>
</g>
<defs>
<clipPath id="clip0_331_15199">
<rect width="1200" height="1080" fill="white"/>
</clipPath>
</defs>
</svg>
